<svg xmlns="http://www.w3.org/2000/svg" viewBox="0 0 1400 1400"><defs><style>.cls-1{opacity:0.2;}</style></defs><title>SVG</title><g id="Gray"><path class="cls-1" d="M279.75,950.3c1.93,4.52,3.93,9,6,13.39,4,8.48,8.66,16.71,13.49,24.76,4.44,7.41,9.23,14.61,13.9,21.88,5.46,8.51,10.87,17,16.63,25.35A203.5,203.5,0,0,0,348.23,1058c2.95,3.17,6.18,6.11,9.37,9,3.65,3.36,7.35,6.74,11.23,9.84s7.65,6,11.59,8.9c4.21,3.1,8.72,5.84,13.21,8.51,3.75,2.24,7.64,4.21,11.54,6.18,4.71,2.37,9.48,4.58,14.36,6.6,17.64,7.3,36.85,10.14,55.78,11.65q15.13,1.2,30.31,1.55c1.75,0,3.51,0,5.26,0,5,0,10-.14,14.93-.33l.9,0a20.86,20.86,0,0,0,2.5-.17l2.88-.13c18.38-.83,36.72-2.23,55.11-2.78,17.5-.52,35,.17,52.54.61,18.65.48,37.27.7,55.92-.21a410.46,410.46,0,0,0,54.24-6.5c8.88-1.63,17.73-3.52,26.65-4.87,2-.3,3.93-.61,5.9-.9-.19.54-.37,1.07-.56,1.6-1.6,4.57-3.29,9.1-4.89,13.66l-.1.32c-.2.58-.41,1.15-.61,1.74l-.09.26,0-.1c-1.28,3.69-2.19,7.5-3.35,11.22a.09.09,0,0,1,0,0,6.32,6.32,0,0,0,5.41,9.42,6.39,6.39,0,0,0,6.24-6.93c.41-.75.85-1.46,1.31-2.19,4.16-6.06,8.4-12.13,12.94-17.9,1.44-1.83,2.88-3.66,4.29-5.5a19,19,0,0,0,6,1.15c7.25.28,12.73-3.37,17.19-8.4h.16c8.8.43,17.59,1,26.39,1.43,17.9.91,35.8.87,53.71.19,9.52-.36,19.08-1.23,28.52-2.41,9.12-1.14,18.17-2.52,27.2-4.24s18.25-3.75,27.22-6.2c9.19-2.51,18.25-5.32,27.27-8.39,8.84-3,17.59-6.29,26.1-10.11a241.48,241.48,0,0,0,25.92-13.64,171.6,171.6,0,0,0,44.63-39.13,97.91,97.91,0,0,0,8.49-13.08,120.07,120.07,0,0,0,6.47-14.13c5.39-13.12,6.93-27.43,7.74-41.46,1.1-18.91-1.33-37.84-4.4-56.47-1.61-9.71-3.85-19.28-6.36-28.78-.59-2.22-1.41-4.39-2.12-6.57-.78-2.42-1.59-4.82-2.5-7.19-1.82-4.81-3.72-9.55-5.71-14.29-3.49-8.33-7.31-16.53-11-24.78-3.53-7.89-7-15.82-10.48-23.73-7.35-16.67-13.78-33.68-20.4-50.64-6.7-17.16-15.12-33.57-23.44-50-2.47-5.36-4.91-10.73-7.37-16.1-1-2.11-1.72-4.34-2.57-6.51q-1.92-4.92-3.86-9.83c-2-5.13-3.78-10.38-5.66-15.57q-2.34-6.5-4.64-13c-.07-.23-.16-.46-.23-.69l-.12-.32q-1.59-4.6-3.19-9.2h0s0,.09.05.13c-4.19-12.4-8.19-24.85-11.74-37.45a18.94,18.94,0,1,0-36.52,10.07c3.4,13.55,7,27,10.67,40.54q2.82,10.5,5.65,21c.66,2.47,1.34,4.93,2,7.39.94,3.39,1.73,6.85,2.8,10.2q2.31,7.26,4.6,14.53c1.4,4.45,3.11,8.73,4.86,13,1.61,3.93,3.11,7.91,4.92,11.75q3,6.33,6,12.66c4,8.32,8,16.64,11.42,25.18,3.62,9,7,18,10.39,27.1q4.68,12.66,9.92,25.09c3.38,8,7.09,15.88,10.66,23.8,7.28,16.12,14.25,32.4,20.58,48.93a216.15,216.15,0,0,1,6.64,23.29c.25,1.24.5,2.48.76,3.72-.21-1-.41-2-.61-3,.35,1.71.69,3.41,1,5.12a266.71,266.71,0,0,1,4.17,32.12c.14,3.71.29,7.42.3,11.13,0,3.53-.13,7-.26,10.56-.4,4.39-.84,8.75-1.62,13.08q-.85,3.75-2,7.41c-1.35,3.63-2.9,7.17-4.47,10.7-1.45,2.76-3,5.47-4.58,8.15-1.27,1.82-2.55,3.61-3.93,5.36-1.17,1.49-2.4,2.93-3.64,4.36-2.45,2.55-4.93,5-7.5,7.46-4.75,3.94-9.63,7.67-14.69,11.21-2.2,1.43-4.42,2.83-6.67,4.18-2.41,1.45-4.87,2.78-7.33,4.14-4.76,2.32-9.55,4.54-14.45,6.58-4.66,1.94-9.39,3.66-14.14,5.37-6.82,2.27-13.65,4.55-20.61,6.38-7.53,2-15.08,3.89-22.71,5.45l-4.27.88c-7.69,1.45-15.41,2.76-23.19,3.71s-15.36,1.67-23.07,2.28c-5.74.32-11.49.63-17.24.88l.21-.64q1.19-3.17,2.34-6.35c1.55-4.28,3.24-8.54,4-13a13.42,13.42,0,0,0-.88-7.16c.8-3.37,1.61-6.74,2.38-10.12s1.54-6.87,2.29-10.3c.68-3.1,1.22-6.22,1.74-9.35a25.73,25.73,0,0,0,.36-4.11,20.59,20.59,0,0,0-.61-4.14c-.65-3.15-3.07-5.65-5.42-7.65-4.66-3.94-12.75-3.46-16.86,1.09a37.9,37.9,0,0,0-5.31,7c-.49.88-1,1.76-1.46,2.64.38-2.28.73-4.56,1-6.84,1.34-10.3,2.79-20.61,3.66-31l.42-5c.55-2.66,1.09-5.33,1.65-8q3.7-17.55,7-35.16c1.08-5.07,1.87-10.2,2.8-15.29.69-3.76,1.43-7.52,2-11.3,1-6,1.91-12.08,2.87-18.12.49-3.08,1-6.14,1.36-9.24.84-7.27,1.65-14.54,2.49-21.8.55-4.69.79-9.39,1.05-14.11.38-6.72.79-13.46,1.14-20.18.08-1.52,0-3,0-4.56,0-3.87,0-7.73.06-11.61.14-22.32-.82-44.63-1.62-66.94-.41-11.24-.7-22.49-1.57-33.71-.12-1.55-.2-3.1-.4-4.64-.28-2.2-.64-4.36-1.11-6.53a25.91,25.91,0,0,0-1.77-6,24.59,24.59,0,0,0-5-7.29,17.85,17.85,0,0,0-9.82-4.87,18.84,18.84,0,0,0-17.17,7.46,27.29,27.29,0,0,0-3.66,7.12,42,42,0,0,0-1.9,6.47c-.84,4-1.54,8-2,12-.33,3-.48,6-.7,9-.81,10.91-1.25,21.83-1.66,32.76q-.72,18.38-1.45,36.72c-.86,21.57-1.73,43.15-2.44,64.74-.35,10.7-.65,21.39-1.06,32.09-.18,4.86-.35,9.73-.6,14.59-.31,6.19-.77,12.38-1,18.57h0v0h0c0,.08,0,.16,0,.24v-.09h0s0-.08,0-.12,0,.17,0,.25c-.08,1.14-.15,2.28-.23,3.41,0-.82.11-1.64.16-2.46l-.36,5.46c.05-.82.1-1.64.16-2.46-.13,1.94-.27,3.9-.39,5.85.05-.82.1-1.65.16-2.47-.14,2-.28,4.07-.41,6.1,0,.22,0,.45,0,.67v.06c0,.07,0,.14,0,.2,0,.26,0,.52,0,.78,0-.23,0-.46,0-.69,0,.51-.07,1-.11,1.54l0-.41-.13,1.92v0c0,.33,0,.66-.07,1a.45.45,0,0,1,0,.11s0-.06,0-.08l0,.39c-.25,2.13-.34,4.28-.52,6.41l-.69,8.55c-1.72,8-3.34,16-5.18,23.93-1.47,6.37-2.89,12.76-4.43,19.11-1.34,5.56-2.88,11.08-4.32,16.61-1.11,4.26-2.24,8.48-3.54,12.7-1.69,5.52-3.29,11.1-5.09,16.59-2.65,7.27-5.22,14.57-8.25,21.68-2.47,5.81-4.94,11.62-7.58,17.34a202.09,202.09,0,0,0-25.08,1.78c-8.79,1.21-17.55,2.56-26.31,3.95-9.13,1.46-18.25,2.91-27.41,4.19-8.27,1.16-16.57,2-24.88,2.67-3.89.22-7.77.46-11.65.59-4.86.16-9.72.24-14.58.29-8.57.08-17.16-.19-25.73-.46-17.61-.57-35.22-1.72-52.85-1.82-9.51,0-19,0-28.5.4-8.73.35-17.45.82-26.17,1.27l-.86,0c-2.54-10.52-5.31-21-8.21-31.38-2.76-9.93-5.13-20-7.57-30-.55-3-1.14-5.95-1.75-8.93a15.44,15.44,0,0,0,2.66-11.37c-.09-.49-.17-1-.27-1.45-.21-1.65-.55-3.28-.9-4.91-1.19-6.74-1.47-13.58-2.17-20.37-.26-4-.55-8-.83-12q-.28-4.83-.58-9.66c.82-7.37,1.85-14.71,2.91-22,1.59-11,3.27-22,4.92-33,.71-4.78,1.46-9.55,2.1-14.33.42-3,.87-6.08,1.25-9.13a88.65,88.65,0,0,0,.86-12.39,36.08,36.08,0,0,0-.9-7.4,22,22,0,0,0-3-6.27,16,16,0,0,0-9.41-7.23c-3.87-1.07-8.73-.71-12.13,1.58a34.19,34.19,0,0,0-5.3,4,22.52,22.52,0,0,0-4.6,7c-.14.32-.27.62-.4.94a19.31,19.31,0,0,0-9-4.8c-1-6.73-1.85-13.46-2.38-20.24,0-.56-.07-1.12-.09-1.69a13.45,13.45,0,0,0-3.79-9.14,12.93,12.93,0,0,0-18.27,0,13.24,13.24,0,0,0-3.78,9.14c-.25,8.37-.65,16.77-.69,25.15-.05,8.85.39,17.65,1,26.48q.33,4.83.67,9.65l0,.46.18,2.71c-.86-3-1.71-6-2.56-9q-4.2-14.68-8.42-29.35c-4-13.77-8.19-27.55-11.15-41.57-.11-.58-.22-1.16-.32-1.74A3.92,3.92,0,0,0,444,803a4.36,4.36,0,0,0,3-5.29c-.57-2.14-1.27-4.25-1.81-6.4-.24-1-.48-1.93-.7-2.9-.18-.76-.3-1.56-.55-2.31a15.45,15.45,0,0,0-1.11-3.19,6.89,6.89,0,0,0-4.84-3.48,6.54,6.54,0,0,0-5.83,2.13,15,15,0,0,0-3.28,6.35,42.25,42.25,0,0,0-1.45,8.43c-.69,9.74.57,19.59,2.3,29.17.9,5,1.68,10,2.73,14.91l.39,1.94.27,1.3q1.26,6.33,2.57,12.63l0-.11c.11.51.21,1,.32,1.53,0-.11,0-.22-.08-.33l0,.1c0,.17.06.35.1.52V858h0v0h0v.09l0,.13.06.29h0c1.62,8.35,3.47,16.65,5.24,25,4.87,22.94,9.84,45.84,15.59,68.58,2.48,9.83,5.19,19.61,8,29.36,3,10.54,6,21.07,9.16,31.56,3.3,11,6.63,21.88,10.07,32.78,3.17,10,6.31,20.06,9.71,30l-2.23-.11a371.68,371.68,0,0,1-43-5.33c-2.22-.58-4.43-1.18-6.64-1.78-2.32-.82-4.62-1.67-6.9-2.62-3-1.24-5.91-2.6-8.84-4l.41.21-4.36-2.18c-5.56-2.86-10.9-6.11-16.15-9.5-3.82-2.68-7.65-5.38-11.27-8.31q-5.9-4.77-11.67-9.66c-2.67-2.42-5.32-4.86-7.9-7.38s-4.83-4.9-7.17-7.42c-3.2-3.8-6.38-7.59-9.36-11.57q-5.3-7.08-10.51-14.22c-6.56-9-13.16-17.88-19.49-27-3.14-4.79-6.21-9.61-9.12-14.54-2.77-4.68-5.28-9.47-7.75-14.3-1.64-3.64-3.3-7.25-4.82-10.93-1.38-3.36-2.64-6.75-3.88-10.16-.83-2.62-1.79-5.24-2.46-7.9s-1.45-5.59-2.16-8.4c-.79-4.08-1.55-8.14-2.14-12.26s-.95-8.32-1.31-12.49c-.15-4.31-.3-8.6-.23-12.9.07-4.73.33-9.42.63-14.13.37-4.87,1.11-9.74,1.83-14.56s1.61-9.38,2.46-14.06c1-4.36,1.91-8.73,3-13.07,1.2-4.88,2.49-9.72,3.78-14.56,2.31-8.68,5.07-17.23,7.86-25.76l2.49-6.72c.75-2,1.71-3.93,2.57-5.89,1.35-2.52,2.67-5,4.22-7.42.75-1,1.53-2.06,2.36-3,.35-.38.72-.74,1.1-1.09a14.57,14.57,0,0,1,1.25-.94l.45-.24,0,0,.77.08a6.57,6.57,0,1,0,.9-13.08,14.55,14.55,0,0,0-5.6.74,19.91,19.91,0,0,0-5.86,3.41,52,52,0,0,0-9,10.34A110,110,0,0,0,303.55,752c-.2.4-.39.79-.59,1.18.05-.11.11-.22.17-.33-.4.79-.79,1.58-1.19,2.36L302,755l-1.37,2.72a1.74,1.74,0,0,1,.1-.19c-3.89,7.72-7.2,15.74-10.54,23.71-3,7.11-6,14.26-8.52,21.54q-.81,2.36-1.64,4.73l-.48,1.38,0,0-.06.17-.05.15v0l-.2.56c0,.13-.09.25-.13.37,0,0,0-.07,0-.11l-.49,1.41-.36,1,0,.1a.14.14,0,0,1,0-.06c-.07.21-.15.42-.22.62l.12-.33c-1.83,5.36-3.3,10.86-4.74,16.33s-2.69,10.75-3.64,16.19c-.5,2.88-1.13,5.77-1.49,8.67-.39,3.06-.79,6.12-1.17,9.18s-.48,6-.72,9-.27,6-.36,9a162.31,162.31,0,0,0,8.64,55.36C276.31,941.08,277.83,945.8,279.75,950.3Z"/><path class="cls-1" d="M482.53,941.16c-3.89-11.82-7.55-23.71-11.1-35.64a17.2,17.2,0,0,0,6.47,3.73q1.91,11.88,3.89,23.74,1.11,6.63,2.39,13.21C483.62,944.52,483.09,942.84,482.53,941.16Z"/><path class="cls-1" d="M328.88,739.56l-.08.05.07-.05Z"/><path class="cls-1" d="M389.57,545.93a3.54,3.54,0,0,0,4-.07,2.89,2.89,0,0,0,.51-4l0-.06c.21-2.42.47-4.86.91-7.25.54-2.93,1.07-5.86,1.55-8.79q1.43-8.62,3.12-17.19c.58-2.31,1-4.68,1.7-7s1.39-4.67,2.08-7c.43-1.16.85-2.33,1.27-3.49s.76-2.33,1.26-3.44c1.18-2.68,2.31-5.4,3.6-8a108.35,108.35,0,0,1,6.37-10.87,98.4,98.4,0,0,1,6.6-8.49,116.23,116.23,0,0,1,8.86-8.76c3.41-3,7-5.63,10.57-8.44,1.4-1.11,3-2.05,4.43-3.06,1.29-.88,2.59-1.76,3.88-2.66,2.84-1.74,5.61-3.62,8.5-5.28s5.61-3.15,8.42-4.73l7.56-3.79c2.33-1.13,4.76-2.09,7.12-3.13,1.84-.81,3.7-1.52,5.57-2.25,4.34-1.71,8.72-3.29,13.1-4.9,6.6-2.23,13.19-4.44,19.9-6.32,3.82-1.07,7.65-2,11.5-3,3-.74,6.06-1.32,9.08-2,4.26-.78,8.5-1.53,12.79-2.15,4.07-.58,8.15-1,12.26-1.36,4.35-.21,8.68-.37,13-.38s8.64.19,13,.32h-.16c3.12.22,6.25.4,9.37.58s6.51.53,9.77.74c11.5.86,23,1.77,34.53,2.43,7.31.43,14.63.82,21.95,1.21,6.29.34,12.57.79,18.86,1.15,6.85.38,13.7.73,20.56.86,7.27.13,14.53.15,21.8.13,13.25-.05,26.48-.45,39.72-.56q20.26-.17,40.51.31c13.2.31,26.39.8,39.59,1.31s26.41.75,39.61,1.53c6.48.47,12.93,1.08,19.33,2.19,7.83,1.72,15.48,4,23.13,6.43,7.82,2.45,15.74,4.61,23.55,7.1,1.09.38,2.19.76,3.23,1.23l3.7,1.66c2.5,1.31,5,2.66,7.33,4.2,1.3.92,2.55,1.89,3.77,2.91s2.27,2.2,3.35,3.36c1.29,1.55,2.51,3.15,3.68,4.79q2.41,3.72,4.46,7.66c1.57,3.27,3,6.58,4.22,10,1.23,3.76,2.21,7.57,3.06,11.43q3.87,19.24,7.22,38.59c2.21,12.72,4.09,25.52,5.28,38.38.49,5.21,5.4,9,10.42,9a9.72,9.72,0,0,0,1.31-.09,10.43,10.43,0,0,0,6.83-4,10.79,10.79,0,0,0,2.07-7.77c-.62-7.05-1.37-14.09-2-21.14s-1.21-14.3-1.72-21.46l0-.42,0-.49c0-.33-.05-.65-.07-1,0,0,0,.08,0,.12l-.18-2.71c0,.39,0,.79.08,1.19-.06-.95-.13-1.9-.19-2.84,0,.34,0,.69.07,1l-.15-2.23c-.21-3.37-.42-6.76-.66-10.14-.24-3.15-.38-6.33-.72-9.47s-.57-6.58-1.07-9.82c-1.39-8.87-3.51-17.63-7.31-25.81a97.64,97.64,0,0,0-7.26-13.18,66.67,66.67,0,0,0-9-11.12,64.93,64.93,0,0,0-12.35-9.41c-2.49-1.43-5-2.68-7.64-3.9-6.45-3.05-13.34-4.95-20.23-6.73-6.36-1.65-12.68-3.45-19-5.31-2.78-.82-5.58-1.66-8.4-2.38-3.4-.86-6.82-1.61-10.26-2.31-2.44-.48-4.87-.84-7.34-1.12a110.38,110.38,0,0,0-11.21-.51l-9.33-.09c-6.8,0-13.59.08-20.38.22-13.39.28-26.79.52-40.18.52s-26.66-.2-40,0c-13.67.18-27.32.72-41,1.3s-27.42,1.15-41.15,1.31c-13.2.16-26.4-.48-39.59-.7-14.09-.23-28.16-.63-42.23-1.36-6.66-.34-13.32-.78-20-1.18s-13.3-.64-20-.81c-3.16-.09-6.32.06-9.48.06-1.77,0-3.56.2-5.32.29-1.54.09-3.1.12-4.64.28-3.37.37-6.76.64-10.11,1.17-3.62.56-7.21,1.14-10.8,1.84a287.71,287.71,0,0,0-39.87,10.7l.86-.3-3.92,1.37-4.22,1.47C490,402.22,484,404.66,478,407.08s-11.87,5.47-17.67,8.44l.78-.4c-1.71.86-3.35,1.87-5,2.82-1.44.83-2.94,1.61-4.34,2.5-3.17,2-6.45,3.94-9.52,6.11l-5.51,3.92c-1,.71-2.06,1.38-3,2.15-2.91,2.35-5.91,4.63-8.7,7.11a102.34,102.34,0,0,0-18.1,20.43,98.18,98.18,0,0,0-9.56,18.95c-.63,1.67-1.37,3.33-1.87,5.05l-1.68,5.68c-.88,3-1.47,6.09-2.16,9.16-.43,1.93-.65,3.93-1,5.88-.2,1.25-.36,2.48-.5,3.74-.38,3.5-.66,7-.89,10.52-.4,6-.22,12.09-.48,18.13-.14,1.39-.31,2.78-.42,4.17C388.27,543,388.07,544.88,389.57,545.93Z"/><path class="cls-1" d="M389.27,519.64l0-.5a.11.11,0,0,0,0,0C389.29,519.27,389.28,519.46,389.27,519.64Z"/><path class="cls-1" d="M914.85,385.48l1.12.24.57.11Z"/><path class="cls-1" d="M464.5,872.16c0-.08,0-.16,0-.25,0-.64-.09-1.28-.13-1.92Z"/><path class="cls-1" d="M776.91,1120.58l.09-.28.24-.68Z"/></g><g id="Drawing"><path d="M612.8,1141.19c-4.56-.06-9.12-.28-13.67-.52-9-.46-17.94-1.16-26.9-2q-14-1.23-28-3.08h0l-1.77-.24.54.07-2.21-.29.55.07-2-.25.55.07q-13.57-1.78-27.08-4c-10-1.62-19.94-3.43-29.9-5.17-9.42-1.65-18.86-3.19-28.28-4.84s-18.61-3.56-27.88-5.51-18.41-3.95-27.57-6.12-18.35-4.47-27.35-7.34l-3.17-1c-1.18-.38-2.33-.83-3.5-1.25-.93-.34-1.87-.64-2.79-1l-4.72-1.91c-2.12-.86-4.17-1.84-6.25-2.79s-4.28-2.14-6.41-3.24c-.81-.42-1.6-.92-2.39-1.39l-3-1.73c-1-.58-2-1.25-2.94-1.88s-2-1.29-3-2c-2-1.42-4-2.84-5.92-4.34l-3-2.33c-1.12-.87-2.19-1.81-3.29-2.71-2.3-1.91-4.55-3.88-6.72-5.94-2.4-2.28-4.79-4.57-7.05-7-4.51-4.84-9-9.7-13-15h0l-1-1.31.27.35-1.33-1.75.27.35-1.37-1.8.27.35c-1.38-1.8-2.62-3.71-3.91-5.57s-2.62-4.09-3.93-6.14c-.5-.79-1-1.63-1.44-2.44-.73-1.24-1.46-2.49-2.2-3.73-1.26-2.15-2.39-4.37-3.58-6.56-1.11-2-2.1-4.14-3.15-6.2s-2.07-4.36-3.1-6.53c-.49-1-.91-2.1-1.37-3.15l-1.36-3.16c-.39-.88-.71-1.81-1.05-2.71l-1.47-3.86c-.43-1.11-.74-2.29-1.11-3.43-.3-.91-.62-1.81-.88-2.73-.66-2.29-1.35-4.57-2-6.87s-1.31-4.82-2-7.23c-.7-2.62-1.29-5.27-1.93-7.9-.58-2.38-1.06-4.78-1.59-7.16s-1-4.54-1.42-6.81c-.9-4.37-1.77-8.75-2.48-13.16-.48-2.93-1-5.85-1.38-8.79v.09c-.38-2.71-.81-5.43-1.11-8.15s-.57-5.33-.86-8c-.11-1.07-.16-2.15-.24-3.22l-.33-4.52c-.19-2.52-.21-5.07-.31-7.59-.08-2.1-.05-4.21-.05-6.3v-3.2c0-1.37.1-2.74.15-4.1.07-2.13.16-4.25.31-6.38.17-2.44.33-4.87.56-7.3s.44-4.6.71-6.89c.31-2.54.57-5.09.93-7.62s.75-5.2,1.13-7.8.83-5,1.25-7.49c.35-2.09.78-4.18,1.19-6.26.45-2.3.92-4.58,1.45-6.87,1.07-4.71,2.17-9.42,3.49-14.07.69-2.46,1.41-4.91,2.12-7.37s1.52-4.93,2.29-7.38,1.55-4.6,2.32-6.89,1.73-4.72,2.6-7.08,1.74-4.39,2.61-6.58,1.94-4.6,2.93-6.89c1.77-4.13,3.7-8.18,5.68-12.21s4-8,6.14-12c2.36-4.39,4.76-8.74,7.16-13.1,1.22-2.19,2.51-4.35,3.77-6.52s2.45-4.12,3.68-6.18q3.49-5.8,7.25-11.44c7.39-11.14,15.29-21.94,22.68-33.1,4-6,7.83-12,11.63-18.15,3.49-5.62,6.91-11.29,10.33-17,1.45-2.49,2.89-5,4.34-7.49.53-.93,1-1.9,1.53-2.84.89-1.66,1.79-3.31,2.67-5,.5-.91.93-1.85,1.39-2.78l2.4-4.83c.49-1,.92-2,1.38-3,.7-1.5,1.38-3,2.07-4.49,1-2.4,2-4.8,3.06-7.2,0,.11-.09.21-.13.32q2.11-5.19,4-10.45c1.36-3.67,2.63-7.37,3.9-11.07s2.36-7.39,3.48-11.09c1.07-3.52,2.08-7.06,3.08-10.6.88-3.34,1.8-6.67,2.63-10,1-4,2-8.05,2.92-12.09,1.63-6.94,3.09-13.92,4.53-20.9q2.22-10.91,4.36-21.82l2-10.16q.53-2.57,1.12-5.1c.19-.84.41-1.66.63-2.49a10,10,0,0,1,.53-1.6.88.88,0,0,1,1.42-.17.86.86,0,0,1-.07,1.19l-.05.11c-.08.28-.17.56-.26.83-1.15,4.4-1.89,8.89-2.66,13.36-.89,5-1.76,10.09-2.64,15.13-1.65,9.47-3.34,18.93-5.15,28.36q-1.31,6.75-2.77,13.47c-1,4.58-2,9.15-3.15,13.7-1.18,4.74-2.35,9.49-3.68,14.2l-2,7c-.69,2.4-1.47,4.78-2.2,7.18s-1.53,4.58-2.29,6.87c-.81,2.44-1.74,4.84-2.61,7.26-.78,2.14-1.66,4.25-2.5,6.37s-1.76,4.24-2.66,6.35q-1.22,2.87-2.53,5.67c-1,2.14-2,4.29-3,6.39l-2.28,4.47c-.37.71-.71,1.44-1.1,2.14L357.66,644c-2.08,3.75-4.28,7.43-6.46,11.11-2.49,4.21-5,8.44-7.53,12.59l-4.29,6.91c-1.41,2.28-2.9,4.51-4.35,6.76-2.43,3.77-5,7.47-7.48,11.18-4,5.92-8.12,11.79-12,17.79q-3.23,5-6.35,10c-1.92,3.11-3.78,6.26-5.65,9.39-2.27,4-4.56,8-6.79,12s-4.3,7.85-6.36,11.82c-1,1.94-2,3.87-3,5.82-1.09,2.2-2.22,4.38-3.25,6.6s-2.07,4.45-3.11,6.68-2,4.52-3,6.79c-1.08,2.6-2.18,5.2-3.19,7.84l-2.16,5.63c-.56,1.48-1.07,3-1.59,4.46-1.13,3.16-2.16,6.35-3.21,9.54-.92,2.82-1.72,5.67-2.57,8.51,0,.09-.05.18-.08.27l.05-.17c-.95,3.49-1.91,7-2.74,10.49-.43,1.82-.87,3.64-1.3,5.47s-.77,3.73-1.15,5.59c-.74,3.57-1.36,7.15-2,10.73-.54,3-.95,6-1.4,9s-.8,5.85-1.11,8.79q-.33,3.06-.64,6.14c-.16,1.46-.24,2.94-.34,4.41s-.25,2.7-.3,4c-.09,2.15-.16,4.3-.24,6.45-.12,3.14-.07,6.29-.06,9.43.07,2.13.16,4.26.24,6.39.07,1.9.23,3.8.37,5.7s.27,3.72.47,5.57c.24,2.29.49,4.58.73,6.87.56,4,1.1,8,1.75,12,.29,1.83.57,3.67.91,5.5l1.44,7.75c.43,2.3.95,4.58,1.42,6.86.35,1.7.73,3.39,1.11,5.08,1,4.54,2.07,9.08,3.25,13.59q1,3.5,1.94,7l0-.11c.9,3,1.78,6.06,2.78,9.06.48,1.47.95,2.94,1.51,4.38q1,2.49,1.94,5l2.69,6.11c.48,1.08,1,2.14,1.55,3.2s1,2.13,1.54,3.19c2,4.19,4.32,8.24,6.55,12.32l2.89,4.86c.78,1.31,1.62,2.59,2.45,3.87s1.61,2.54,2.48,3.77l3.22,4.56c1.24,1.59,2.47,3.19,3.7,4.78.43.55.9,1.07,1.35,1.61q1.43,1.66,2.83,3.34c1.35,1.58,2.81,3.07,4.21,4.61s2.6,2.72,3.9,4.08c1.2,1.2,2.39,2.4,3.6,3.59.73.73,1.52,1.41,2.28,2.11.58.54,1.15,1.09,1.75,1.61l4.07,3.51c1.42,1.23,2.93,2.36,4.39,3.54l3.44,2.59c1.13.85,2.28,1.64,3.43,2.45,1,.67,1.95,1.37,2.95,2l4.32,2.73,4.07,2.3c1.1.62,2.22,1.18,3.35,1.75s2.4,1.25,3.63,1.8l5,2.23,5.71,2.27c1.15.45,2.34.82,3.5,1.23.93.33,1.85.69,2.79,1l6.22,2c2.05.65,4.14,1.18,6.21,1.76,8.9,2.35,17.85,4.48,26.84,6.51q14,3.14,28,6,7.41,1.53,14.87,2.9c4.87.89,9.75,1.71,14.64,2.54q13.8,2.33,27.6,4.75c7,1.24,14.05,2.48,21.1,3.54,7.68,1.15,15.37,2.23,23.06,3.29l-.55-.07c7.08.93,14.16,1.8,21.26,2.54,7.64.79,15.3,1.48,23,2.12q11.1.93,22.22,1.49c7.1.36,14.2.49,21.31.47q13.75-.27,27.48-1.32c9.22-.71,18.42-1.56,27.64-2.26s18.36-1.31,27.53-2.09c9.66-.82,19.3-1.86,29-2.66,9.27-.76,18.56-1.15,27.85-1.1s18.6.42,27.89,1c9.58.62,19.16,1.26,28.75,1.85q7.57.48,15.15.84c4.37.2,8.75.31,13.12.41q9,.21,18.1.25c2.89,0,5.78-.08,8.67-.18,3.23-.12,6.45-.3,9.67-.48,6.15-.36,12.28-1,18.4-1.75,4.69-.68,9.39-1.34,14-2.26,2.41-.48,4.81-1,7.21-1.49,2.7-.6,5.38-1.23,8.07-1.88,9.48-2.31,18.92-4.78,28.35-7.28l.92-.25-.36.09,3.57-1-.52.14c8.83-2.42,17.59-5,26.34-7.73,4.42-1.36,8.79-2.86,13.16-4.36,4.2-1.46,8.32-3.15,12.44-4.83l6.39-2.78c2.22-1,4.4-2.05,6.6-3.08s4.39-2.18,6.57-3.28c1-.49,1.9-1,2.84-1.54l3.41-1.84c2.67-1.57,5.34-3.13,7.94-4.8,1.35-.87,2.72-1.7,4-2.63l4.81-3.4,4.69-3.62c.72-.56,1.4-1.19,2.1-1.78l2.77-2.34c.72-.61,1.4-1.27,2.1-1.91l2.76-2.5c.8-.72,1.54-1.5,2.3-2.25l2.48-2.43c1.15-1.14,2.26-2.33,3.39-3.49,1-1,1.9-2,2.83-3,1.13-1.23,2.33-2.43,3.42-3.71l4.11-4.81-.35.45,3.94-5-.35.45.35-.45c1.2-1.73,2.43-3.46,3.64-5.19.54-.77,1-1.6,1.5-2.39.6-1,1.21-1.94,1.82-2.91,1.48-2.6,3-5.18,4.4-7.81q2.53-4.73,5-9.48c1.44-2.8,2.82-5.63,4.18-8.47,1.47-3.07,2.86-6.17,4.25-9.27l2.1-5.14c.55-1.33,1-2.69,1.55-4s1.07-2.83,1.57-4.26l2.06-6.06c2.12-6.2,3.92-12.52,5.67-18.84.49-1.92,1-3.85,1.47-5.77s.92-4.07,1.38-6.1c.85-3.81,1.43-7.67,2-11.52.21-1.83.41-3.66.62-5.49.11-1,.14-2,.2-3l.22-3c.13-1.94.15-3.89.23-5.83s0-3.63.06-5.44c0-2-.11-4.07-.15-6.09,0-1.13-.14-2.27-.22-3.4l-.21-3.4c-.14-2.21-.41-4.43-.62-6.63s-.49-4.25-.75-6.37c-.35-2.39-.67-4.8-1.09-7.18-.49-2.71-1-5.41-1.51-8.1s-1.17-5.59-1.8-8.38c-.55-2.48-1.18-5-1.81-7.41l-1.37-4.64c-.44-1.52-1-3-1.48-4.52s-1-2.82-1.51-4.21c-.6-1.55-1.16-3.11-1.79-4.64q-1.11-2.64-2.23-5.27c-.74-1.77-1.56-3.51-2.35-5.26q-2-4.36-4.06-8.67c-3.26-6.67-6.52-13.34-10-19.93-3.52-6.74-7-13.47-10.71-20.12s-7.46-13.4-11.26-20.06c-1.71-2.91-3.39-5.84-5.13-8.74q-3.27-5.45-6.56-10.87c-3.84-6.32-7.73-12.62-11.42-19l.25.44q-3.9-6.65-7.74-13.31c-.24-.43-.49-.86-.74-1.29-2.21-3.81-4.37-7.64-6.51-11.48-2.24-4-4.49-8-6.57-12.15l-2.09-4.14c-.37-.72-.75-1.43-1.09-2.16-1.15-2.46-2.27-4.93-3.41-7.39-.42-.89-.77-1.81-1.16-2.71l-1.78-4.2c-.9-2.12-1.73-4.28-2.59-6.43-1.64-4.11-3.18-8.26-4.72-12.41q-2.4-6.49-4.75-13c-3.38-9.38-6.71-18.79-10.08-28.19-3.12-8.74-6.46-17.4-9.84-26.05-3.44-8.82-6.9-17.62-10-26.57-1.59-4.59-3-9.23-4.4-13.89s-2.51-9.33-3.64-14-2-9.27-2.9-13.92c-.87-4.43-1.67-8.87-2.49-13.31-1.77-9.61-3.47-19.23-5.2-28.84a2.86,2.86,0,0,1,5.61-1.14c1.84,10,3.95,19.87,6.07,29.78q1.76,8.25,3.52,16.52c1.07,5.12,2.26,10.2,3.51,15.27l-.12-.42q.86,3.12,1.7,6.26c1.32,4.37,2.57,8.77,4.07,13.08,1.58,4.54,3.16,9.07,4.88,13.56,3.49,9.1,7.15,18.14,10.72,27.21,3.46,8.78,6.64,17.66,9.86,26.53,3.12,8.56,6.25,17.13,9.48,25.65q2.13,5.6,4.28,11.18c1.18,3,2.42,6.08,3.67,9.12l2.39,5.52q1.1,2.49,2.25,4.93c.84,1.8,1.65,3.61,2.56,5.36q1.59,3.09,3.17,6.18c1.1,2.17,2.32,4.28,3.48,6.42.89,1.63,1.81,3.25,2.72,4.87,1.95,3.47,3.93,6.92,5.91,10.37h0l0,0,.22.37a.75.75,0,0,1-.07-.12c1.45,2.5,2.9,5,4.34,7.49-.09-.15-.17-.3-.26-.44,4.74,8.08,9.52,16.14,14.43,24.11,5.29,8.6,10.53,17.23,15.62,26,4.69,8,9.33,16.15,13.72,24.37,4.58,8.58,9.07,17.21,13.38,25.93q3.19,6.51,6.36,13c1,2.13,2,4.29,3,6.43.48,1,.92,2.09,1.37,3.13.54,1.22,1.1,2.43,1.59,3.66l2.48,6.17c.45,1.11.8,2.28,1.21,3.41s.75,2.07,1.07,3.12c.66,2.16,1.37,4.31,1.94,6.49.62,2.4,1.26,4.8,1.83,7.22,1.09,4.7,2.12,9.41,3,14.15.44,2.34.83,4.67,1.21,7,.42,2.64.77,5.28,1.11,7.93.3,2.31.53,4.63.76,7s.42,5,.6,7.48c.33,4.61.3,9.24.27,13.86,0,1.26-.09,2.52-.13,3.78,0,.89-.06,1.78-.11,2.67-.11,1.57-.21,3.15-.32,4.72-.07,1.18-.23,2.36-.36,3.54s-.22,2.39-.41,3.57-.39,2.5-.58,3.76c-.39,2.48-.89,4.94-1.37,7.41-.43,2.16-1,4.31-1.46,6.46-.21.93-.47,1.85-.7,2.77-.35,1.37-.67,2.74-1,4.09-1.27,4.44-2.49,8.9-3.9,13.3-.69,2.16-1.37,4.34-2.1,6.48-.8,2.32-1.55,4.64-2.41,6.93-.81,2.13-1.56,4.3-2.43,6.4-1,2.35-1.9,4.73-3,7-.94,2.06-1.85,4.15-2.85,6.19-1.16,2.36-2.32,4.73-3.53,7.08-2.22,4.31-4.49,8.59-6.85,12.83-.8,1.44-1.6,2.88-2.44,4.29l-.09.17-.3.51c-.28.46-.55.93-.83,1.4l.3-.52-2,3.41c-.62,1.07-1.34,2.09-2,3.13-.53.82-1,1.69-1.61,2.49l-2.94,4.1c-1.35,1.88-2.83,3.66-4.27,5.48s-3.24,3.81-4.87,5.7c-1.44,1.67-3,3.24-4.51,4.86s-3.37,3.46-5.05,5.19-3.32,3.24-5,4.86-3.64,3.34-5.47,5c-1.61,1.46-3.33,2.81-5,4.21-.92.77-1.91,1.47-2.86,2.21s-1.81,1.43-2.75,2.1c-3.9,2.76-7.79,5.52-11.92,7.93-2,1.18-4,2.42-6,3.52s-4.25,2.37-6.44,3.45c-4.27,2.11-8.53,4.25-12.9,6.15-2.31,1-4.61,2.06-7,3-2.18.87-4.34,1.81-6.55,2.62-4.42,1.62-8.85,3.23-13.34,4.65-9.39,3-18.84,5.74-28.32,8.43-9,2.56-18.12,4.9-27.21,7.22-4.49,1.14-9,2.24-13.48,3.33s-8.84,1.9-13.28,2.75c-2.18.41-4.39.7-6.58,1.05-1.1.18-2.2.29-3.3.43-1.26.16-2.52.36-3.78.49-2.18.2-4.37.47-6.56.63-2.47.19-4.94.38-7.41.53-5,.28-9.89.47-14.85.57-4.71.1-9.41,0-14.12,0-4.37-.08-8.74-.24-13.11-.42-4.71-.19-9.42-.38-14.13-.66-9.52-.55-19-1.28-28.54-1.91-7.28-.49-14.57-1.06-21.86-1.37q-5.49-.24-11-.41c-3.68-.12-7.36-.1-11-.1h.45c-4.67.09-9.33.19-14,.43s-9.56.63-14.33,1c-9.39.82-18.74,2-28.13,2.8-9.16.79-18.34,1.43-27.51,2.18q-7.05.57-14.1,1.22c-4.39.4-8.79.83-13.19,1.17-9,.7-18.09,1.38-27.15,1.49-2.06,0-4.11,0-6.16,0Q616.51,1141.25,612.8,1141.19Z"/><path d="M366.33,599.67a5.11,5.11,0,0,1-.4-.93,11.21,11.21,0,0,1-.48-2,82.67,82.67,0,0,1-.85-9.17q-.24-4.83-.34-9.68c-.07-3.1-.15-6.19-.28-9.29s-.3-6.19-.44-9.28-.23-6.05-.31-9.07c-.15-6.27-.19-12.54-.23-18.81-.07-9.05-.65-18.1-.66-27.15v.1c0-.71,0-1.43,0-2.15v-.68a130.87,130.87,0,0,1,1.9-22.27q.91-5.49,2.12-10.92c.86-3.85,1.73-7.71,2.77-11.52l0,.09q1.89-7.05,4.1-14c.71-2.21,1.46-4.4,2.23-6.59s1.53-4.24,2.41-6.31c.49-1.16,1-2.32,1.5-3.46s1-2.09,1.53-3.12c1.1-2.1,2.32-4.12,3.58-6.12a57.16,57.16,0,0,1,3.87-5.18c.66-.83,1.4-1.61,2.11-2.41.44-.52.94-1,1.41-1.5.3-.32.6-.64.91-.94l0,0c2.28-2.24,4.59-4.48,7.09-6.49s5-3.93,7.67-5.71a186.84,186.84,0,0,1,16-9.86c2.84-1.52,5.72-2.93,8.66-4.26,2.73-1.23,5.51-2.36,8.31-3.43,3-1.15,6-2.14,9.1-3.09s5.92-1.68,8.93-2.36c8.9-2,18-3.12,27-4.44l13.07-1.9c4.58-.66,9.16-1.38,13.74-2h0l1.26-.17h0l.82-.11h-.08c6.13-.84,12.29-1.5,18.44-2.13,6.4-.66,12.79-1.3,19.21-1.77s12.71-.78,19.08-1,12.7-.49,19-.56c8.57-.08,17.13.27,25.68.78q13.17.8,26.37.82c6.2,0,12.41-.13,18.62-.15h1.34c4.27,0,8.53.11,12.8.21l12.63.29c8.74.17,17.49.31,26.24.31,9.17-.05,18.35-.15,27.53-.17h11.49c6.11,0,12.23.06,18.34.31,6.86.29,13.72.65,20.58,1,6.13.32,12.27.61,18.41.92,6.58.32,13.15.66,19.73,1s12.88.44,19.32.51c6.15.07,12.29.13,18.43.26,6.58.14,13.17.22,19.75.46,6.18.23,12.35.68,18.5,1.31,5.93.62,11.85,1.31,17.77,2s12.13,1.32,18.22,1.83q8.73.74,17.48,1.33c4.82.33,9.66.51,14.45,1.08a1.2,1.2,0,0,1-.15,2.39c-2.25-.13-4.49-.35-6.74-.53l-8.43-.61c-6.25-.46-12.5-1-18.74-1.47-12.49-1-24.9-2.74-37.37-3.87-6.21-.57-12.45-.9-18.67-1.08-6.58-.18-13.15-.3-19.72-.41l-18.44-.27c-6.33-.08-12.65-.28-19-.56-12.17-.52-24.33-1.12-36.5-1.66-6.36-.29-12.72-.59-19.08-.8-5.93-.2-11.85-.22-17.78-.22h.09c-1.45,0-2.9,0-4.36,0h.2c-13.06.06-26.11.32-39.16.34-6.2,0-12.41-.07-18.61-.14q-10-.11-20.12-.28c-2.83-.05-5.67-.07-8.5-.07-5.64,0-11.28.17-16.92.21-5.92,0-11.84,0-17.76-.17-5.75-.21-11.49-.54-17.23-.8-2.93-.14-5.86-.31-8.79-.38-1.49,0-3-.07-4.48-.12s-3.07,0-4.59,0c-3,0-6,.08-9,.18l-9.93.36c-6.47.22-12.93.57-19.39,1-6.15.4-12.29,1-18.42,1.64-6.46.66-12.93,1.31-19.38,2.11l-5,.65c-5.32.73-10.63,1.51-16,2.23-7.06,1-14.14,2-21.2,3-3.48.51-6.94,1.09-10.41,1.73q-2.51.46-5,1c-.81.18-1.63.36-2.44.57l-2.63.69c-3,.87-6,1.79-8.93,2.78-2.71.9-5.37,2-8,3.09s-5.23,2.3-7.82,3.53-5.23,2.74-7.78,4.21l.2-.11q-2.4,1.44-4.79,2.92c-1.4.88-2.79,1.8-4.16,2.72s-2.76,1.85-4.11,2.81c-1.55,1.11-3.07,2.24-4.6,3.39l.19-.14c-2.45,2-4.89,4-7.14,6.17l.17-.16-2.08,2c-.71.7-1.37,1.46-2.06,2.2-1.39,1.48-2.63,3.1-3.88,4.7l.15-.19c-.55.79-1.09,1.58-1.64,2.36s-.93,1.51-1.39,2.26c-.71,1.28-1.43,2.55-2.08,3.86s-1.23,2.59-1.81,3.9c-.68,1.69-1.33,3.39-2,5.11s-1.28,3.71-1.88,5.59c-1.15,3.53-2.15,7.12-3.15,10.71l.08-.3c-1.2,4.6-2.33,9.23-3.28,13.89-.47,2.27-.94,4.55-1.33,6.84s-.78,4.84-1.15,7.27c-.18,1.57-.38,3.12-.54,4.69-.19,1.81-.34,3.61-.48,5.42-.27,3.32-.29,6.65-.31,10,.08,5.73.38,11.44.65,17.16.3,6.19.57,12.39.65,18.6s.12,12.2.22,18.3.26,12.41.26,18.62v-.42c0,2.79-.12,5.57-.24,8.35s-.27,5.75-.4,8.62-.31,5.66-.48,8.48c-.06,1-.08,2-.19,3a1.45,1.45,0,0,1-1.12,1.32,1,1,0,0,1-.29,0A1.52,1.52,0,0,1,366.33,599.67Z"/><path d="M996.71,502.72a2,2,0,0,1-.66-1.33c-.45-3.31-.67-6.65-.88-10-.22-3.68-.36-7.35-.51-11-.28-6.84-.7-13.67-1.51-20.46-.35-2.35-.74-4.69-1.22-7s-1-4.71-1.64-7h0a80.58,80.58,0,0,0-2.58-8.07c-.63-1.35-1.38-2.63-2.12-3.92,0,.08.1.16.14.24-.68-1.18-1.37-2.34-2.16-3.45-.65-.94-1.34-1.85-2-2.76h0c-.46-.6-.91-1.19-1.4-1.77s-1-1.15-1.56-1.71a27.32,27.32,0,0,0-2.27-2c-1.75-1.35-3.55-2.65-5.37-3.91s-3.82-2.51-5.78-3.7c-.87-.49-1.74-1-2.63-1.41s-1.82-.82-2.74-1.21l.25.11c-.52-.2-1-.42-1.57-.6s-1-.35-1.57-.5c-1.08-.26-2.18-.46-3.28-.65-1.36-.24-2.74-.45-4.11-.64-1.95-.2-3.91-.34-5.87-.47s-4.08-.22-6.13-.25c-2.6,0-5.2.14-7.8.23l-8.59.3L912,410c-2.81.09-5.62.18-8.43.18h.26c-3,0-6.06,0-9.08,0s-6.25-.13-9.37-.21c-6.31-.17-12.62-.47-18.93-.67-6.56-.21-13.11-.32-19.66-.59q-9.49-.37-19-1c-6-.36-12-.74-18-.93-2.81-.08-5.61-.16-8.41-.17h-9.16l-4.65,0h.24c-12.79.06-25.57.64-38.36,1-6.41.18-12.84.24-19.25.35s-12.62.24-18.92.32-12.44.11-18.65,0c-6.41-.12-12.81-.35-19.2-.63s-13-.59-19.57-.94c-6.32-.33-12.64-.66-19-1.09q-5.24-.34-10.46-.74c-2.73-.2-5.46-.42-8.19-.59-3.2-.2-6.4-.4-9.6-.56-3.36-.16-6.73-.32-10.09-.46-12.22-.52-24.44-1.06-36.67-1.07l-4.68.08c-1.56,0-3.11.12-4.66.18-2.81.11-5.61.32-8.41.55s-5.6.46-8.39.79c-3.18.39-6.36.79-9.54,1.22l.23,0-5.37.75H519l-.09,0h-.07l-.53.07h0l-4.19.58.16,0c-.3.05-.6.09-.91.12h0l-.19,0h0l-3.51.48h.07l-1.23.17h.05c-2.51.35-5,.7-7.54,1.08-1.06.17-2.12.32-3.17.51l-4.47.8c-1.3.23-2.61.54-3.91.82-1.11.23-2.21.49-3.31.75s-2.3.53-3.44.83L478.4,413c-1.82.52-3.65,1-5.45,1.54-1.32.41-2.65.8-4,1.2-.81.25-1.62.53-2.42.8s-1.83.59-2.74.91c-1.22.43-2.45.87-3.67,1.32-2,.7-3.89,1.48-5.83,2.23l-3.4,1.45q-1.26.56-2.49,1.14l-1.94.93c-.36.17-.72.33-1.07.52l-3.64,2-2.31,1.4c-.74.45-1.47.92-2.2,1.4s-1.65,1.08-2.44,1.65l-2.6,1.91-2.69,2.22c-.38.3-.72.66-1.07,1l-1.37,1.28-2.28,2.38c-.33.34-.63.72-.94,1.08l-1.29,1.5-1.79,2.31c-.22.28-.42.58-.63.88l-1.12,1.59c-.58.83-1.12,1.7-1.67,2.56s-1.08,1.76-1.62,2.64-1.1,1.93-1.6,2.92c-.59,1.15-1.17,2.3-1.73,3.47-1,2.1-1.93,4.23-2.86,6.36-1.37,3.29-2.72,6.58-4.13,9.84-1.35,3.1-2.76,6.17-4.1,9.27l0-.11c-.29.72-.58,1.44-.82,2.18-.05.2-.09.39-.12.59a5.78,5.78,0,0,0-.05.71.56.56,0,0,1,.08.51.56.56,0,0,1-1.07-.08,1,1,0,0,1-.06-.25,7,7,0,0,1-.07-.91,16.28,16.28,0,0,1,.69-4.27c.43-1.77.86-3.55,1.4-5.28.64-2.09,1.39-4.14,2.08-6.2.6-1.79,1.19-3.57,1.83-5.35q1.16-3.24,2.45-6.44c.76-1.87,1.61-3.7,2.48-5.52.5-1,1-2,1.57-3s1.26-2.17,1.9-3.25c-.05.09-.1.16-.14.25.33-.56.68-1.1,1-1.65s.72-1.13,1.1-1.67l1.48-2.1c.13-.19.29-.37.43-.55l1.25-1.59c.47-.6,1-1.18,1.47-1.75s.91-1.09,1.4-1.6c.67-.68,1.34-1.37,2-2.06.51-.52,1-1,1.56-1.48s1-1,1.59-1.45l2.33-1.89c1.17-.95,2.43-1.8,3.65-2.68.23-.17.48-.32.71-.47l1.42-.94c.49-.31,1-.64,1.47-.94,1.37-.81,2.72-1.66,4.13-2.41s2.72-1.47,4.12-2.13,2.94-1.41,4.45-2,2.77-1.19,4.18-1.73c1.59-.61,3.17-1.25,4.76-1.81l2.95-1c.56-.19,1.12-.41,1.69-.59l2.58-.83c.73-.24,1.46-.49,2.19-.71q2.44-.7,4.88-1.44l1.89-.51,3.25-.88-.24.07c1.54-.43,3.1-.78,4.65-1.17s3-.7,4.51-1,3-.63,4.45-.93,3.18-.6,4.77-.88c5.86-1,11.77-1.71,17.66-2.51h0l4.27-.58-.23,0,.86-.12h0l.31,0h0l.17,0h0l.79-.11h0l3.74-.51h0l.2,0h0l.57-.08-.23,0c3.13-.45,6.27-.83,9.41-1.21s6.26-.65,9.39-.9c6.19-.51,12.41-.82,18.62-.8,3.23,0,6.46,0,9.69.11l10.65.29c6.58.19,13.17.47,19.75.72q9.25.35,18.51,1c6.39.43,12.78.91,19.17,1.29,13.15.78,26.32,1.47,39.49,2,4.28.16,8.56.33,12.85.41,2.39.05,4.77.09,7.16.1s4.81,0,7.21,0h-.26c6.48-.08,12.95-.16,19.44-.29,6.27-.12,12.55-.17,18.82-.28s12.66-.31,19-.49,12.88-.33,19.33-.41,12.85-.05,19.28,0q9.15.07,18.3.63c6.43.37,12.84.84,19.27,1.14,3.28.15,6.55.32,9.83.43s6.27.2,9.41.28c3.53.09,7.05.17,10.57.29l10.76.38c6.65.21,13.31.31,20,.35,4.24-.05,8.48-.13,12.73-.3l13.77-.55,6.23-.27c2.06-.09,4.13-.17,6.19-.15s4.07.11,6.11.26,3.88.24,5.81.48c1.43.19,2.85.4,4.27.64a25.81,25.81,0,0,1,7.9,2.27,44.24,44.24,0,0,1,4.55,2.32c1.21.69,2.39,1.45,3.56,2.21s2.48,1.61,3.69,2.46,2.12,1.51,3.17,2.29a40.12,40.12,0,0,1,3.43,2.82c.81.77,1.57,1.58,2.32,2.41s1.34,1.64,2,2.47c1,1.3,2.09,2.59,3,4,.66,1,1.27,2,1.86,3s1.19,2.09,1.69,3.18a33,33,0,0,1,1.38,3.87c.45,1.39.85,2.81,1.24,4.22a1.82,1.82,0,0,0,.07.25.56.56,0,0,1,0-.12c.61,2.21,1.12,4.45,1.6,6.69s.93,4.77,1.28,7.17c.67,4.55,1,9.13,1.39,13.71.38,4.95.54,9.9.78,14.85s.5,9.68.69,14.53a2,2,0,0,1-1.83,2.11H998A2,2,0,0,1,996.71,502.72Z"/><path d="M1041.38,604.37a2.36,2.36,0,0,1-2.18-2.47c.27-5.2.22-10.42.28-15.62s.12-10.15.12-15.22c0-1.22,0-2.43,0-3.65v-.68c0-.27,0-.54,0-.81v0c0-1.28,0-2.56,0-3.84v.39c0-1.51,0-3,0-4.53v.39c0-2.82-.09-5.63-.09-8.44v.39c0-1.56,0-3.13,0-4.7v.4c0-1.35,0-2.7,0-4v-.1c-.07-10.09.29-20.16.64-30.23.2-6,.46-12,.46-18a.25.25,0,0,0,0,.08,2.72,2.72,0,0,1,0-.28.13.13,0,0,0,0,.06v0h0v0c0-1.26,0-2.53,0-3.79v-.29c0-1.61-.06-3.21-.06-4.82V485c-.12-4.16-.28-8.32-.51-12.48-.1-2-.29-4-.47-6s-.46-4-.65-6.05c-.28-1.86-.52-3.71-.87-5.55s-.7-3.64-1.17-5.44c-.34-1.2-.69-2.41-1-3.62s-.8-2.37-1.18-3.57-.81-2.16-1.23-3.23c-.66-1.52-1.31-3-2-4.51s-1.46-3-2.24-4.45c-.54-.94-1.06-1.89-1.59-2.84a96.68,96.68,0,0,0-5.7-8.58h0c-.66-.85-1.32-1.71-2-2.57l.3.39-.18-.23c-2.27-2.86-4.59-5.68-7-8.41s-5.12-5.6-7.76-8.34l-.12-.13-2-2,.08.09-.24-.25h0c-.84-.8-1.66-1.62-2.49-2.44s-1.65-1.53-2.47-2.3c-1.48-1.38-3.08-2.63-4.65-3.89s-3.12-2.38-4.74-3.48c-.91-.63-1.82-1.24-2.75-1.84-.73-.48-1.49-.91-2.24-1.36-1.9-1.1-3.88-2.09-5.84-3.07-1.12-.57-2.23-1.13-3.35-1.68s-2.07-1-3.12-1.41-1.87-.65-2.83-.93l.11,0h.06l-.08,0-.23-.06h.06l-.08,0h0l-.9-.25.34.1c-2-.56-4.1-1.13-6.19-1.51h-.28a1.06,1.06,0,0,1-.5,0,1.57,1.57,0,0,1-.54-.11h0a1.29,1.29,0,0,1-.82-.92,1.66,1.66,0,0,1,.26-1.24,2.94,2.94,0,0,1,1.9-1.15c.54-.14,1.08-.28,1.63-.39a9.66,9.66,0,0,1,2-.06,32.92,32.92,0,0,1,8,.94,75.89,75.89,0,0,1,7.18,2.6,72.28,72.28,0,0,1,7,3.13c1.17.61,2.31,1.26,3.45,1.93l-.07,0,.31.19h0c1.3.76,2.54,1.62,3.79,2.47s2.23,1.55,3.31,2.39l-.18-.14c1.8,1.37,3.59,2.76,5.26,4.29s3.5,3.17,5.14,4.86a.8.8,0,0,1-.13-.13h0l.06.06c3.2,3.24,6.34,6.51,9.36,9.91,1.34,1.5,2.66,3,3.94,4.57,1.42,1.72,2.86,3.43,4.21,5.21.08.11.17.22.25.34l0-.06.72.94-.08-.09.28.36h0l.39.51h0l.33.44c.12.15.24.3.35.46v0c1,1.3,1.91,2.66,2.8,4,.48.73,1,1.45,1.42,2.2.55.91,1.08,1.82,1.64,2.73s1,1.72,1.42,2.58c.38.71.74,1.41,1.1,2.13s.76,1.5,1.11,2.26c.45,1,1,2,1.33,3s.89,2.14,1.32,3.22.81,2.21,1.21,3.31.69,2.18,1,3.27.61,2.22.9,3.33a99.07,99.07,0,0,1,2.35,13.25c.16,1.07.23,2.15.33,3.23.09.91.17,1.81.24,2.72q.24,3.24.44,6.48c.12,2.14.19,4.28.25,6.41s.15,4.37.15,6.55v-.44c0,5,.06,10.06-.11,15.09s-.4,10.13-.63,15.2-.5,10.34-.64,15.52-.2,10.31-.24,15.46c0,1.51,0,3,0,4.52v4.08h0v-.27c0,.67,0,1.34,0,2v1.56c0,.22,0,.44,0,.66v.23c0-.13,0-.26,0-.4,0,.29,0,.56,0,.84v2.19c0,.15,0,.3,0,.45a.34.34,0,0,0,0-.1c0,.26,0,.52,0,.78V562c0,1.57,0,3.15,0,4.74,0,4.9-.1,9.82-.26,14.73s-.52,10-.9,15q-.21,2.88-.43,5.76a2.36,2.36,0,0,1-2.33,2.19Z"/><path d="M1090.66,727q-1.41-5.06-3-10-.78-2.46-1.53-4.93c-.55-1.76-1.11-3.52-1.59-5.3l.09.35c-.38-1.28-.77-2.55-1.12-3.84,0,.12.06.23.1.35-.75-2.42-1.43-4.88-2.15-7.31-.62-2.11-1.23-4.24-1.9-6.33-.47-1.47-.93-2.95-1.4-4.42-.32-1-.68-2-1-3-.83-2.44-1.73-4.84-2.63-7.25-.58-1.53-1.27-3-1.86-4.55-.54-1.2-1.05-2.43-1.58-3.64-.43-1-.88-2-1.33-2.95-1-2.15-2-4.3-3-6.43q-3.21-6.49-6.57-12.93c-4.6-8.73-9.38-17.36-13.91-26.12-2.23-4.31-4.43-8.65-6.49-13.05q-3.3-7-6.36-14.23c-.61-1.42-1.19-2.84-1.78-4.27-1.57-3.75-3-7.56-4.49-11.34-1.57-4-3.12-8-4.74-12l.13.3c-.58-1.36-1.14-2.73-1.7-4.1-1-2.23-1.9-4.49-2.88-6.73-.86-2-1.73-4-2.58-6-1-2.34-2-4.66-3-7-.9-2.1-1.84-4.18-2.71-6.3v0c-1.22-2.86-2.46-5.71-3.65-8.58v0l-.06-.17v0c-.46-1.09-.9-2.17-1.35-3.26l.09.21c-.11-.25-.21-.5-.31-.75l.09.21c-.55-1.3-1.07-2.62-1.58-3.93l.09.19c-.5-1.19-.93-2.41-1.39-3.61s-.83-2.24-1.24-3.36c-.85-2.33-1.63-4.69-2.55-7a6,6,0,0,0-.32-.68l-.06-.1h0a.59.59,0,0,1-.19-.42.9.9,0,0,1,1-.71,1.25,1.25,0,0,1,.65.41,4.63,4.63,0,0,1,.83,1.14c.27.5.56,1,.8,1.47,1.12,2.26,2.17,4.56,3.23,6.85,2,4.28,4,8.53,6,12.77,2.15,4.46,4.35,8.88,6.48,13.34s4.18,8.92,6.22,13.4c.45,1,.9,2,1.33,2.94.52,1.17,1.07,2.34,1.57,3.52.6,1.36,1.18,2.72,1.75,4.09a.78.78,0,0,0-.05-.14c.05.11.09.23.14.34l.2.47-.13-.31.36.87h0v0h0l0,0,.06.15,0-.08c.11.25.21.51.32.77l-.13-.31c.18.42.36.85.53,1.27l-.13-.31.52,1.23-.13-.3c1.31,3.1,2.56,6.23,3.81,9.35l2,5.05c.65,1.6,1.34,3.18,2,4.79.46,1.09.91,2.18,1.38,3.27s1,2.33,1.55,3.5c1,2.18,2,4.32,3,6.48q3.15,6.72,6.54,13.32c2.21,4.32,4.47,8.59,6.74,12.87l6.64,12.59c2.38,4.52,4.74,9.05,7,13.61,2.19,4.37,4.23,8.8,6.27,13.23.49,1.09,1,2.21,1.44,3.31s.85,2,1.25,3,1,2.26,1.38,3.4c.54,1.4,1.07,2.81,1.59,4.22.37,1,.71,2,1.06,3s.7,2,1,3c.82,2.59,1.65,5.18,2.43,7.77.57,1.85,1.11,3.71,1.66,5.56.5,1.69,1,3.38,1.48,5.08l-.09-.34c.34,1.19.71,2.37,1,3.57s.64,2.19.92,3.3q.33,1.18.63,2.37v.08l.06.24a1.24,1.24,0,0,1,0-.16c.63,2.28,1.17,4.59,1.75,6.89q1,3.84,2,7.66a2.38,2.38,0,0,1-1.55,2.73,2.67,2.67,0,0,1-.75.11A2.34,2.34,0,0,1,1090.66,727Z"/><path d="M564.31,359.92a2.65,2.65,0,0,1-1.89-.89,6.93,6.93,0,0,1-.74-1.16,12.57,12.57,0,0,1-.62-1.14c-.41-.8-.8-1.59-1.19-2.4q-1.17-2.38-2.32-4.77a4.15,4.15,0,0,1-.47-2.21,3.29,3.29,0,0,1,1.23-2.12,6.88,6.88,0,0,1,2.54-1.26,15.31,15.31,0,0,1,3.13-.6c1.85-.17,3.7-.36,5.56-.36h-.26c1.15,0,2.29-.06,3.44-.06h-.27c1.21,0,2.42,0,3.64,0h-.28c1.17,0,2.33,0,3.5-.07s2.55-.12,3.82-.12h-.31c2.34-.07,4.69-.21,7-.34l6.87-.33q6.85-.31,13.68-1.12l.79-.09,3-.41-.11,0,.11,0h.11c3.19-.47,6.38-1,9.53-1.68,3.32-.74,6.64-1.52,9.93-2.4l.52-.15.53-.14c.82-.26,1.63-.51,2.43-.8s1.37-.53,2-.81c1.23-.53,2.43-1.08,3.61-1.72l.17-.11a.6.6,0,0,1,.08-.08c.15-.16.3-.33.44-.5.24-.33.46-.67.68-1,.57-1,1.06-2.09,1.54-3.16.93-2.35,1.75-4.72,2.53-7.12s1.35-4.53,2-6.8a1.82,1.82,0,0,1,.07-.25.19.19,0,0,0,0,.08l.21-.79-.12.43.21-.76h0l0,0c.47-1.82.95-3.62,1.39-5.44.4-1.65.79-3.29,1-5,.05-.41.09-.82.11-1.23a5,5,0,0,1-.69-.77,3.57,3.57,0,0,1-.49-.54,3,3,0,0,1-.41-1.29,2.49,2.49,0,0,1,1.39-2.43,3.18,3.18,0,0,1,1.74-.36l.48,0a24.7,24.7,0,0,1-3.14-8.39,20.33,20.33,0,0,1,.4-9.24,22,22,0,0,1,4.47-8.32,19.39,19.39,0,0,1,7.43-5.31,29.71,29.71,0,0,1,9-2,29.36,29.36,0,0,1,9.71.76A21.06,21.06,0,0,1,697,275.2a19.12,19.12,0,0,1,1.4,9.24,23.07,23.07,0,0,1-3.34,9.6,29.06,29.06,0,0,1-2.86,3.87,39.67,39.67,0,0,1-3.62,3.48,23.49,23.49,0,0,1-3.92,2.8,12.58,12.58,0,0,1-2.11.89,19.28,19.28,0,0,1-2.78.73,23.27,23.27,0,0,1-3.91.42h0a2.85,2.85,0,0,1-3.62,1.75c-1.86-.77-3.69-1.62-5.47-2.56a43,43,0,0,1-4.23-1.1c-1.06-.37-2.11-.75-3.15-1.16-.1,1-.25,2-.44,2.95-.37,1.87-.84,3.72-1.3,5.56s-.91,3.63-1.4,5.43l0,0c-.17.63-.33,1.27-.5,1.9a.83.83,0,0,1,0-.15c-.1.36-.19.71-.29,1.06v0l0,.14,0,.06v0c0,.16-.08.31-.13.47l0-.1a76.43,76.43,0,0,1-3.18,9.44,29.06,29.06,0,0,1-3,5.69,9.84,9.84,0,0,1-2.32,2.41,16.34,16.34,0,0,1-1.82,1c-.82.42-1.7.77-2.55,1.12l.38-.16a42,42,0,0,1-5.08,1.79c-1.91.54-3.85,1-5.79,1.43-1.69.38-3.39.75-5.09,1.09-2,.39-4,.82-6,1.09l.38-.05c-2.13.35-4.27.6-6.4.87-3,.39-5.95.63-8.93.83s-6.06.31-9.09.31H586.44c-3.46,0-6.92-.06-10.37-.17l-4.31-.17c-.85,0-1.7-.07-2.55-.07h-1.46c-.08.21-.15.43-.21.64a21.27,21.27,0,0,0-.4,2.23c-.14,1.24-.26,2.49-.38,3.74-.06.62-.11,1.24-.17,1.86,0,.34-.05.7-.08,1s0,.48,0,.72a7.63,7.63,0,0,1-.17,1.26,2,2,0,0,1-1.84,1.55Zm-2-8c.38.64.77,1.27,1.17,1.9,0-.08,0-.16.07-.24.27-.91.59-1.81.9-2.72a24.5,24.5,0,0,1,1.56-4c-1.1,0-2.19.06-3.29.19q-.65.09-1.29.24l-.71.25-.22.1-.19.13,0,0v0c.06.17.12.33.19.49a1.08,1.08,0,0,0-.08-.19C561,349.44,561.61,350.68,562.31,351.91Zm108.9-82.79a29.41,29.41,0,0,0-2.94.59c-.68.2-1.36.43-2,.69-.47.2-.93.43-1.38.67s-.87.55-1.28.85a17.09,17.09,0,0,0-1.3,1.12,18.39,18.39,0,0,0-1.24,1.41c-.37.5-.71,1-1,1.54s-.62,1.18-.89,1.8a16.64,16.64,0,0,0-.6,1.72,18.28,18.28,0,0,0-.38,1.93,17.52,17.52,0,0,0-.11,1.77,17.71,17.71,0,0,0,.14,1.92c.11.71.26,1.4.44,2.1.28,1,.61,1.91,1,2.85.3.67.62,1.32,1,1.95s.76,1.2,1.18,1.78,1.08,1.28,1.66,1.89a27.78,27.78,0,0,0,2.23,2c.31.24.63.47,1,.7.67.12,1.35.22,2,.33l2.13.2c.69.07,1.41,0,2.11.06,1.23,0,2.45-.08,3.67-.23.77-.12,1.52-.27,2.27-.45.55-.17,1.09-.36,1.63-.57.24-.11.47-.23.7-.35s.73-.47,1.09-.73a47.81,47.81,0,0,0,3.74-3.25c.57-.59,1.12-1.2,1.64-1.84s.91-1.26,1.32-1.92a24,24,0,0,0,1.17-2.32c.28-.69.53-1.38.74-2.09s.27-1.22.36-1.83.07-.94.09-1.41,0-1-.1-1.44-.19-1.08-.32-1.62-.34-1.08-.54-1.62-.48-1-.76-1.54-.47-.74-.73-1.1-.75-.92-1.16-1.35a17.53,17.53,0,0,0-1.51-1.35c-.47-.36-.95-.69-1.45-1s-1.1-.59-1.67-.85-1.11-.41-1.68-.58a23.07,23.07,0,0,0-2.34-.47,33.84,33.84,0,0,0-3.63-.22A36.54,36.54,0,0,0,671.21,269.12Z"/><path d="M726,306.48a17.31,17.31,0,0,1-4.58-.72,15.39,15.39,0,0,1-7-4.47,16.88,16.88,0,0,1-3.85-7.4,19.88,19.88,0,0,1-.51-4.07,26.28,26.28,0,0,1,.25-4.43,25.29,25.29,0,0,1,4.25-11,21.52,21.52,0,0,1,8-6.71,18.8,18.8,0,0,1,2.16-.94l-.24-.1c-2.78-1.12-5.68-1.88-8.54-2.77l-1.88-.5-.1,0q-2.55-.63-5.14-1.07c-1-.12-1.94-.22-2.91-.26l-.55,0a2.61,2.61,0,0,1-.37-5.21,26.08,26.08,0,0,1,4.59.18c2.09.27,4.16.58,6.23,1s4.32.89,6.46,1.39a37.37,37.37,0,0,1,6.19,1.95,34.9,34.9,0,0,1,7.73,4.59,31.71,31.71,0,0,1,6.12,6.18,23.78,23.78,0,0,1,3.8,7.76,22.67,22.67,0,0,1,.8,8.82,23.15,23.15,0,0,1-1,4.35,20.48,20.48,0,0,1-2,4.21,19.05,19.05,0,0,1-6,5.95,21.25,21.25,0,0,1-7.89,3,21.58,21.58,0,0,1-3.85.31Zm-.62-38.29a22.11,22.11,0,0,0-2,1,24.59,24.59,0,0,0-2.36,1.55c-.65.52-1.27,1.06-1.87,1.63s-1,1.11-1.51,1.7a19.49,19.49,0,0,0-1.32,1.94,23.76,23.76,0,0,0-1.18,2.37,26.55,26.55,0,0,0-.89,2.6,24.08,24.08,0,0,0-.62,3,27.43,27.43,0,0,0-.2,3.26,24.32,24.32,0,0,0,.2,2.83,19.09,19.09,0,0,0,.46,2.25,16.66,16.66,0,0,0,.58,1.68q.32.72.69,1.41c.31.52.64,1,1,1.51s.67.81,1,1.19a13,13,0,0,0,1,.93c.4.31.82.59,1.24.86s.79.43,1.2.61,1,.37,1.51.52a14.72,14.72,0,0,0,1.5.29c.52.06,1,.09,1.57.1a19.39,19.39,0,0,0,2-.13,22,22,0,0,0,2.31-.49c.69-.2,1.35-.43,2-.69s1.21-.57,1.8-.89,1.1-.7,1.62-1.09a18.81,18.81,0,0,0,1.43-1.25c.42-.43.82-.88,1.19-1.34s.63-.88.91-1.34.59-1.1.85-1.68.44-1.19.62-1.8.3-1.34.41-2,.12-1.36.13-2.05-.07-1.44-.16-2.15-.26-1.46-.45-2.18-.47-1.52-.76-2.26-.64-1.39-1-2.06-.92-1.46-1.43-2.16-1.08-1.32-1.67-1.94a38.4,38.4,0,0,0-3.24-2.87,39.44,39.44,0,0,0-3.9-2.6c-.46-.27-.94-.52-1.42-.77C726.27,267.85,725.82,268,725.39,268.19Z"/><path d="M652.3,357.91a2.59,2.59,0,0,1-.84-3.29c.26-.47.56-.91.84-1.36h0l.08-.14-.07.11a53.76,53.76,0,0,0,2.63-5.46l-.12.28c.15-.36.3-.71.46-1.06v0l.31-.73c0-.09.08-.18.11-.27h0a2,2,0,0,0,.11-.26l0,0,.18-.41h0l.08-.19.38-.9c.87-2.07,1.7-4.16,2.57-6.22l0,.05a.54.54,0,0,0,0-.11l0-.08v0c.27-.67.54-1.35.83-2,.69-1.67,1.37-3.35,2.08-5h0l0-.08v0l.25-.6h0l.06-.13,0,0,.32-.75,0,.05.54-1.28s0,0,0,.05l0-.08h0l0-.11s0,0,0-.05l0,0v0a.36.36,0,0,0,0-.09h0c.43-1,.87-2.07,1.32-3.1a1.54,1.54,0,0,1-.08.19.75.75,0,0,0,.06-.13c.35-.86.75-1.71,1.13-2.56q.45-1,.93-2c.69-1.51,1.37-3.05,2.13-4.53s1.55-3.15,2.36-4.71c.36-.7.7-1.4,1.09-2.07a22.09,22.09,0,0,1,1.84-3c.29-.35.77-.8,1.27-.7a1.05,1.05,0,0,1,.7.6h0l.12.18a.1.1,0,0,0,0-.05l.11.12h0a1.59,1.59,0,0,0,.13.13l0,0,0,0h0l.18.13a.5.5,0,0,1,0,.7.51.51,0,0,1-.75,0l-.21-.23-.19-.17,0,0-.15.25,0-.08c-.24.43-.46.88-.66,1.33l0-.1c-.24.58-.49,1.15-.74,1.72a1.12,1.12,0,0,0,0,.13h0l0,.06v0h0c-.26.63-.51,1.27-.79,1.9-.31.81-.67,1.6-1,2.41s-.67,1.73-1,2.59v0c-1.18,3.05-2.37,6.11-3.52,9.17s-2.24,6.21-3.34,9.33q-3.24,9.21-6.67,18.36a13.48,13.48,0,0,1-1.82,3.85,2.39,2.39,0,0,1-1.9.85A2.75,2.75,0,0,1,652.3,357.91Z"/><path d="M814.29,362.87h-2.14c-3,0-5.94-.27-8.91-.48s-6.14-.46-9.19-.83c-3.37-.41-6.75-.84-10.09-1.44q-4.73-.84-9.4-1.84c-3.28-.7-6.53-1.47-9.76-2.39-1.48-.42-2.94-.91-4.38-1.44a35.35,35.35,0,0,1-3.84-1.67,19,19,0,0,1-4-2.92l-1.82-1.68a20.52,20.52,0,0,1-2.93-3.51c-.91-1.35-1.79-2.72-2.58-4.15q-2.26-4.12-4.52-8.24c-1-1.93-2.08-3.87-3.14-5.8s-2.27-4.05-3.24-6.15a30,30,0,0,1-1.32-3.21,3.44,3.44,0,0,1,.14-2.74,2.08,2.08,0,0,1,1.9-1.23,2.4,2.4,0,0,1,1.59,1,1.3,1.3,0,0,1-.25,1.9,1.66,1.66,0,0,1-.31.14c.23.45.48.89.73,1.32v0c1.09,1.76,2.26,3.46,3.44,5.16,1.33,1.93,2.65,3.88,3.94,5.85,1.13,1.72,2.25,3.46,3.37,5.19s2.2,3.58,3.44,5.27c.33.42.66.85,1,1.28.59.71,1.17,1.43,1.8,2.11s1.5,1.3,2.28,1.92,1.69,1.32,2.6,1.9c.52.29,1.05.55,1.6.79a60.28,60.28,0,0,0,6,1.94c3.66.88,7.34,1.61,11,2.27,3.88.7,7.77,1.35,11.68,1.9,2,.21,3.91.45,5.87.65s4,.32,6,.45c3.75.23,7.51.42,11.26.43,4.5-.14,9-.47,13.45-1,1.49-.25,2.95-.59,4.4-1l-.56.16,1.16-.32-.57.16c.87-.26,1.73-.53,2.57-.86l.89-.43c1.08-.67,2.14-1.39,3.16-2.15a4.94,4.94,0,0,0,.44-.36c.61-.64,1.18-1.31,1.74-2,.34-.46.66-.92,1-1.39,0-.1.07-.21.1-.31,0,.09,0,.19-.08.28,0-.09.05-.19.08-.28s0-.16.07-.25l-.06.23.09-.42c-.44-.08-.89-.14-1.33-.2A179,179,0,0,0,820.44,343c-3.34-.08-6.68-.18-10-.24-3,0-6,0-9-.1a114.61,114.61,0,0,1-12.29-.69c-1.14-.14-2.25-.3-3.38-.51s-2.07-.45-3.11-.72-2.23-.66-3.34-1-2.33-.93-3.48-1.42l.55.23a43,43,0,0,1-4.64-2.36,39.47,39.47,0,0,1-4-2.53L765.56,332c-.74-.56-1.42-1.18-2.13-1.79a46,46,0,0,1-3.44-3.26c-4.39-4.58-8.64-9.31-12.76-14.13-3.09-3.61-6-7.37-9-11a3.76,3.76,0,1,1,5.68-4.94c1.89,2.08,3.85,4.07,5.8,6.08s4,4.13,5.91,6.21c3.66,3.89,7.26,7.85,10.95,11.71l2.12,2c.69.66,1.46,1.24,2.19,1.85s1.37,1,2.07,1.52,1.61,1.07,2.41,1.59l2,1.15c.8.45,1.65.81,2.48,1.22l.09,0,1.75.75.23.1c.72.28,1.47.5,2.2.74l2.15.58c.89.24,1.84.34,2.75.51,1.38.18,2.75.33,4.14.44,1.65.13,3.31.19,5,.27,2.9.12,5.82.13,8.73.18,6.44.09,12.88.16,19.31.5,2.76.15,5.51.35,8.25.72l-.18,0c1.76.22,3.51.44,5.26.69l2.16.35a17.57,17.57,0,0,1,2.68.69,7,7,0,0,1,1.12.51,5.38,5.38,0,0,1,1.66,1.3,7.68,7.68,0,0,1,1.29,2.28A10.55,10.55,0,0,1,849,345a20.71,20.71,0,0,1-.28,2.37,10.47,10.47,0,0,1-1.85,4.09,24.48,24.48,0,0,1-3.56,4.24,27.86,27.86,0,0,1-3.89,2.75,22.66,22.66,0,0,1-4.46,2.16,32.41,32.41,0,0,1-4.55,1.2,38.17,38.17,0,0,1-4.25.62c-1.32.11-2.64.18-4,.23-2.75.12-5.5.2-8.25.2Z"/><path d="M542.73,1118.67a13.85,13.85,0,0,1-1.94-2.63c-.57-1-1-2.12-1.51-3.21s-1-2.42-1.46-3.64c-.66-1.7-1.3-3.41-1.94-5.12h0a12.85,12.85,0,0,1,1.19,5,4.46,4.46,0,0,1-3.52,4,4.72,4.72,0,0,1-3-.36,6.89,6.89,0,0,1-1.62-1.27c-.6-.59-1.27-1.09-1.9-1.64a48.87,48.87,0,0,1-3.76-3.72c-2.64-2.9-5.08-6-7.44-9.09l0,.07-.1-.13-.06-.09h0l0,0v0c-.07-.1-.15-.19-.22-.28-2.3-3-4.47-6.19-6.65-9.31q-3.06-4.39-6-8.86-3.48-5.22-6.92-10.48c-1.83-2.79-3.68-5.57-5.44-8.4-2-3.2-4.05-6.36-6-9.6s-4.08-6.73-6-10.18c-1.27-2.34-2.56-4.68-3.83-7-.59-1.08-1.19-2.13-1.73-3.24q-1.63-3.36-3.28-6.74c-.7-1.46-1.5-2.9-2.13-4.39-1-2.29-1.95-4.57-2.93-6.84l-1.68-3.93c-.26-.62-.56-1.24-.8-1.87-1.62-4.4-3.37-8.76-5-13.15l.12.27c-.6-1.43-1-2.94-1.55-4.4q-1.35-3.92-2.71-7.81c-1.1-3.16-2.1-6.35-3.12-9.54s-2.13-6.5-3.11-9.78q-2.12-7-4.22-14.11c-1.75-5.84-3.32-11.74-5-17.61-.75-2.65-1.4-5.33-2.1-8-.83-3.17-1.68-6.34-2.49-9.52-.37-1.35-.65-2.72-1-4.08-.66-2.74-1.31-5.48-2-8.21-.72-3-1.39-6.1-2-9.17q-.85-4.05-1.69-8.1c-.24-1.14-.5-2.29-.71-3.44-.84-4.72-1.65-9.44-2.47-14.16-.15-.84-.3-1.67-.42-2.51l0-.25,0-.2v0l-.12-.83h0c-.07-.54-.14-1.08-.22-1.62,0,.12,0,.22.05.34-.16-1.16-.32-2.31-.47-3.46,0,.11,0,.22,0,.33-.09-.68-.18-1.37-.28-2.05l.05.33-.28-2.06,0,.33c-.18-1.29-.36-2.57-.53-3.86a3.06,3.06,0,0,0,.05.32c-.07-.44-.13-.89-.19-1.34v0l-.14-1v.07l-.08-.58.05.32c0-.24-.07-.48-.1-.72v-.06s0,0,0-.07v0h0c-.21-1.41-.29-2.86-.42-4.28l-.78-8.3c-.14-1.52-.27-3-.43-4.57,0-.41,0-.83-.06-1.24-.05-1.14-.11-2.29-.16-3.43-.13-2.76-.27-5.52-.4-8.28-.07-1.28-.18-2.56-.17-3.83q.06-6.78.13-13.54c0-2.48.33-5,.53-7.44.13-1.65.26-3.3.4-4.95.07-.88.23-1.76.36-2.64.45-2.86.79-5.75,1.44-8.58.38-1.66.75-3.32,1.15-5a40.88,40.88,0,0,1,1.38-4.36,14.09,14.09,0,0,1,1.09-2.37,4.36,4.36,0,0,1,.92-1,1,1,0,0,1,1.54.21,2.33,2.33,0,0,1,.45,1.41c0,.33,0,.68,0,1,0,.76.07,1.53.1,2.29a.94.94,0,0,1-.87,1,.92.92,0,0,1-1-.86c0-.2,0-.41,0-.61-.07.26-.14.52-.22.78-.81,3.12-1.34,6.33-1.88,9.51-.2,1.7-.39,3.4-.59,5.09-.16,1.44-.4,2.88-.47,4.32q-.15,3.36-.32,6.7c-.08,1.57-.23,3.16-.23,4.74.06,4.32.14,8.64.21,13,0,1,.06,2,.14,3,.19,2.59.36,5.17.55,7.75.23,3.19.42,6.37.79,9.55.54,4.66,1.06,9.34,1.61,14,0,0,0,.08,0,.12.64,4.24,1.33,8.47,2,12.71.2,1.26.36,2.54.6,3.8q.52,2.76,1.07,5.52l1.56,8.09c.19,1,.38,2,.61,3.05q1.57,7,3.16,14c.57,2.5,1.22,5,1.86,7.46.87,3.4,1.71,6.82,2.6,10.22l0-.06,0,.1v0a.31.31,0,0,0,0,.08v0s0,0,0,0v-.06c0,.1.05.2.07.29v0h0v0l0,.09v0h0v0h0l0,.1a.36.36,0,0,0,0,.1c1.49,5.35,3,10.7,4.45,16.06a1.6,1.6,0,0,1,.05.21c1.1,3.91,2.31,7.8,3.46,11.69.86,2.93,1.73,5.84,2.64,8.75l2.49,8c.48,1.54.93,3.09,1.44,4.63q2,6.08,4,12.15c.78,2.4,1.61,4.77,2.47,7.15s1.59,4.47,2.39,6.7c.44,1.25.92,2.49,1.34,3.75.85,2,1.6,4.11,2.41,6.15.89,2.31,1.82,4.61,2.7,6.91,1.34,3.13,2.72,6.24,4.08,9.36.41.92.78,1.88,1.23,2.78l2.34,4.72c1.31,2.66,2.56,5.35,4,7.94l3.21,5.81c.7,1.25,1.42,2.48,2.08,3.75.28.42.52.86.78,1.3l2.15,3.58,2,3.28c.3.5.57,1,.89,1.49,2,3,3.88,6.19,5.9,9.23,4.34,6.56,8.69,13.11,13.17,19.57,3.48,5,7,10,10.66,14.88-.34-1-.68-2-1-3q-3-8.77-6-17.59c-1.76-4.29-3.44-8.61-5.1-12.94-1-2.64-2-5.29-3-7.94-.45-1.21-.85-2.44-1.27-3.66-.24-.69-.47-1.37-.7-2s-.48-1.44-.66-2.18a6.89,6.89,0,0,1,0-2.86,4.27,4.27,0,0,1,7.74-1.52,29.15,29.15,0,0,1,2.8,5.37c.45,1.13.92,2.25,1.37,3.38.72,1.76,1.33,3.58,2,5.37,1.3,3.57,2.48,7.18,3.7,10.77q2.49,7.27,5,14.54c.49,1.1,1,2.2,1.48,3.3,0-.14-.07-.28-.11-.41a20.73,20.73,0,0,1-.56-3.13,8.5,8.5,0,0,1,.25-3.72,5.44,5.44,0,0,1,2.06-2.75,5.56,5.56,0,0,1,3-.87c-.21-1-.42-2-.61-2.94q-1.5-7.49-3-15c-.49-2.38-1-4.75-1.39-7.14q-1.26-7.36-2.54-14.72l-1.24-7.22c-.2-1.13-.47-2.28-.57-3.43-.22-1.52-.38-3.06-.58-4.58-.42-3.19-.81-6.37-1.23-9.56-.62-4.8-1.25-9.59-1.84-14.4a2.89,2.89,0,0,1,0,.29c-.18-1.43-.23-2.88-.34-4.31L518.33,976q-.39-5.16-.79-10.3c-.13-1.76-.34-3.54-.34-5.3v.77c-.24-8.69-.36-17.38-.57-26.06-.06-2.54,0-5.07,0-7.61q.07-8.1.13-16.21c.06-7.67.15-15.34.22-23,.06-6.73.2-13.47.23-20.2,0-9.3.25-18.6.41-27.9a5.32,5.32,0,0,1,9.32-3.15,5.47,5.47,0,0,1,1.29,3.81Q528,864,528,887.07c0,6.93,0,13.86,0,20.79,0,.24,0,.47,0,.71s0,.22,0,.33v2.22q0,9.3,0,18.6c0,.87,0,1.74,0,2.61v.3c.12,4.67.26,9.35.39,14l.27,9.56c0,1.64.12,3.28.12,4.92,0-.26,0-.52,0-.77.8,9.59,1.44,19.21,2.24,28.81.2,1.46.36,2.92.53,4.38.39,3.16.79,6.31,1.18,9.47.59,4.75,1.2,9.49,1.77,14.24,1.39,8.33,2.79,16.67,4.15,25,.43,2.64,1,5.26,1.49,7.89.93,4.86,1.88,9.71,2.81,14.58,1.24,6.39,2.58,12.77,3.9,19.15.8,3.91,1.62,7.81,2.4,11.72,1,5.17,2.14,10.33,2.85,15.56a10.89,10.89,0,0,1,.16,4.06,6.64,6.64,0,0,1-.9,2.36,8.22,8.22,0,0,1-1.47,1.59,5.11,5.11,0,0,1-3.32,1.22A5.18,5.18,0,0,1,542.73,1118.67Z"/><path d="M801.67,1133.64a4.8,4.8,0,0,1-2.18-1.64,7.07,7.07,0,0,1-1.26-3,37.66,37.66,0,0,1-.58-7.65c0-1.35,0-2.7.05-4,0-1.92.06-3.84.13-5.75.28-8.73.6-17.45.86-26.18.52-16.87.94-33.76,1.08-50.64,0-5.23.08-10.46.08-15.69h0v0c0,.12,0,.24,0,.36,0-.24,0-.47,0-.7v-.53c0-1.41,0-2.81,0-4.22v.58q0-3.66,0-7.32v.59c0-.59,0-1.17,0-1.76v.24c0-.86,0-1.72,0-2.58V1003c0-3.1-.08-6.21-.12-9.32s-.1-6.13-.1-9.2V985c-.05-3.31-.09-6.62-.14-9.93,0-3.12-.13-6.24-.13-9.37v.59c0-3.3-.11-6.6-.16-9.89,0-2.94-.13-5.88-.14-8.83s-.16-6.19-.23-9.28c-.07-2.88-.2-5.77-.21-8.65-.21-4.73-.39-9.46-.57-14.19-.15-3.9-.4-7.78-.63-11.67-.45-8-1-16-1.66-23.95q-1.5-17.76-3-35.51c.87,16.82,1.66,33.65,2.59,50.47.23,4.26.42,8.52.64,12.78.09,1.78.14,3.55.2,5.33.09,2.25.24,4.51.24,6.76v-.44c.08,2.44.09,4.88.14,7.32,0,1.65.06,3.3.06,5,0,2.6,0,5.19,0,7.79,0,2.17-.11,4.35-.18,6.53-.22,8-.82,16-1.58,24q-1.56,16.32-3.8,32.57c-.38,2.88-.81,5.75-1.26,8.62l0-.28c-.3,2.25-.71,4.5-1.06,6.74-.28,1.72-.56,3.44-.86,5.15q-1.17,6.82-2.39,13.63-2.13,11.85-4.46,23.67-2.51,12.73-4.86,25.49-1.08,5.83-2.17,11.66-.61,3.27-1.21,6.54l-.48,2.62a31.25,31.25,0,0,1-1.23,5.16,5.61,5.61,0,0,1-1.54,2.12,3.63,3.63,0,0,1-2.34.82c-2,.09-3.44-1.39-4.24-3.06a17.79,17.79,0,0,1-1.17-3.93c-.23-1-.46-2.07-.67-3.1-.15-.71-.29-1.42-.44-2.14-.27.67-.57,1.33-.89,2a6.27,6.27,0,0,1-2,2.28,5.56,5.56,0,0,1-2.75,1,6.83,6.83,0,0,1-2.33-.27,5.85,5.85,0,0,1-2.44-1.69,12.19,12.19,0,0,1-2.24-4.92c0,.13.07.25.1.39-.69-2.49-1.29-5-1.87-7.52s-1-4.89-1.61-7.32c-.15.21-.29.42-.43.64-.33.58-.66,1.17-.95,1.78a22.9,22.9,0,0,1-.91,2.3,5.49,5.49,0,0,1-2,2.28,5.31,5.31,0,0,1-3.12.82,5.41,5.41,0,0,1-3-1.28,13.82,13.82,0,0,1-2.69-3.2c-.74.81-1.46,1.65-2.15,2.51a27.9,27.9,0,0,1-3.54,4.32,5.54,5.54,0,0,1-4,1.33,9.42,9.42,0,0,1-2.7-.69,9,9,0,0,1-1.9-1.14l-.15-.08-.13,0-.39-.08h-.29l-.3,0a6.18,6.18,0,0,1-3,0,8.66,8.66,0,0,1-1.71-.74l-.94-.58a25.08,25.08,0,0,1-2.92-2.43l-.07,0-.17,0-.23,0h-.19l-.14,0-.1,0a6.43,6.43,0,0,1-.77.29,2.5,2.5,0,1,1-1.62-4.74l.34-.14-.08,0a6.68,6.68,0,0,1,3.26-.54,5.11,5.11,0,0,1,2.2.52,11.15,11.15,0,0,1,1.57,1.07l-.11-.09.82.54c.3.16.61.3.92.45s.59.22.89.31a11.42,11.42,0,0,1,3.43-.57,8.06,8.06,0,0,1,2.19.26,11.94,11.94,0,0,1,1.35.47c.74-1,1.45-2.11,2.24-3.12s1.78-2.19,2.74-3.22a17.14,17.14,0,0,1,3.31-2.94,5.58,5.58,0,0,1,4.66-.68,7,7,0,0,1,1.74.9,5,5,0,0,1,.89.82l0-.06c.81-1.24,1.67-2.39,2.58-3.55a25.78,25.78,0,0,1,2.25-2.42,6.09,6.09,0,0,1,1.87-1.15,6.82,6.82,0,0,1,2.26-.6,6.19,6.19,0,0,1,4.41,1.42,11.15,11.15,0,0,1,2.81,3.68,25,25,0,0,1,1.54,4.27c.29,1,.56,2.09.82,3.13l1,3.87c1.11-1.7,2.46-3.31,4.47-3.86a4.84,4.84,0,0,1,2.33-.16,5.33,5.33,0,0,1,1.89.78,5.93,5.93,0,0,1,2.35,3.58,19.06,19.06,0,0,1,.43,2.49c.11.76.22,1.52.31,2.28.08.59.15,1.18.22,1.77.1-.54.21-1.08.31-1.61.83-4.27,1.67-8.53,2.49-12.8q2.31-12,4.47-24c1.4-7.87,2.83-15.73,4.18-23.61q1.11-6.54,2.18-13.08c.65-4,1.22-7.95,1.85-11.91.36-2.76.75-5.52,1.16-8.26q.83-6.39,1.6-12.8c.49-4.12.9-8.26,1.37-12.39.45-4,.78-7.94,1.1-11.91.18-2.25.38-4.5.55-6.75.18-2.45.27-4.9.41-7.35.39-6.83.42-13.68.42-20.52-.09-3.44-.17-6.89-.18-10.33-.47-16.46-1.49-32.91-2.22-49.36-.75-17.12-1.65-34.24-2.28-51.38-.17-4.63-.34-9.27-.46-13.91-.12-4.21-.26-8.43-.26-12.65v0c0-.19,0-.38,0-.57v.38c0-2.59-.05-5.2,0-7.8,0-1.55.05-3.11.06-4.67,0-1.26.09-2.52.2-3.77a18.9,18.9,0,0,1,.36-2.49,6.56,6.56,0,0,1,.6-1.54,2.74,2.74,0,0,1,3.68-1.21,3.28,3.28,0,0,1,1.58,1.43,12.17,12.17,0,0,1,.84,3c.2,1,.33,2.11.47,3.16,0,0,0-.06,0-.09l.09.7v0a2.51,2.51,0,0,0,0,.27.28.28,0,0,0,0,.09v0c.14,1,.27,2.06.41,3.08.53,3.85,1,7.72,1.4,11.59q.76,6.64,1.5,13.3c.92,8.24,1.84,16.48,2.7,24.72.83,8.06,1.71,16.12,2.57,24.18.89,8.31,1.8,16.62,2.55,24.94q.63,7.15,1.25,14.3c.34,3.9.56,7.82.84,11.72.23,3.16.42,6.3.59,9.46.14,2.8.29,5.59.43,8.39.07,1.44.19,2.89.22,4.33.14,3.1.21,6.21.32,9.31l.21,6.2c0,.82.08,1.64.09,2.46.15,3.27.16,6.55.24,9.81.07,3,.2,5.95.21,8.92.06,3.26.13,6.51.19,9.76.07,3,.17,6,.18,9,0,3.18.09,6.35.14,9.53,0,2.93.12,5.86.12,8.79v1.68c0,.49,0,1,0,1.46v2.14c0,.31,0,.63,0,.94a1.15,1.15,0,0,0,0-.19c0,.51,0,1,0,1.54v.37c0,.83,0,1.66,0,2.49v3.66c0,9.26-.14,18.53-.34,27.8-.18,7.85-.37,15.7-.67,23.54-.33,8.49-.63,17-1.07,25.45-.23,4.42-.45,8.83-.7,13.24s-.56,9-.73,13.51c0,1-.07,1.92-.08,2.88.76-.9,1.51-1.81,2.26-2.71,1.63-2,3.2-4,4.78-6l2-2.64q5.57-7.23,11-14.55,2.66-3.58,5.29-7.21l2.88-4,1.59-2.18c.39-.55.78-1.08,1.2-1.6a5.14,5.14,0,0,1,1.85-1.38,3.74,3.74,0,0,1,3.83.35l2.74-3.83c1.87-2.61,3.73-5.26,5.71-7.79l-.33.42c1.39-1.82,2.76-3.65,4.21-5.41,2.18-2.65,4.85-6.66,8.8-5.86a4.79,4.79,0,0,1,2.64,1.5,4.91,4.91,0,0,1,1.17,2.89,13.69,13.69,0,0,1,0,1.69,15.48,15.48,0,0,1-.33,1.78c-.16.75-.38,1.51-.57,2.26q-.75,3-1.52,6c-1,4-2,7.93-3,11.91s-2,7.84-2.81,11.78c-.09.44-.19.88-.28,1.32l.83-1.42c.08-.13.16-.26.23-.39l0-.06v0c8.3-14.43,16.47-28.93,24.15-43.71.62-1.19,1.23-2.39,1.84-3.59l1.14-2.21a15.1,15.1,0,0,1,2-3.22,4.14,4.14,0,0,1,7,4.11c-.41,1.06-.85,2.11-1.29,3.16-3,7.42-5.83,14.93-8.62,22.45-1.41,3.81-2.85,7.62-4.16,11.46s-2.56,7.44-3.68,11.2c3.07-4.59,5.84-9.39,8.68-14.11l1.2-2,0,0c.25-.42.5-.84.74-1.26l.19-.32,0,.08.25-.45c-.07.13-.14.26-.22.38l2-3.47-.23.38c2.09-3.64,4.16-7.29,6.17-11,1.89-3.48,3.74-7,5.6-10.47,3.89-7.34,7.84-14.66,11.56-22.09,2.26-4.52,4.52-9.05,6.63-13.66,1.1-2.41,2.23-4.81,3.3-7.24s2.16-5,3.24-7.49c1.14-2.85,2.4-5.66,3.49-8.53.67-1.79,1.35-3.59,2-5.38.49-1.28,1-2.56,1.45-3.86.62-1.79,1.22-3.58,1.83-5.38.46-1.39,1-2.77,1.4-4.17,1-3.3,1.95-6.62,3-9.91.94-3.64,2-7.25,2.87-10.9,1-4.16,2-8.31,2.94-12.49s1.9-8.57,2.76-12.88,1.74-8.64,2.53-13c2.44-13.35,4.49-26.77,6.3-40.23,1-7.92,1.94-15.84,2.59-23.79.36-4.41.74-8.81,1-13.22s.56-8.92.79-13.39c.89-17.2,1.45-34.42,2-51.63.22-6.41.37-12.85.38-19.26,0-.28,0-.56,0-.84a2.09,2.09,0,0,0,0,.25c0-1.65,0-3.3,0-4.95v-.56c0-.44,0-.89,0-1.33a1.24,1.24,0,0,1-.41-1c0-1,.12-1.94.16-2.92a10.93,10.93,0,0,1,0-1.28,1.32,1.32,0,0,1,2.39-.65c.13.19.25.38.36.58a5,5,0,0,1,.28.94,11,11,0,0,1,.27,1.59c.12,1.12.23,2.23.35,3.34.19,1.79.24,3.61.34,5.41.09,1.45.13,2.89.18,4.34.06,1.89.18,3.78.18,5.67v-.28c.06,3.44.14,6.88.14,10.31v0c0,3.71,0,7.41,0,11.11.06,2.16,0,4.34,0,6.51,0,2,0,3.9,0,5.85,0,4.13-.07,8.26-.14,12.38-.16,8.38-.25,16.76-.61,25.13-.14,3.45-.25,6.91-.47,10.36s-.38,7.11-.69,10.66-.54,7.08-.92,10.62-.72,7.39-1.2,11.06-.93,7.44-1.42,11.15c-.23,2-.57,4-.86,6s-.53,4.17-.91,6.24c-.71,3.93-1.21,7.9-1.91,11.83-1.5,8.34-3,16.67-4.87,24.93-.72,3.21-1.39,6.44-2.18,9.65-.54,2.23-1.09,4.46-1.63,6.69-.28,1.17-.55,2.34-.86,3.51,0,0,0,0,0-.07-.09.37-.2.74-.3,1.12-.74,2.74-1.49,5.49-2.25,8.23,0-.15.09-.31.13-.46l-.51,1.88.12-.47c-.16.65-.38,1.29-.58,1.93-.44,1.44-.89,2.88-1.33,4.32-.51,1.64-1,3.29-1.55,4.91-1.45,4.14-2.85,8.29-4.43,12.38-.75,2-1.44,3.93-2.25,5.85-1,2.33-1.94,4.66-2.9,7-1.44,3.52-3,7-4.55,10.47q-3,6.48-6,12.92c-1.69,3.56-3.48,7.07-5.28,10.57-3.88,7.58-7.92,15.08-12,22.58-3.21,6-6.43,11.94-9.88,17.78-.06.09-.11.19-.17.29l0,0-.72,1.21.22-.38c-.2.34-.4.68-.59,1l.22-.38-.59,1,.23-.37c-.18.29-.35.58-.52.88l.08-.14-.13.22a.33.33,0,0,0,0,.06h0v0l0,.06,0,0c-4.11,7-8.3,13.87-12.79,20.58-1.06,1.58-2.16,3.13-3.28,4.65s-2.54,2.87-4.5,3a4.25,4.25,0,0,1-2.6-.66,5.24,5.24,0,0,1-1.93-2.6,10,10,0,0,1-.35-3.36,24.76,24.76,0,0,1,.5-3.84,54.74,54.74,0,0,1,1.34-5.66l-.6,1c-2,3.49-4.16,6.93-6.29,10.36-1,1.66-2.09,3.31-3.16,5-.6.92-1.21,1.83-1.86,2.71a8.74,8.74,0,0,1-2,2.12,5.24,5.24,0,0,1-3.28,1,4.9,4.9,0,0,1-2.85-1.07,5.25,5.25,0,0,1-1.59-2.44,11.79,11.79,0,0,1-.49-3.34,41,41,0,0,1,.33-4.57c.26-2.12.6-4.24,1-6.34.84-4.29,1.76-8.58,2.76-12.84q1.14-4.89,2.34-9.77c-3.31,4.34-6.59,8.71-9.87,13.07l-5.25,7q-1.57,2.13-3.14,4.28l-1.38,1.91a12.83,12.83,0,0,1-1.2,1.55,3.9,3.9,0,0,1-1.78,1.08,3.59,3.59,0,0,1-3.48-.7,3.51,3.51,0,0,1-.37-.4c-.54.69-1.07,1.37-1.59,2.06-1.34,1.78-2.77,3.51-4.16,5.26q-1.82,2.28-3.65,4.54-4,4.93-8,9.79c-1.42,1.69-2.83,3.39-4.41,4.93a5.49,5.49,0,0,1-3.67,1.7A3.67,3.67,0,0,1,801.67,1133.64Z"/><path d="M826.13,276.84a.32.32,0,0,1,.18-.27h0a5.82,5.82,0,0,0,.45-.4l0,0c.43-.43.83-.87,1.24-1.32a.32.32,0,0,1,.45,0,.33.33,0,0,1,0,.46c-.36.4-.73.79-1.1,1.18l-.46.43a1.7,1.7,0,0,1-.3.23.57.57,0,0,1-.18,0A.32.32,0,0,1,826.13,276.84Z"/></g></svg>