<svg id="F04E23" xmlns="http://www.w3.org/2000/svg" viewBox="0 0 37 37"><defs><style>.cls-1{fill:#fff;}</style></defs><title>SM2016_03</title><path class="cls-1" d="M18.94,29H17v1.62h1.93C20.28,30.62,20.36,29,18.94,29Z"/><path class="cls-1" d="M18.74,26.23H17v1.51h1.8A.76.76,0,1,0,18.74,26.23Z"/><path class="cls-1" d="M12.33,29H10.4v1.62h1.93C13.66,30.62,13.75,29,12.33,29Z"/><path class="cls-1" d="M12.13,26.23H10.4v1.51h1.8A.76.76,0,1,0,12.13,26.23Z"/><path class="cls-1" d="M25.55,29H23.63v1.62h1.93C26.89,30.62,27,29,25.55,29Z"/><path class="cls-1" d="M25.36,26.23H23.63v1.51h1.8A.76.76,0,1,0,25.36,26.23Z"/><path class="cls-1" d="M18.5,0h0A18.5,18.5,0,0,0,0,18.5H0A18.5,18.5,0,0,0,18.5,37h0A18.5,18.5,0,0,0,37,18.5h0A18.5,18.5,0,0,0,18.5,0ZM16.06,4,18.49.63l.37.26a1.3,1.3,0,0,0,.4,1.88l4.27,3.1a4.08,4.08,0,0,1,.78,5.73l-2.76,3.88-.34-.25a2.26,2.26,0,0,0-.33-2.88l-4-2.93A4.17,4.17,0,0,1,16.06,4Zm-1.64,8.29L16,10.14l.42.3a.73.73,0,0,0,.19,1l2.92,2.13A2.75,2.75,0,0,1,20,17.51l-1.47,2-.42-.31c.24-.38.2-.73-.3-1.09L15,16A2.91,2.91,0,0,1,14.43,12.29ZM12.19,32H9V25h3.22c1.19,0,2.29.48,2.29,1.82a1.62,1.62,0,0,1-.91,1.46c.75.33,1.12.56,1.26,1.48C15.1,31.38,13.6,32,12.19,32Zm6.61,0H16V25h2.84c1.19,0,2.29.48,2.29,1.82a1.62,1.62,0,0,1-.91,1.46c.75.33,1.12.56,1.26,1.48C21.71,31.38,20.21,32,18.81,32Zm2.34-8H15.88l-.57-2H12.09l.42-2h12l.42,2H21.72Zm4.27,8H22V25h3.45c1.19,0,2.28.48,2.28,1.82a1.62,1.62,0,0,1-.91,1.46c.75.33,1.12.56,1.26,1.48C28.32,31.38,26.83,32,25.42,32Z"/></svg>