<svg id="F04E23" xmlns="http://www.w3.org/2000/svg" viewBox="0 0 37 37"><defs><style>.cls-1{fill:#fff;}</style></defs><title>SM2016_03</title><path class="cls-1" d="M37,18.5A18.5,18.5,0,0,0,18.5,0h0A18.5,18.5,0,0,0,0,18.5H0A18.5,18.5,0,0,0,18.5,37h0A18.5,18.5,0,0,0,37,18.5ZM11.67,7.1A7.45,7.45,0,0,1,16.52,6c1,.2,1.57.78,1.58,1.48l.06,9c0,.71-.36,1.35-.81,1.44A1.75,1.75,0,0,1,15.85,17l-4.71-7.7C10.77,8.65,10,8.38,11.67,7.1Zm-3.18,16c-.12-.72,0-4.21,0-4.21.2-1,1-1.61,1.6-1.35l5,2A1.62,1.62,0,0,1,16.17,21a2.06,2.06,0,0,1-1.32,1.45L10.1,24.18A1.34,1.34,0,0,1,8.48,23.12Zm9.79,7.48a1.59,1.59,0,0,1-1.83,1.17L13,30.57a1.49,1.49,0,0,1-.43-2l3.31-4a2.39,2.39,0,0,1,1.68-.9c.48,0,.85.65.84,1.36ZM27.46,26a23.38,23.38,0,0,1-1.87,3.2c-.37.6-1.73.7-2.07.09L20.9,24.46c-.34-.62-.4-1.3-.14-1.52a2.28,2.28,0,0,1,1.7,0L26.6,24.1A1.43,1.43,0,0,1,27.46,26Zm-.52-6.77-4.63.86a1.75,1.75,0,0,1-1.79-.63,1.76,1.76,0,0,1,.27-1.89l2.67-3.19a1.32,1.32,0,0,1,2,0,11.12,11.12,0,0,1,2.19,3C27.81,18,27.78,19,26.94,19.2Z"/></svg>