<svg id="F04E23" xmlns="http://www.w3.org/2000/svg" viewBox="0 0 37 37"><defs><style>.cls-1{fill:#fff;}</style></defs><title>SM2016_03</title><path class="cls-1" d="M15.92,27a8.25,8.25,0,0,1,0,1.12c-.13.36-.72.74-1,0A9.15,9.15,0,0,1,15,27V22.34h-1.6v4.58c0,.7,0,1.22,0,1.46,0,.42,0,.91.42,1.19a2,2,0,0,0,2.46-.83v1h1.29V22.34H15.92Z"/><polygon class="cls-1" points="13.67 21.05 13.67 19.77 8.52 19.76 8.52 21.02 10.13 21.02 10.13 29.7 11.74 29.7 11.74 21.05 13.67 21.05"/><path class="cls-1" d="M20.11,22.62V19.77H18.5v9.86l1.32,0,.12-.61c1.69,1.55,2.76.49,2.76-1.37V23.78C22.69,22.32,21.6,21.44,20.11,22.62ZM21.5,27.9a.72.72,0,0,1-1.41,0V23.59a.72.72,0,0,1,1.41,0Z"/><path class="cls-1" d="M18.22,14.18a.75.75,0,0,0,.71-.79V9.32a.72.72,0,1,0-1.43,0v4.07A.76.76,0,0,0,18.22,14.18Z"/><path class="cls-1" d="M18.5,0A18.5,18.5,0,0,0,0,18.5H0a18.5,18.5,0,0,0,37,0h0A18.5,18.5,0,0,0,18.5,0Zm2.86,7.56h1.48v6a.59.59,0,0,0,1.18,0v-6h1.42v7.64h-1.8l0-.63a1.48,1.48,0,0,1-.45.58,1,1,0,0,1-.62.19,1.12,1.12,0,0,1-.66-.18,1.09,1.09,0,0,1-.39-.49,2.28,2.28,0,0,1-.16-.64c0-.22,0-.66,0-1.32Zm-4.42.08a1.91,1.91,0,0,1,1.22-.38,2.23,2.23,0,0,1,1.07.24,1.79,1.79,0,0,1,.69.63,2.48,2.48,0,0,1,.33.8,6.37,6.37,0,0,1,.09,1.25v1.93a10.56,10.56,0,0,1-.08,1.56,2.47,2.47,0,0,1-.35.93,1.68,1.68,0,0,1-.69.64,2.2,2.2,0,0,1-1,.21,2.7,2.7,0,0,1-1-.17,1.42,1.42,0,0,1-.66-.53,2.35,2.35,0,0,1-.34-.86,8.27,8.27,0,0,1-.1-1.51v-2a6.37,6.37,0,0,1,.18-1.72A1.92,1.92,0,0,1,16.94,7.64ZM12.23,4.55l1.08,3.74,1.07-3.73h1.85l-2,5v5.86h-1.7V9.59l-2.13-5ZM30.1,28.81a3.7,3.7,0,0,1-3.79,3.58H10.7a3.7,3.7,0,0,1-3.8-3.58V20.6A3.7,3.7,0,0,1,10.7,17H26.3A3.7,3.7,0,0,1,30.1,20.6Z"/><path class="cls-1" d="M26.53,27.12s0,.1,0,.16V28a.66.66,0,0,1-.66.65h-.24A.66.66,0,0,1,25,28V26.19h2.77v-1a16.5,16.5,0,0,0-.08-2c-.2-1.38-2.13-1.6-3.11-.89a1.82,1.82,0,0,0-.68.91,5.13,5.13,0,0,0-.21,1.63v2.29c0,3.81,4.63,3.27,4.07,0ZM25,24a.72.72,0,0,1,.72-.72h.1a.72.72,0,0,1,.72.72l0,.89H25Z"/></svg>