<svg id="Layer_1" data-name="Layer 1" xmlns="http://www.w3.org/2000/svg" viewBox="0 0 124 20"><defs><style>.cls-1{fill:#ef4e23;}</style></defs><title>Testimonials_</title><path class="cls-1" d="M3.92,19.27l2.23-6.84L.31,8.19C0,8,0,7.79,0,7.61S.23,7.3.6,7.3H7.81L10,.45C10.15.1,10.3,0,10.5,0s.35.1.46.45l2.22,6.86h7.2c.38,0,.53.13.59.31s0,.37-.28.58l-5.85,4.24,2.23,6.84c.12.36,0,.54-.12.65s-.34.13-.64-.08L10.5,15.58,4.67,19.84c-.29.21-.48.19-.64.08S3.8,19.63,3.92,19.27Z"/><path class="cls-1" d="M29.67,19.27l2.24-6.84L26.06,8.19c-.3-.21-.34-.4-.29-.58s.21-.31.58-.31h7.22L35.78.45c.12-.35.27-.45.47-.45s.35.1.47.45l2.21,6.86h7.21c.38,0,.53.13.58.31s0,.37-.28.58l-5.85,4.24,2.23,6.84c.12.36,0,.54-.11.65s-.35.13-.64-.08l-5.82-4.26-5.83,4.26c-.28.21-.48.19-.63.08S29.55,19.63,29.67,19.27Z"/><path class="cls-1" d="M55.42,19.27l2.24-6.84L51.81,8.19c-.29-.21-.33-.4-.29-.58s.21-.31.59-.31h7.21L61.53.45C61.65.1,61.81,0,62,0s.35.1.47.45l2.21,6.86h7.21c.38,0,.53.13.58.31s0,.37-.28.58l-5.84,4.24,2.23,6.84c.11.36,0,.54-.12.65s-.34.13-.64-.08L62,15.58l-5.82,4.26c-.29.21-.49.19-.64.08S55.3,19.63,55.42,19.27Z"/><path class="cls-1" d="M81.17,19.27l2.24-6.84L77.56,8.19c-.29-.21-.33-.4-.28-.58s.21-.31.58-.31h7.21L87.29.45c.11-.35.27-.45.47-.45s.35.1.46.45l2.22,6.86h7.2c.38,0,.53.13.59.31s0,.37-.28.58L92.1,12.43l2.23,6.84c.12.36,0,.54-.12.65s-.34.13-.64-.08l-5.81-4.26-5.83,4.26c-.29.21-.48.19-.64.08S81.06,19.63,81.17,19.27Z"/><path class="cls-1" d="M106.93,19.27l2.24-6.84-5.85-4.24c-.3-.21-.34-.4-.29-.58s.21-.31.58-.31h7.22L113,.45c.12-.35.27-.45.47-.45s.35.1.47.45l2.21,6.86h7.21c.38,0,.53.13.58.31s0,.37-.28.58l-5.85,4.24,2.23,6.84c.12.36,0,.54-.12.65s-.34.13-.63-.08l-5.82-4.26-5.83,4.26c-.28.21-.48.19-.64.08S106.81,19.63,106.93,19.27Z"/></svg>