<?xml version="1.0" encoding="UTF-8"?>
<svg viewBox="0 0 670.8 119.62" xmlns="http://www.w3.org/2000/svg" xmlns:xlink="http://www.w3.org/1999/xlink">
<defs>
<style>.cls-1{fill:url(#a);}.cls-2{fill:url(#c);}.cls-3{opacity:0.2;}.cls-4{fill:url(#b);}.cls-5,.cls-6,.cls-8{isolation:isolate;}.cls-6,.cls-8{font-size:36px;}.cls-6{fill:#4a4a4a;font-family:AvenirNext-Bold, Avenir Next;font-weight:700;letter-spacing:-0.01em;}.cls-7{letter-spacing:0em;}.cls-8{fill:#ef4e23;font-family:AvenirNext-Regular, Avenir Next;}.cls-9{letter-spacing:-0.02em;}.cls-10{letter-spacing:0em;}.cls-11{letter-spacing:-0.03em;}.cls-12{letter-spacing:-0.02em;}.cls-13{fill:#4e4e50;}.cls-14{fill:#e6e6e5;}.cls-14,.cls-20,.cls-34,.cls-35{stroke:#010101;}.cls-14,.cls-20,.cls-33,.cls-34,.cls-35{stroke-miterlimit:10;stroke-width:0.27px;}.cls-15{fill:#fff;}.cls-16{fill:#ef5126;}.cls-17,.cls-34{fill:#010101;}.cls-18{fill:#f05125;}.cls-19,.cls-28{fill:none;}.cls-19,.cls-28,.cls-33{stroke:#231f20;}.cls-19{stroke-width:0.15px;}.cls-20{fill:#676768;}.cls-21{fill:#414142;}.cls-22{fill:#c6c7c9;}.cls-23{fill:#9c9ea1;}.cls-24{fill:#e6e7e7;}.cls-25{fill:#929497;}.cls-26{fill:#dbdddd;}.cls-27{fill:#231f20;}.cls-28{stroke-width:0.07px;}.cls-29{fill:#f2f2f2;}.cls-30{fill:#323031;}.cls-31{fill:#595a5c;}.cls-32{fill:#bbbdbf;}.cls-33,.cls-35{fill:#b3b4b4;}</style>
<linearGradient id="a" x1="212.23" x2="670.8" y1="70.95" y2="70.95" gradientUnits="userSpaceOnUse">
<stop stop-color="#fff" stop-opacity=".9" offset="0"/>
<stop stop-color="#fff" stop-opacity=".89" offset=".3"/>
<stop stop-color="#fff" stop-opacity=".86" offset=".44"/>
<stop stop-color="#fff" stop-opacity=".81" offset=".55"/>
<stop stop-color="#fff" stop-opacity=".74" offset=".64"/>
<stop stop-color="#fff" stop-opacity=".65" offset=".72"/>
<stop stop-color="#fff" stop-opacity=".53" offset=".79"/>
<stop stop-color="#fff" stop-opacity=".39" offset=".86"/>
<stop stop-color="#fff" stop-opacity=".23" offset=".93"/>
<stop stop-color="#fff" stop-opacity=".06" offset=".98"/>
<stop stop-color="#fff" stop-opacity="0" offset="1"/>
</linearGradient>
<linearGradient id="c" x1="220.46" x2="546.29" y1="37.47" y2="37.47" xlink:href="#a"/>
<linearGradient id="b" x1="15.52" x2="231.01" y1="117.62" y2="117.62" gradientUnits="userSpaceOnUse">
<stop stop-color="#fff" offset="0"/>
<stop stop-opacity="0" offset="1"/>
</linearGradient>
</defs>
<title>Line_Truck-01</title>
<g data-name="Layer 12">
<rect class="cls-1" x="212.23" y="54.9" width="458.56" height="32.1"/>
<rect class="cls-2" x="220.46" y="20.27" width="325.83" height="34.41"/>
</g>
<g class="cls-3">
<rect x="72.98" y="39.2" width="19.8" height="47.58"/>
<path transform="translate(-218.97 -15.33)" d="M454.85,47.47H354L325.88,32a1.31,1.31,0,0,0-1.55.25l-.05.07h0a.83.83,0,0,0-.14.32,3.25,3.25,0,0,0-1.4-.63l-9.16-2.26V46.64h8.69a3.58,3.58,0,0,0,1.08-.16,3.06,3.06,0,0,0,1.82-1.41,2.39,2.39,0,0,0,.11-2.1l-1.84-3.88a2.1,2.1,0,0,1,.71-2.59,2.61,2.61,0,0,0,.93-1.38,2.23,2.23,0,0,0-.06-1.28l24.73,13.62H313.57v54.64H454.85V47.47Z"/>
<path transform="translate(-218.97 -15.33)" d="M423.79,103.82H422v2.06H407.11a19.67,19.67,0,0,0-13.8,0h-30.7v-2.57h-49v2.57H284.18l-.72-4.24-1.62-2.21h1.86c.32,0,.59,0,.59-.43V94.07a7.7,7.7,0,0,1,.75-2.62,7.52,7.52,0,0,0,.63-2.86V85.42c0-.12.22-.24.45-.37s.79-.44.79-.84a8.14,8.14,0,0,1,.8-2.74,1.88,1.88,0,0,0,.3-1.16V80c0-3.78,0-6.63-.05-8.47-.1-3.43-1.25-10-3.4-13.22l-.15-.23c-.51-.84-1.22-2-5.5-2.2-4.78-.25-9.86-.25-12-.25-8,0-13.13.08-15.6.25a9.92,9.92,0,0,0-6,2.8h0l-.05,0-.72.75c-1.13,1.2-2.27,2.58-3.38,4a121,121,0,0,0-8,11.78c-6.49,10.73-6.68,13.56-6.68,13.85v.06h0c0,1.85,0,7.74,0,9,.05,1.57.3,5.94.81,7.24s1.37,2.12,2.42,2.12h1.1v.57H220.06a1.18,1.18,0,0,0-.87.27,1.06,1.06,0,0,0-.17,1,39,39,0,0,0,1.21,5A14,14,0,0,0,221.5,117h0c.22.31.39.55,1.4.55h9.55a1.3,1.3,0,0,0,1-.39h.41l1.08-1.36v-.51l13.27.49h.06l.61-1.64h.24a.72.72,0,0,0,.48-.22l0,.12h.76c.24,0,.56-.23.78-.7l.22.09a12.56,12.56,0,0,0-1.37,5.68,13.36,13.36,0,0,0,5,10.23,18.44,18.44,0,0,0,12,4.25h0c9.38,0,17-6.49,17-14.48a12.48,12.48,0,0,0-.94-4.71l1-.13v.51h.76c.33.88.64,1.77.91,2.65l0,0h1.14v0a11.78,11.78,0,0,0,.18-2.65h26.57v6.31h49v-6.31H384a12.62,12.62,0,0,0-.78,4.33c0,8,7.63,14.48,17,14.48s17-6.49,17-14.48a12.62,12.62,0,0,0-.78-4.33H422v4.65h1.83v-4.65h30.54v-8.89H423.79Z"/>
</g>
<ellipse class="cls-4" cx="123.26" cy="117.62" rx="107.74" ry="2"/>
<g class="cls-5" data-name="Stress free On time on budget">
<text class="cls-6" transform="translate(243.39 48.92)">S<tspan class="cls-7" x="20.81" y="0">TRESS FREE</tspan></text>
<text class="cls-8" transform="translate(243.39 82.92)">ON<tspan class="cls-9" x="58.1" y="0"></tspan><tspan class="cls-10" x="66.24" y="0">TIME</tspan><tspan class="cls-11" x="149.33" y="0">,</tspan><tspan x="157.61" y="0" xml:space="preserve"> ON BUDGE</tspan><tspan class="cls-12" x="358.77" y="0">T</tspan></text>
</g>
<g data-name="Truck">
<rect class="cls-13" x="66.41" y="86.78" width="164.98" height="9.98" data-name="Rectangle 213"/>
<rect class="cls-14" x="95.15" y="20.32" width="136.69" height="61.96" data-name="Rectangle 214"/>
<rect class="cls-14" x="74.2" y="28.35" width="18.92" height="53.92" data-name="Rectangle 215"/>
<rect class="cls-14" x="75.38" y="29.54" width="16.56" height="51.56" data-name="Rectangle 216"/>
<path class="cls-15" transform="translate(-218.97 -15.33)" d="M268.73,44.88c-9.38,0-13.31.14-15.12.28a9,9,0,0,0-5.78,3.22c-1.67,2-6.1,7.87-11.73,18.84S229.63,82.06,229.63,83s0,8.74,0,10.26.27,6.7.79,8.23,1.25,2.36,2.26,2.36h3.65s.25,5.24.46,6.34a.63.63,0,0,0,.65.56c.23,0,13.74.64,14,.64s.65-.37.83-1.06a41.28,41.28,0,0,1,4.63-9.8,12.21,12.21,0,0,1,11.11-5.88h17c.32,0,.49,0,.49-.41V88.58a9.71,9.71,0,0,1,.74-3,10.26,10.26,0,0,0,.6-3.24V78.73c0-.41,1.2-.64,1.2-1.38a10.63,10.63,0,0,1,.78-3.15,2.24,2.24,0,0,0,.28-1.29c0-.37.05-6.43,0-10s-1.13-11.24-3.29-15c-.56-1-.93-2.46-5.41-2.73s-9.25-.27-11.66-.27" data-name="Path 3156"/>
<circle class="cls-16" cx="147.6" cy="38.14" r="5.34" data-name="Ellipse 30"/>
<path class="cls-17" transform="translate(-218.97 -15.33)" d="M343.63,39.55h2.78c3,0,4.07.5,4.07,4v4.15c0,2.2-.65,3.51-4.07,3.51h-2.78Zm2.71,10c1.31,0,1.43-.49,1.43-1.61V43.11c0-1.55-.07-1.89-1.43-1.89Z" data-name="Path 3157"/>
<path class="cls-17" transform="translate(-218.97 -15.33)" d="M353.78,46.8v1.9c0,.55.2.9.53.9s.54-.34.54-.9V47.49h2.58v1.38c0,1.76-1.3,2.43-3.12,2.43-1.64,0-3.11-.75-3.11-2.46V44.35c0-1.68,1.11-2.62,3.11-2.62,1.66,0,3.12.62,3.12,2.62v2.46Zm1.07-1.55V44a.53.53,0,0,0-.48-.59.54.54,0,0,0-.59.49.17.17,0,0,0,0,.1v1.27Z" data-name="Path 3158"/>
<path class="cls-17" transform="translate(-218.97 -15.33)" d="M358.15,45.14v-.87c0-1.87,1.57-2.54,3.12-2.54s3.12.67,3.12,2.54v6.89h-2.58V50.08h0A1.83,1.83,0,0,1,360,51.29a1.7,1.7,0,0,1-1.83-1.57,1.93,1.93,0,0,1,0-.34V48c0-2.46,3.66-2.15,3.66-3.88,0-.38-.12-.69-.54-.69s-.54.31-.54.69v1Zm2.58,2.63v1a.46.46,0,0,0,.42.49h.07c.54,0,.6-.36.6-1.19V46.46c-.52.36-1.09.57-1.09,1.31Z" data-name="Path 3159"/>
<path class="cls-17" transform="translate(-218.97 -15.33)" d="M367.7,51.18h-2.58V39.55h2.58Z" data-name="Path 3160"/>
<path class="cls-16" transform="translate(-218.97 -15.33)" d="M325.15,39.55v8.67c0,1.6-.52,3.19-3.45,3.19-1.06,0-3.39-.35-3.39-2.85V46.69H321v1.69c0,.62,0,1.18.7,1.18s.7-.57.7-1.18V39.55Z" data-name="Path 3161"/>
<path class="cls-16" transform="translate(-218.97 -15.33)" d="M334,41.73A1.73,1.73,0,0,0,332.16,43h0V41.84h-2.6v6.48c0,.41-.06.85-.55.85s-.52-.44-.52-.85V41.84h-2.58v7.31c0,1.34.58,2.14,1.74,2.14A1.75,1.75,0,0,0,329.49,50h0v1.16h2.6V44.7c0-.41.06-.85.56-.85s.52.44.52.85v6.48h2.57V43.86C335.78,42.52,335.19,41.73,334,41.73Z" data-name="Path 3162"/>
<path class="cls-16" transform="translate(-218.97 -15.33)" d="m339.09 46.1 1.33-4.26h2.58l-1.53 4.16 1.61 5.16h-2.62l-1.32-4.89v4.88h-2.58v-11.6h2.58z" data-name="Path 3163"/>
<path class="cls-17" transform="translate(-218.97 -15.33)" d="M366.69,53.15v-.59c0-.18-.05-.34-.27-.34s-.25.16-.25.34V55c0,.18.05.34.25.34s.27-.16.27-.34v-.73h1v.57c0,.8-.43,1.18-1.27,1.18a1.12,1.12,0,0,1-1.26-1,1.4,1.4,0,0,1,0-.29V52.8a1.12,1.12,0,0,1,.93-1.27,1.09,1.09,0,0,1,.36,0c.73,0,1.27.22,1.27,1.14v.49Z" data-name="Path 3164"/>
<path class="cls-17" transform="translate(-218.97 -15.33)" d="M370.48,52.8v2a1.26,1.26,0,0,1-2.52,0v-2a1.26,1.26,0,0,1,2.52,0ZM369,52.58V55c0,.17.05.34.26.34s.26-.17.26-.34V52.56c0-.18-.05-.34-.26-.34s-.26.16-.26.34Z" data-name="Path 3165"/>
<path class="cls-17" transform="translate(-218.97 -15.33)" d="M372.22,51.62l.42,3h0l.41-3h1.44V55.9h-.9V52.24h0L373,55.9h-.88l-.58-3.66h0V55.9h-.8V51.62Z" data-name="Path 3166"/>
<circle class="cls-17" cx="142.3" cy="38.45" r="1.49" data-name="Ellipse 31"/>
<path class="cls-17" transform="translate(-218.97 -15.33)" d="M319.55,53.37c0-.26-.18-.37-.53-.37s-.49.11-.49.31.11.23.35.27l.44.09c.42.08.61.2.61.54s-.3.62-.86.62-.9-.25-.9-.73h.3c0,.31.21.47.63.47s.54-.13.54-.34-.1-.24-.34-.28l-.49-.09c-.38-.07-.57-.22-.57-.52s.29-.6.84-.6.78.22.78.62Z" data-name="Path 3167"/>
<path class="cls-17" transform="translate(-218.97 -15.33)" d="M320.67,53.52a.69.69,0,0,1,.57-.26A.76.76,0,0,1,322,54a.77.77,0,0,1-.77.78h0a.7.7,0,0,1-.57-.26v.74h-.26v-2h.26Zm0,.52a.54.54,0,1,0,.53-.54h0a.49.49,0,0,0-.52.46A.11.11,0,0,0,320.67,54Z" data-name="Path 3168"/>
<path class="cls-17" transform="translate(-218.97 -15.33)" d="M323,54.81c-.37,0-.56-.17-.56-.44s.26-.41.68-.46.49,0,.49-.2-.12-.23-.39-.23-.43.09-.45.3h-.27c0-.34.25-.52.7-.52s.67.13.67.5v.6c0,.15,0,.22.14.22h.08v.2h-.22c-.15,0-.22-.08-.25-.24A.76.76,0,0,1,323,54.81Zm.17-.69c-.29,0-.45.06-.45.24s.12.23.33.23.56-.17.56-.36V54a1.34,1.34,0,0,1-.44.1Z" data-name="Path 3169"/>
<path class="cls-17" transform="translate(-218.97 -15.33)" d="M325.64,53.79a.41.41,0,0,0-.43-.29.53.53,0,0,0-.08,1.06h.06a.41.41,0,0,0,.46-.34h.28a.71.71,0,0,1-.75.59.78.78,0,0,1-.08-1.56h.08a.69.69,0,0,1,.73.54Z" data-name="Path 3170"/>
<path class="cls-17" transform="translate(-218.97 -15.33)" d="M326.6,54.09a.5.5,0,0,0,.49.5h0a.44.44,0,0,0,.47-.25h.31a.81.81,0,1,1-1.54-.53.81.81,0,0,1,.73-.54.72.72,0,0,1,.8.64v.19Zm1-.18a.52.52,0,0,0-.63-.39.52.52,0,0,0-.39.39Z" data-name="Path 3171"/>
<path class="cls-17" transform="translate(-218.97 -15.33)" d="M329.7,53.56a.74.74,0,0,1,.6-.3.49.49,0,0,1,.52.32.77.77,0,0,1,.62-.32c.45,0,.56.26.56.67v.84h-.26v-.85c0-.3-.09-.44-.35-.44a.53.53,0,0,0-.55.5v.79h-.25v-.85c0-.3-.09-.44-.35-.44a.53.53,0,0,0-.55.5v.79h-.26V53.3h.26Z" data-name="Path 3172"/>
<path class="cls-17" transform="translate(-218.97 -15.33)" d="M333.08,54.81c-.37,0-.56-.17-.56-.44s.25-.41.67-.46.49,0,.49-.2-.12-.23-.39-.23-.44.09-.45.3h-.28c0-.34.26-.52.71-.52s.67.13.67.5v.6c0,.15,0,.22.13.22h.08v.2h-.21c-.15,0-.22-.08-.25-.24A.76.76,0,0,1,333.08,54.81Zm.16-.69c-.29,0-.44.06-.44.24s.11.23.32.23.57-.17.57-.36V54a1.46,1.46,0,0,1-.45.1Z" data-name="Path 3173"/>
<path class="cls-17" transform="translate(-218.97 -15.33)" d="M334.9,52.93v.37h.36v.22h-.36v.87c0,.12,0,.17.18.17h.18v.21H335c-.26,0-.38-.11-.38-.33v-.91h-.26V53.3h.26v-.38Z" data-name="Path 3174"/>
<path class="cls-17" transform="translate(-218.97 -15.33)" d="M336.05,52.93v.37h.39v.22h-.37v.87c0,.12.05.17.18.17h.19v.21h-.25c-.26,0-.38-.11-.38-.33v-.91h-.26V53.3h.26v-.38Z" data-name="Path 3175"/>
<path class="cls-17" transform="translate(-218.97 -15.33)" d="M337,54.09a.5.5,0,0,0,.49.5h0a.44.44,0,0,0,.49-.25h.31a.81.81,0,1,1-.77-1,.73.73,0,0,1,.8.65v.18Zm1-.18a.51.51,0,0,0-.62-.39.52.52,0,0,0-.39.39Z" data-name="Path 3176"/>
<path class="cls-17" transform="translate(-218.97 -15.33)" d="M339.06,53.55a.66.66,0,0,1,.54-.3h.12v.28a.64.64,0,0,0-.2,0,.49.49,0,0,0-.46.52h0v.75h-.27V53.3h.27Z" data-name="Path 3177"/>
<path class="cls-17" transform="translate(-218.97 -15.33)" d="M341.11,53.74c0-.18-.16-.26-.43-.26s-.38.07-.38.2.11.17.33.21l.32,0c.33.05.46.15.46.42s-.24.45-.73.45-.68-.15-.71-.49h.29c0,.19.17.3.42.3s.47-.09.47-.22-.09-.15-.27-.18l-.33-.06c-.34-.06-.52-.13-.52-.4s.23-.49.66-.49.67.17.67.49Z" data-name="Path 3178"/>
<path class="cls-17" transform="translate(-218.97 -15.33)" d="M342,54.44h.33v.33H342Z" data-name="Path 3179"/>
<path class="cls-17" transform="translate(-218.97 -15.33)" d="M345.54,53a1.2,1.2,0,0,1,0,1.62,1.27,1.27,0,0,1-.83.18H344v-2h.72A1.33,1.33,0,0,1,345.54,53Zm-1.44-.11v1.83h.6a1.29,1.29,0,0,0,.72-.15,1.09,1.09,0,0,0,0-1.53,1.29,1.29,0,0,0-.77-.15Z" data-name="Path 3180"/>
<path class="cls-17" transform="translate(-218.97 -15.33)" d="M347.05,54.81a.76.76,0,0,1-.3-1.48.76.76,0,0,1,.3,0,.72.72,0,0,1,.77.66v.09h-1.44a.63.63,0,0,0,.58.67h.09a.56.56,0,0,0,.57-.34h.13a.66.66,0,0,1-.7.4Zm.66-.83a.6.6,0,0,0-.6-.6h-.06a.64.64,0,0,0-.67.6h1.33Z" data-name="Path 3181"/>
<path class="cls-17" transform="translate(-218.97 -15.33)" d="M349.68,54.31a.64.64,0,0,1-.69.5.72.72,0,0,1-.75-.68V54a.69.69,0,0,1,.64-.74H349c.37,0,.64.18.68.42h-.11a.57.57,0,0,0-.58-.35.63.63,0,0,0-.66.6V54a.64.64,0,0,0,.59.69H349a.59.59,0,0,0,.59-.41Z" data-name="Path 3182"/>
<path class="cls-17" transform="translate(-218.97 -15.33)" d="M350.16,52.8h.09v2h-.09Z" data-name="Path 3183"/>
<path class="cls-17" transform="translate(-218.97 -15.33)" d="M352.17,54.77h-.08v-.4a.6.6,0,0,1-.16.25.75.75,0,0,1-.54.18c-.39,0-.54-.15-.54-.52v-.94h.09v.81c0,.4.08.58.49.58a.64.64,0,0,0,.66-.62v-.77h.08Z" data-name="Path 3184"/>
<path class="cls-17" transform="translate(-218.97 -15.33)" d="M353.16,54.73l.15,0v.08a.48.48,0,0,1-.2,0c-.2,0-.25-.1-.25-.37v-1h-.27v-.08h.27v-.49H353v.49h.35v.08H353v1C353,54.59,353,54.73,353.16,54.73Z" data-name="Path 3185"/>
<path class="cls-17" transform="translate(-218.97 -15.33)" d="M354.09,54.73l.15,0v.08a.51.51,0,0,1-.2,0c-.2,0-.25-.1-.25-.37v-1h-.27v-.08h.27v-.49h.09v.49h.35v.08h-.35v1C353.88,54.59,353.9,54.73,354.09,54.73Z" data-name="Path 3186"/>
<path class="cls-17" transform="translate(-218.97 -15.33)" d="M355.31,54.81a.76.76,0,1,1,0-1.48.71.71,0,0,1,.76.66v.09h-1.44a.63.63,0,0,0,.58.67h.09a.57.57,0,0,0,.57-.34H356A.66.66,0,0,1,355.31,54.81ZM356,54a.6.6,0,0,0-.6-.6h-.05a.65.65,0,0,0-.68.6H356Z" data-name="Path 3187"/>
<path class="cls-17" transform="translate(-218.97 -15.33)" d="M356.56,54.77V53.34h.09v.38a.49.49,0,0,1,.5-.41.36.36,0,0,1,.2,0v.09a.41.41,0,0,0-.21,0c-.28,0-.47.36-.47.63v.76Z" data-name="Path 3188"/>
<path class="cls-18" transform="translate(-218.97 -15.33)" d="M406.64,35.76l25.92,25.92-3.24,1.16a2.9,2.9,0,0,1-3-.69l-26.4-26.39Z" data-name="Path 3189"/>
<path class="cls-18" transform="translate(-218.97 -15.33)" d="M397.68,35.76,423.6,61.68l-3.24,1.16a2.9,2.9,0,0,1-3-.69L391,35.76Z" data-name="Path 3190"/>
<path class="cls-18" transform="translate(-218.97 -15.33)" d="M388.77,35.76l25.92,25.92-3.24,1.16a2.9,2.9,0,0,1-3-.69L382,35.76Z" data-name="Path 3191"/>
<path class="cls-18" transform="translate(-218.97 -15.33)" d="M415.57,35.76l25.92,25.92-3.24,1.16a2.88,2.88,0,0,1-3-.69L408.84,35.76Z" data-name="Path 3192"/>
<path class="cls-15" transform="translate(-218.97 -15.33)" d="M405.79,39.85l1,1-.24.24-1.32-1.3,2.05-2.06.28.28Z" data-name="Path 3193"/>
<path class="cls-15" transform="translate(-218.97 -15.33)" d="M407.1,41.67l-.28-.27,2.05-2,.28.28Z" data-name="Path 3194"/>
<path class="cls-15" transform="translate(-218.97 -15.33)" d="M409.12,44l-.08-.55a1.58,1.58,0,1,1,1.81-1.31,1.62,1.62,0,0,1-.4.82,1.67,1.67,0,0,1-1.1.49l.07.49Zm.13-1.37.06.47a1.28,1.28,0,0,0,.86-.41,1,1,0,0,0-1.65-1.2,1,1,0,0,0,.1,1.32,1,1,0,0,0,.37.24l-.05-.38Z" data-name="Path 3195"/>
<path class="cls-15" transform="translate(-218.97 -15.33)" d="M413.42,43.9l-1.32,1.33a1.06,1.06,0,0,1-1.49.07l-.11-.12a1,1,0,0,1-.19-1.38.86.86,0,0,1,.13-.14l1.38-1.37.27.28-1.29,1.29a.75.75,0,0,0,1.05,1.08h0l1.31-1.31Z" data-name="Path 3196"/>
<path class="cls-15" transform="translate(-218.97 -15.33)" d="M412.08,46.65l-.28-.28,2.05-2,.27.27Z" data-name="Path 3197"/>
<path class="cls-15" transform="translate(-218.97 -15.33)" d="M414.54,45l.83.83a1.25,1.25,0,0,1,0,1.76.52.52,0,0,1-.11.1,1.3,1.3,0,0,1-1.82.27l-.1-.09-.82-.82ZM413,47.1l.54.54c.36.35.87.31,1.39-.21s.53-1,.16-1.39l-.52-.49Z" data-name="Path 3198"/>
<path class="cls-15" transform="translate(-218.97 -15.33)" d="M415.44,48.82l-.81.38-.28-.28,2.81-1.28.32.31-1.31,2.79-.3-.3.4-.8Zm1,.49.6-1.2h0l-1.23.57Z" data-name="Path 3199"/>
<path class="cls-15" transform="translate(-218.97 -15.33)" d="M417.05,51.62l-.28-.27,1.8-1.8-.69-.68.25-.24,1.66,1.66-.25.25-.69-.7Z" data-name="Path 3200"/>
<path class="cls-15" transform="translate(-218.97 -15.33)" d="M418.26,52.84l-.27-.28,2.06-2.05.27.28Z" data-name="Path 3201"/>
<path class="cls-15" transform="translate(-218.97 -15.33)" d="m419.56 54.22a1.53 1.53 0 1 1 2.15-0.17 0.34 0.34 0 0 1-0.08 0.09 1.39 1.39 0 0 1-2 0.19 1.14 1.14 0 0 1-0.07-0.11zm1.89-1.9a1.19 1.19 0 1 0 0 1.39 1.18 1.18 0 0 0 0-1.39z" data-name="Path 3202"/>
<path class="cls-15" transform="translate(-218.97 -15.33)" d="M424.33,54.81l.27.27-2.05,2-.31-.31.61-2.69h0l-1.66,1.64-.27-.28,2.08-2,.32.33-.63,2.68h0Z" data-name="Path 3203"/>
<path class="cls-15" transform="translate(-218.97 -15.33)" d="M399.39,39.93a.76.76,0,0,0-.15-1,1,1,0,0,0-1.39.05.39.39,0,0,0-.08.1c-.54.53-.69,1-.17,1.53a.83.83,0,0,0,1.14,0l.27.26a1.22,1.22,0,0,1-1.7-.08,1.32,1.32,0,0,1,0-1.87,1.07,1.07,0,0,1,.16-.14,1.35,1.35,0,0,1,1.9-.23l.13.11a1.12,1.12,0,0,1,.17,1.52Z" data-name="Path 3204"/>
<path class="cls-15" transform="translate(-218.97 -15.33)" d="M399.09,42l1,1-.25.25L398.57,42l2.05-2,.28.27Z" data-name="Path 3205"/>
<path class="cls-15" transform="translate(-218.97 -15.33)" d="M401.66,45.06l-1.52-1.52,2.05-2L403.67,43l-.25.24L402.21,42l-.6.6,1.12,1.12-.24.25-1.13-1.1-.71.7,1.24,1.24Z" data-name="Path 3206"/>
<path class="cls-15" transform="translate(-218.97 -15.33)" d="M402.94,45.14l-.81.38-.29-.28L404.66,44l.32.32-1.32,2.78-.3-.3.4-.8Zm1,.49.6-1.2h0l-1.23.57Z" data-name="Path 3207"/>
<path class="cls-15" transform="translate(-218.97 -15.33)" d="M407.32,46.62l.27.27-2,2-.31-.31.61-2.7h0l-1.65,1.65-.27-.26L406,45.26l.32.32-.63,2.68h0Z" data-name="Path 3208"/>
<path class="cls-15" transform="translate(-218.97 -15.33)" d="m407.61 51.11a1.53 1.53 0 1 1 2.15-0.17l-0.08 0.09a1.41 1.41 0 0 1-2 0.17zm1.9-1.91a1 1 0 1 0 0 1.44 1 1 0 0 0 0-1.44z" data-name="Path 3209"/>
<path class="cls-15" transform="translate(-218.97 -15.33)" d="M412.67,52l-1.35,1.35a1.07,1.07,0,0,1-1.49.06l-.11-.12a1,1,0,0,1-.18-1.38l.13-.14L411,50.35l.27.27L410,51.91A.75.75,0,0,0,411.07,53l1.3-1.3Z" data-name="Path 3210"/>
<path class="cls-15" transform="translate(-218.97 -15.33)" d="M411.82,55.22l-.28-.28,1.8-1.8-.67-.69.25-.25,1.66,1.66-.25.25-.69-.7Z" data-name="Path 3211"/>
<path class="cls-15" transform="translate(-218.97 -15.33)" d="M415.45,56a.63.63,0,0,0-.05-.89l0,0c-.18-.18-.52-.43-.83-.12s-.14.31.19.83c.49.78.49,1.06.16,1.41-.49.49-1.07.17-1.42-.19a1,1,0,0,1-.26-1.37l.15-.16.26.25a.69.69,0,0,0,0,1l.08.06c.2.2.59.5.88.2s.24-.33-.28-1.13c-.28-.43-.39-.77-.06-1.1a.88.88,0,0,1,1.25,0l.08.1c.72.71.36,1.22.15,1.48Z" data-name="Path 3212"/>
<path class="cls-15" transform="translate(-218.97 -15.33)" d="M389,41.23l-1.52-1.52,2.06-2L391,39.14l-.24.25-1.22-1.22-.6.6,1.14,1.14-.25.24L388.68,39l-.71.72L389.21,41Z" data-name="Path 3213"/>
<path class="cls-15" transform="translate(-218.97 -15.33)" d="M390.54,41.58l-.7-.7.2-.21.7.7Z" data-name="Path 3214"/>
<path class="cls-15" transform="translate(-218.97 -15.33)" d="M390.92,43.19l-.29-.29,1.51-2.58.3.3-1.28,2h0l2.12-1.2.3.3-1.21,2.12h0l2-1.29.31.31-2.57,1.54-.29-.29L393.09,42h0Z" data-name="Path 3215"/>
<path class="cls-15" transform="translate(-218.97 -15.33)" d="M393.74,44.81l-.82.38-.28-.28,2.82-1.28.31.31-1.3,2.79-.3-.3.39-.8Zm1,.49.6-1.21h0l-1.23.58Z" data-name="Path 3216"/>
<path class="cls-15" transform="translate(-218.97 -15.33)" d="M397.34,46.71a.63.63,0,0,0-.06-.89l0,0c-.18-.18-.52-.43-.83-.12s-.14.3.19.83c.49.78.49,1.06.16,1.4-.49.5-1.07.17-1.42-.18a1,1,0,0,1-.25-1.38,1.07,1.07,0,0,1,.14-.16l.26.26a.67.67,0,0,0,0,1,.23.23,0,0,0,.07.07c.2.2.59.49.89.2s.23-.34-.28-1.13c-.29-.44-.4-.78-.07-1.1a.87.87,0,0,1,1.24,0l.09.1c.71.71.36,1.21.15,1.45Z" data-name="Path 3217"/>
<path class="cls-15" transform="translate(-218.97 -15.33)" d="M397.34,49.61l-.27-.28,1.8-1.8-.7-.7.25-.24,1.67,1.66-.25.25-.69-.7Z" data-name="Path 3218"/>
<path class="cls-15" transform="translate(-218.97 -15.33)" d="M399.79,52.06l-1.51-1.51,2.05-2L401.8,50l-.24.24L400.38,49l-.6.6,1.09,1.12-.25.24-1.11-1.13-.71.71L400,51.82Z" data-name="Path 3219"/>
<path class="cls-15" transform="translate(-218.97 -15.33)" d="M417.18,38.48l-1.5,1.5a.76.76,0,0,1-1.07.12.34.34,0,0,1-.12-.12.71.71,0,0,1-.16-1l.08-.1.2-.2.26.27-.14.14a.39.39,0,0,0-.09.55.24.24,0,0,0,.09.08.42.42,0,0,0,.59.09.24.24,0,0,0,.08-.09l1.52-1.51Z" data-name="Path 3220"/>
<path class="cls-15" transform="translate(-218.97 -15.33)" d="M419.2,40.51l-1.32,1.33a1.06,1.06,0,0,1-1.5.06.52.52,0,0,1-.1-.11,1,1,0,0,1-.19-1.38.86.86,0,0,1,.13-.14l1.37-1.38.27.28-1.29,1.29a.75.75,0,0,0,1.05,1.07l1.3-1.3Z" data-name="Path 3221"/>
<path class="cls-15" transform="translate(-218.97 -15.33)" d="M421,42.28l.26.27-2,2.05-.31-.31.61-2.7h0l-1.65,1.65-.26-.27,2.05-2,.32.33-.64,2.7h0Z" data-name="Path 3222"/>
<path class="cls-15" transform="translate(-218.97 -15.33)" d="M421,44.24h2l.38.38-1.68,0-.35,2.1-.35-.36.31-1.74h-.63l-.72.72L419.6,45,421.66,43l.28.27Z" data-name="Path 3223"/>
<path class="cls-15" transform="translate(-218.97 -15.33)" d="M422.59,48l-.28-.28,2.05-2.05.94,1c.34.33.56.8.12,1.22a.7.7,0,0,1-.77.21.52.52,0,0,1-.13.64l-.37.37a.25.25,0,0,0-.09.31l-.05,0-.34-.34a3.58,3.58,0,0,1,.47-.56.45.45,0,0,0,.11-.62.57.57,0,0,0-.11-.11l-.67-.67Zm1.11-1.12.64.65c.2.2.47.36.77,0a.43.43,0,0,0,.07-.62l-.09-.08-.69-.69Z" data-name="Path 3224"/>
<path class="cls-15" transform="translate(-218.97 -15.33)" d="M425.84,51.24l-1.51-1.51,2-2.06,1.48,1.48-.25.25-1.21-1.22-.6.6,1.15,1.14-.25.24-1.12-1.11-.7.71L426.1,51Z" data-name="Path 3225"/>
<path class="cls-15" transform="translate(-218.97 -15.33)" d="M428.64,49.94l-1.15,2.31h0l2.31-1.15.39.4-2,2-.27-.26,1.21-1.21c.06-.07.33-.32.52-.5h0l-2.3,1.14-.28-.27,1.15-2.29h0l-.49.49-1.25,1.21-.26-.26,2-2.05Z" data-name="Path 3226"/>
<path class="cls-15" transform="translate(-218.97 -15.33)" d="M429.43,54.93a1.53,1.53,0,1,1,2-2.33,1.54,1.54,0,0,1,.18,2.16l-.09.09a1.41,1.41,0,0,1-2,.18A.47.47,0,0,1,429.43,54.93ZM431.36,53a1.19,1.19,0,1,0-.26,1.66l.14-.11a1,1,0,0,0,.21-1.44Z" data-name="Path 3227"/>
<path class="cls-15" transform="translate(-218.97 -15.33)" d="M434.06,55.36l.31.31-2.8,1.3-.3-.3,1.3-2.8.31.31-1.16,2.33h0Z" data-name="Path 3228"/>
<path class="cls-15" transform="translate(-218.97 -15.33)" d="M433.3,57.5l-.81.39-.29-.29L435,56.33l.32.31L434,59.43l-.3-.3.4-.8Zm1,.49.6-1.2h0l-1.23.57Z" data-name="Path 3229"/>
<path class="cls-15" transform="translate(-218.97 -15.33)" d="M434.8,59.69l1,1-.24.25-1.33-1.28,2.05-2,.28.28Z" data-name="Path 3230"/>
<path class="cls-17" transform="translate(-218.97 -15.33)" d="M321.68,70.47c-1.25,0-1.78-.69-1.78-2.3s.59-2.39,1.87-2.39c1,0,1.47.5,1.52,1v.07h-.36v-.06c-.07-.41-.54-.69-1.18-.69-1,0-1.48.67-1.48,1.92v.2a1.71,1.71,0,0,1,1.57-.76,1.43,1.43,0,0,1,1.61,1.24,2.44,2.44,0,0,1,0,.27C323.46,69.9,322.79,70.47,321.68,70.47Zm.1-2.71c-.87,0-1.43.49-1.43,1.21a1.21,1.21,0,0,0,1.23,1.19h.12a1.23,1.23,0,0,0,1.37-1.06.66.66,0,0,0,0-.14A1.18,1.18,0,0,0,322,67.74h-.17Z" data-name="Path 3231"/>
<path class="cls-17" transform="translate(-218.97 -15.33)" d="M326.37,70.48a1.51,1.51,0,0,1-1.65-1.19v-.08h.37v.06a1.21,1.21,0,0,0,1.31.89,1.34,1.34,0,0,0,1.43-1.25v0c0-.76-.49-1.2-1.39-1.2a1.45,1.45,0,0,0-1.24.56h-.35l.42-2.46h2.62v.32h-2.33l-.29,1.63a2,2,0,0,1,1.28-.39c1,0,1.66.56,1.66,1.48a1.65,1.65,0,0,1-1.61,1.69Z" data-name="Path 3232"/>
<path class="cls-17" transform="translate(-218.97 -15.33)" d="m331.16 70.47c-1.15 0-1.73-0.79-1.73-2.34s0.58-2.35 1.73-2.35 1.74 0.79 1.74 2.35-0.59 2.34-1.74 2.34zm0-4.36c-1.13 0-1.37 1.1-1.37 2s0.24 2 1.37 2 1.37-1.1 1.37-2-0.23-2-1.37-2z" data-name="Path 3233"/>
<rect class="cls-17" x="115.83" y="54.62" width=".43" height=".45" data-name="Rectangle 217"/>
<path class="cls-17" transform="translate(-218.97 -15.33)" d="M338.56,70.47c-1,0-1.47-.49-1.52-1v-.07h.35v.06c.08.42.55.69,1.19.69,1,0,1.48-.67,1.48-1.91v-.2a1.61,1.61,0,0,1-1.57.78,1.45,1.45,0,0,1-1.61-1.28,1.85,1.85,0,0,1,0-.23c0-.95.65-1.51,1.77-1.51s1.78.68,1.78,2.29S339.84,70.47,338.56,70.47Zm.07-4.37a1.23,1.23,0,0,0-1.37,1.07.57.57,0,0,0,0,.13,1.17,1.17,0,0,0,1.13,1.21h.17c.87,0,1.43-.49,1.43-1.2a1.21,1.21,0,0,0-1.2-1.21Z" data-name="Path 3234"/>
<path class="cls-17" transform="translate(-218.97 -15.33)" d="M343.32,70.47c-1,0-1.47-.49-1.52-1v-.07h.35v.06c.07.42.54.69,1.19.69,1,0,1.47-.67,1.47-1.91v-.2a1.61,1.61,0,0,1-1.57.78,1.44,1.44,0,0,1-1.61-1.25,2.35,2.35,0,0,1,0-.26c0-.95.65-1.51,1.77-1.51s1.78.68,1.78,2.29S344.6,70.47,343.32,70.47Zm.07-4.37A1.24,1.24,0,0,0,342,67.17s0,.09,0,.13a1.17,1.17,0,0,0,1.14,1.21h.16c.87,0,1.43-.49,1.43-1.2a1.21,1.21,0,0,0-1.2-1.21Z" data-name="Path 3235"/>
<path class="cls-17" transform="translate(-218.97 -15.33)" d="M348.19,70.48a1.51,1.51,0,0,1-1.65-1.19v-.08h.37v.06a1.21,1.21,0,0,0,1.31.89,1.33,1.33,0,0,0,1.42-1.25v0c0-.76-.5-1.2-1.4-1.2a1.46,1.46,0,0,0-1.24.56h-.36l.42-2.46h2.62v.32h-2.34l-.29,1.63a2.07,2.07,0,0,1,1.29-.39c1,0,1.66.56,1.66,1.48a1.64,1.64,0,0,1-1.56,1.69Z" data-name="Path 3236"/>
<rect class="cls-17" x="133.2" y="54.62" width=".43" height=".45" data-name="Rectangle 218"/>
<path class="cls-17" transform="translate(-218.97 -15.33)" d="M355.06,70.39v-.08a9.22,9.22,0,0,1,2-4.23h-3v-.31h3.44V66h0a9.15,9.15,0,0,0-2.1,4.26v.06Z" data-name="Path 3237"/>
<path class="cls-17" transform="translate(-218.97 -15.33)" d="M360.48,70.48a1.51,1.51,0,0,1-1.66-1.19v-.08h.38v.06a1.21,1.21,0,0,0,1.31.89,1.34,1.34,0,0,0,1.42-1.25v0c0-.76-.49-1.2-1.39-1.2a1.46,1.46,0,0,0-1.24.56h-.36l.41-2.46H362v.32h-2.33l-.29,1.63a2,2,0,0,1,1.28-.39c1,0,1.66.56,1.66,1.48a1.63,1.63,0,0,1-1.55,1.69Z" data-name="Path 3238"/>
<path class="cls-17" transform="translate(-218.97 -15.33)" d="m365.27 70.47c-1.15 0-1.74-0.79-1.74-2.34s0.59-2.35 1.74-2.35 1.73 0.79 1.73 2.35-0.56 2.34-1.73 2.34zm0-4.36c-1.14 0-1.38 1.1-1.38 2s0.24 2 1.38 2 1.37-1.1 1.37-2-0.24-2-1.37-2z" data-name="Path 3239"/>
<path class="cls-17" transform="translate(-218.97 -15.33)" d="M370,70.47c-1.16,0-1.74-.79-1.74-2.34s.58-2.35,1.74-2.35,1.73.79,1.73,2.35S371.18,70.47,370,70.47Zm0-4.36c-1.14,0-1.38,1.1-1.38,2s.24,2,1.38,2,1.37-1.1,1.37-2-.24-2-1.37-2Z" data-name="Path 3240"/>
<rect class="cls-16" x="95.21" y="77.36" width="133.96" height="4.73" data-name="Rectangle 219"/>
<path class="cls-15" transform="translate(-218.97 -15.33)" d="M318,93.55h1.59c.7,0,1.07.29,1.07.82a.72.72,0,0,1-.49.74c.33.06.43.18.49.72s0,.64.14.73h-.5a2.61,2.61,0,0,1-.08-.57c0-.59-.13-.73-.62-.73h-1.12v1.32H318Zm.43,1.37h1c.55,0,.82-.13.82-.5s-.27-.49-.86-.49h-.94Z" data-name="Path 3241"/>
<path class="cls-15" transform="translate(-218.97 -15.33)" d="M322.49,93.55h2.39v.39h-2v.88h1.85v.39h-1.85v1h2v.42h-2.42Z" data-name="Path 3242"/>
<path class="cls-15" transform="translate(-218.97 -15.33)" d="M328.71,94.42c0-.38-.29-.56-.81-.56s-.79.18-.79.5.17.33.53.41l.67.13c.63.11.93.31.93.81s-.45,1-1.31,1-1.37-.38-1.37-1.1H327c0,.49.33.7.95.7s.83-.2.83-.5-.16-.36-.51-.42l-.74-.14c-.59-.1-.88-.34-.88-.8s.44-.91,1.27-.91,1.2.35,1.2,1Z" data-name="Path 3243"/>
<path class="cls-15" transform="translate(-218.97 -15.33)" d="M331.52,96.58h-.43v-3h.43Z" data-name="Path 3244"/>
<path class="cls-15" transform="translate(-218.97 -15.33)" d="M333.48,93.55H335a1.36,1.36,0,0,1,1.54,1.14,1.45,1.45,0,0,1,0,.36c0,1.1-.7,1.51-1.72,1.51h-1.31Zm.43,2.62h1c.75,0,1.14-.3,1.14-1.12s-.39-1.11-1.14-1.11h-1Z" data-name="Path 3245"/>
<path class="cls-15" transform="translate(-218.97 -15.33)" d="M338.27,93.55h2.4v.39h-2v.88h1.85v.39h-1.85v1h2v.42h-2.44Z" data-name="Path 3246"/>
<path class="cls-15" transform="translate(-218.97 -15.33)" d="M343.06,93.55l1.9,2.57V93.55h.41v3h-.57L342.9,94v2.57h-.41v-3Z" data-name="Path 3247"/>
<path class="cls-15" transform="translate(-218.97 -15.33)" d="M349.71,93.55v.39h-1.15v2.64h-.43V94H347v-.4Z" data-name="Path 3248"/>
<path class="cls-15" transform="translate(-218.97 -15.33)" d="M351.74,96.58h-.43v-3h.43Z" data-name="Path 3249"/>
<path class="cls-15" transform="translate(-218.97 -15.33)" d="M354.8,93.55h.44l1.36,3h-.44l-.39-.86h-1.53l-.4.86h-.46Zm.78,1.76L355,94l-.61,1.28Z" data-name="Path 3250"/>
<path class="cls-15" transform="translate(-218.97 -15.33)" d="M358.59,96.17h1.85v.41h-2.27v-3h.42Z" data-name="Path 3251"/>
<path class="cls-15" transform="translate(-218.97 -15.33)" d="M367.25,96.58l-.39-.38a1.49,1.49,0,0,1-1.14.46c-.68,0-1.13-.4-1.13-.88s.28-.74.82-.93a.83.83,0,0,1-.36-.64c0-.39.29-.65.77-.65s.77.25.77.62a.82.82,0,0,1-.57.73l.79.74a1,1,0,0,0,.13-.5h.37a1.22,1.22,0,0,1-.22.74l.72.68Zm-1.61-1.51c-.42.2-.62.36-.62.64a.73.73,0,0,0,.8.58,1.07,1.07,0,0,0,.77-.33Zm.56-.85c0-.2-.14-.32-.38-.32s-.37.13-.37.3.11.3.32.49c.29-.15.43-.29.43-.49Z" data-name="Path 3252"/>
<path class="cls-15" transform="translate(-218.97 -15.33)" d="M373.36,96.64a1.59,1.59,0,1,1-.2-3.17h.2a1.35,1.35,0,0,1,1.47,1.18h-.44a1,1,0,0,0-1.05-.78,1.19,1.19,0,0,0-.14,2.37h.14a1,1,0,0,0,1.07-.85h.45A1.4,1.4,0,0,1,373.36,96.64Z" data-name="Path 3253"/>
<path class="cls-15" transform="translate(-218.97 -15.33)" d="m378.11 93.47a1.59 1.59 0 1 1-1.65 1.58 1.51 1.51 0 0 1 1.4-1.59zm0 2.77a1.19 1.19 0 1 0-1.21-1.19 1.1 1.1 0 0 0 1 1.19 0.67 0.67 0 0 0 0.21 0z" data-name="Path 3254"/>
<path class="cls-15" transform="translate(-218.97 -15.33)" d="M382.18,93.55l1.16,2.62,1.2-2.62h.63v3h-.42V93.93l-1.2,2.65h-.43l-1.18-2.65v2.65h-.41v-3Z" data-name="Path 3255"/>
<path class="cls-15" transform="translate(-218.97 -15.33)" d="M387.73,93.55l1.17,2.62,1.19-2.62h.63v3h-.41V93.93l-1.2,2.65h-.44l-1.17-2.65v2.65h-.4v-3Z" data-name="Path 3256"/>
<path class="cls-15" transform="translate(-218.97 -15.33)" d="M392.65,93.55h2.4v.39h-2v.88h1.85v.39h-1.85v1h2v.42h-2.44Z" data-name="Path 3257"/>
<path class="cls-15" transform="translate(-218.97 -15.33)" d="M396.87,93.55h1.58c.7,0,1.07.29,1.07.82a.7.7,0,0,1-.52.74c.33.06.45.18.5.72s0,.64.13.73h-.49a2.12,2.12,0,0,1-.07-.57c0-.59-.14-.73-.63-.73h-1.12v1.32h-.43Zm.43,1.37h1c.56,0,.82-.13.82-.5s-.27-.49-.85-.49h-.95Z" data-name="Path 3258"/>
<path class="cls-15" transform="translate(-218.97 -15.33)" d="M402.88,96.64a1.59,1.59,0,0,1-.19-3.17h.19a1.36,1.36,0,0,1,1.48,1.18h-.44a1,1,0,0,0-1.06-.78A1.2,1.2,0,0,0,401.61,95a1.19,1.19,0,0,0,1.12,1.25h.13a1,1,0,0,0,1.08-.85h.45a1.41,1.41,0,0,1-1.51,1.25Z" data-name="Path 3259"/>
<path class="cls-15" transform="translate(-218.97 -15.33)" d="M406.61,96.58h-.43v-3h.43Z" data-name="Path 3260"/>
<path class="cls-15" transform="translate(-218.97 -15.33)" d="M409.67,93.55h.44l1.34,3H411l-.39-.86h-1.53l-.4.88h-.45Zm.78,1.76L409.87,94l-.61,1.28Z" data-name="Path 3261"/>
<path class="cls-15" transform="translate(-218.97 -15.33)" d="M413.47,96.17h1.84v.41H413v-3h.43Z" data-name="Path 3262"/>
<path class="cls-15" transform="translate(-218.97 -15.33)" d="M420,94.74h1.84v-1.2h.43v3h-.43V95.15H420v1.42h-.42v-3H420Z" data-name="Path 3263"/>
<path class="cls-15" transform="translate(-218.97 -15.33)" d="M425.31,93.55h.44l1.34,3h-.45l-.38-.86h-1.54l-.4.86h-.45Zm.78,1.76L425.51,94l-.61,1.28Z" data-name="Path 3264"/>
<path class="cls-15" transform="translate(-218.97 -15.33)" d="M429,93.55v1.71c0,.66.28,1,.9,1s.91-.32.91-1V93.55h.43v1.89c0,.78-.46,1.2-1.33,1.2s-1.34-.42-1.34-1.2V93.55Z" data-name="Path 3265"/>
<path class="cls-15" transform="translate(-218.97 -15.33)" d="M433.61,96.17h1.84v.41h-2.27v-3h.43Z" data-name="Path 3266"/>
<path class="cls-15" transform="translate(-218.97 -15.33)" d="M437.56,96.58h-.43v-3h.43Z" data-name="Path 3267"/>
<path class="cls-15" transform="translate(-218.97 -15.33)" d="M440.1,93.55l1.9,2.57V93.55h.41v3h-.57L439.94,94v2.57h-.41v-3Z" data-name="Path 3268"/>
<path class="cls-15" transform="translate(-218.97 -15.33)" d="M445.74,93.87a1.19,1.19,0,0,0-1.11,1.26,1.17,1.17,0,0,0,1.11,1.11,1,1,0,0,0,1.11-.9h-1V95h1.35v1.63H447l0-.49a1.29,1.29,0,0,1-1.17.58,1.59,1.59,0,0,1,.05-3.17,1.31,1.31,0,0,1,1.43,1h-.44A1,1,0,0,0,445.74,93.87Z" data-name="Path 3269"/>
<path class="cls-17" transform="translate(-218.97 -15.33)" d="M258.77,82a1.73,1.73,0,0,1,.32,0,.58.58,0,0,1,.4.12.39.39,0,0,1,.11.27.44.44,0,0,1-.11.29.6.6,0,0,1-.43.14.67.67,0,0,1-.2,0v.56h-.1Zm.1.69a.67.67,0,0,0,.2,0c.28,0,.43-.13.43-.34s-.19-.32-.41-.32a.81.81,0,0,0-.22,0Z" data-name="Path 3270"/>
<path class="cls-17" transform="translate(-218.97 -15.33)" d="M260,81.93v.79c0,.38.19.52.42.52s.43-.15.43-.52v-.79h.1v.79c0,.44-.25.61-.55.61s-.49-.15-.49-.6v-.8Z" data-name="Path 3271"/>
<path class="cls-17" transform="translate(-218.97 -15.33)" d="M262.34,83.25a1,1,0,0,1-.43.08.68.68,0,0,1-.73-.63v-.07a.73.73,0,0,1,.73-.72h0a.9.9,0,0,1,.37.07l0,.08A.93.93,0,0,0,262,82a.62.62,0,0,0-.68.55.33.33,0,0,0,0,.1.59.59,0,0,0,.58.61h.07a.73.73,0,0,0,.36-.08Z" data-name="Path 3272"/>
<path class="cls-17" transform="translate(-218.97 -15.33)" d="M263.8,82.08h0l-.21.12v-.08l.24-.14h.1V83.3h-.1Z" data-name="Path 3273"/>
<path class="cls-17" transform="translate(-218.97 -15.33)" d="M264.7,83.24a.54.54,0,0,0,.18,0,.59.59,0,0,0,.32-.17.76.76,0,0,0,.18-.41h0a.46.46,0,0,1-.38.18.38.38,0,0,1-.41-.37v0a.49.49,0,0,1,.49-.49h0c.23,0,.43.18.43.57a.83.83,0,0,1-.25.63.74.74,0,0,1-.32.16h-.21ZM265,82a.35.35,0,0,0-.33.38h0a.31.31,0,0,0,.3.32s0,0,0,0a.39.39,0,0,0,.35-.18.06.06,0,0,0,0-.06c0-.26-.1-.49-.35-.49Z" data-name="Path 3274"/>
<path class="cls-17" transform="translate(-218.97 -15.33)" d="M266.31,83.33c-.22,0-.43-.2-.44-.68s.24-.7.49-.7.44.22.44.67S266.62,83.33,266.31,83.33Zm0-.08c.25,0,.36-.25.36-.62s-.1-.6-.35-.6-.35.24-.35.6.14.62.34.62Z" data-name="Path 3275"/>
<path class="cls-17" transform="translate(-218.97 -15.33)" d="M267.7,82.08h0l-.22.12v-.08l.25-.14h.1V83.3h-.1Z" data-name="Path 3276"/>
<path class="cls-17" transform="translate(-218.97 -15.33)" d="M269.31,82.07h-.54l-.07.42h.15a.67.67,0,0,1,.24,0,.39.39,0,0,1,.24.36.45.45,0,0,1-.44.45h-.05a.52.52,0,0,1-.34-.09l0-.08a.55.55,0,0,0,.3.09.35.35,0,0,0,.37-.33h0c0-.17-.12-.33-.41-.33h-.22l.09-.6h.62Z" data-name="Path 3277"/>
<path class="cls-17" transform="translate(-218.97 -15.33)" d="M270.53,82.05h-.17a.63.63,0,0,0-.49.57h0a.44.44,0,0,1,.38-.2.4.4,0,0,1,.43.38v0a.45.45,0,0,1-.43.46h0a.5.5,0,0,1-.5-.5.13.13,0,0,1,0-.06.81.81,0,0,1,.24-.6.79.79,0,0,1,.39-.19h.14Zm-.3,1.2a.35.35,0,0,0,.34-.36v0a.33.33,0,0,0-.31-.35h-.05a.41.41,0,0,0-.33.2.14.14,0,0,0,0,.09c0,.24.12.44.37.44Z" data-name="Path 3278"/>
<path class="cls-17" transform="translate(-218.97 -15.33)" d="M261,85.69a.94.94,0,0,1-.43.08.67.67,0,0,1-.72-.63.15.15,0,0,1,0-.07.72.72,0,0,1,.72-.72h.06a.94.94,0,0,1,.37.07l0,.09a.75.75,0,0,0-.33-.07A.62.62,0,0,0,260,85v.09a.6.6,0,0,0,.59.62h.06a.79.79,0,0,0,.37-.07Z" data-name="Path 3279"/>
<path class="cls-17" transform="translate(-218.97 -15.33)" d="M261.43,85.27l-.19.49h-.1l.54-1.38h.1l.57,1.38h-.11l-.19-.49Zm.58-.09-.2-.49c0-.07-.05-.14-.07-.22h0a.81.81,0,0,1-.07.22l-.2.49Z" data-name="Path 3280"/>
<path class="cls-17" transform="translate(-218.97 -15.33)" d="M263.6,85.6a.62.62,0,0,0,.32.09.32.32,0,0,0,.37-.3c0-.23-.23-.31-.43-.31h-.1V85h.1c.17,0,.36-.08.36-.26s-.07-.24-.28-.24a.56.56,0,0,0-.28.1l-.05-.07a.6.6,0,0,1,.34-.11c.28,0,.38.17.38.31a.34.34,0,0,1-.26.31h0a.37.37,0,0,1,.32.35c0,.19-.15.39-.5.39a.59.59,0,0,1-.34-.1Z" data-name="Path 3281"/>
<path class="cls-17" transform="translate(-218.97 -15.33)" d="M264.79,85.76v-.07l.13-.11c.44-.41.58-.57.58-.77a.28.28,0,0,0-.26-.31h-.05a.48.48,0,0,0-.32.13l0-.07a.54.54,0,0,1,.38-.15.36.36,0,0,1,.39.34v0c0,.26-.2.46-.58.81l-.1.08h.72v.1Z" data-name="Path 3282"/>
<path class="cls-17" transform="translate(-218.97 -15.33)" d="M266,85.76v-.07l.13-.11c.44-.41.58-.57.58-.77a.28.28,0,0,0-.26-.31h-.05a.48.48,0,0,0-.32.13l0-.07a.54.54,0,0,1,.38-.15.36.36,0,0,1,.39.34,0,0,0,0,1,0,0c0,.26-.2.46-.58.81l-.1.08h.72v.09Z" data-name="Path 3283"/>
<path class="cls-17" transform="translate(-218.97 -15.33)" d="M267.71,84.4a.36.36,0,0,1,.39.3v0a.33.33,0,0,1-.25.31h0c.2.07.3.19.3.34a.42.42,0,0,1-.44.39h0c-.25,0-.46-.13-.46-.36a.37.37,0,0,1,.3-.35h0a.34.34,0,0,1-.24-.3.37.37,0,0,1,.4-.35h0Zm0,1.29a.3.3,0,0,0,.35-.26v0c0-.19-.14-.28-.39-.33s-.31.17-.31.31a.31.31,0,0,0,.32.31h0Zm0-1.21a.27.27,0,0,0-.3.24v0c0,.15.12.24.33.28a.32.32,0,0,0,.27-.29.26.26,0,0,0-.26-.25h0Z" data-name="Path 3284"/>
<path class="cls-17" transform="translate(-218.97 -15.33)" d="M268.51,85.76v-.07l.13-.11c.44-.41.58-.57.58-.77a.27.27,0,0,0-.25-.31h-.07a.48.48,0,0,0-.31.13l0-.07a.53.53,0,0,1,.37-.15.36.36,0,0,1,.4.34s0,0,0,0c0,.26-.2.46-.58.81l-.09.08h.71v.09Z" data-name="Path 3285"/>
<path class="cls-17" transform="translate(-218.97 -15.33)" d="M270.37,85.76v-.39h-.7V85.3l.71-.87h.08v.83h.22v.09h-.22v.41Zm0-.47v-.72h0l-.1.13-.5.59h.6Z" data-name="Path 3286"/>
<path class="cls-17" transform="translate(-218.97 -15.33)" d="M255.64,86.82v.79c0,.38.19.52.42.52s.44-.15.44-.52v-.79h.1v.79a.53.53,0,0,1-.55.61c-.29,0-.49-.15-.49-.6v-.8Z" data-name="Path 3287"/>
<path class="cls-17" transform="translate(-218.97 -15.33)" d="M256.91,88a.67.67,0,0,0,.34.1c.22,0,.35-.12.35-.29s-.08-.25-.31-.32-.38-.2-.38-.38a.37.37,0,0,1,.4-.35h0a.55.55,0,0,1,.3.07l0,.08a.54.54,0,0,0-.27-.07c-.25,0-.33.15-.33.26s.09.23.31.3.38.18.38.4-.13.38-.49.38a.75.75,0,0,1-.36-.1Z" data-name="Path 3288"/>
<path class="cls-17" transform="translate(-218.97 -15.33)" d="M258.47,86.84a2.83,2.83,0,0,1,.41,0,.83.83,0,0,1,.64.22.66.66,0,0,1,.17.45.73.73,0,0,1-.19.49.88.88,0,0,1-.67.23h-.36Zm.1,1.27a1.31,1.31,0,0,0,.28,0c.52,0,.74-.29.74-.64s-.21-.59-.71-.59a1.53,1.53,0,0,0-.3,0Z" data-name="Path 3289"/>
<path class="cls-17" transform="translate(-218.97 -15.33)" d="M260.53,88.22a.68.68,0,0,1-.69-.66v0a.69.69,0,0,1,.66-.72h0a.68.68,0,0,1,.68.66v0a.67.67,0,0,1-.64.72Zm0-.08a.63.63,0,0,0,.68-.58.64.64,0,0,0-.58-.68.63.63,0,0,0-.68.58v.06a.58.58,0,0,0,.55.62Z" data-name="Path 3290"/>
<path class="cls-17" transform="translate(-218.97 -15.33)" d="M261.73,86.9h-.49v-.08h1.12v.08h-.49v1.32h-.1Z" data-name="Path 3291"/>
<path class="cls-17" transform="translate(-218.97 -15.33)" d="M263.8,87h0l-.21.12V87l.24-.14h.1v1.34h-.1Z" data-name="Path 3292"/>
<path class="cls-17" transform="translate(-218.97 -15.33)" d="M265.09,88.22v-.39h-.7v-.1l.73-.86h.07v.86h.22v.08h-.22v.41Zm0-.47V87h0a.64.64,0,0,1-.1.13l-.49.58h.59Z" data-name="Path 3293"/>
<path class="cls-17" transform="translate(-218.97 -15.33)" d="M266.32,86.93h-.17a.63.63,0,0,0-.49.57h0a.44.44,0,0,1,.38-.2.41.41,0,0,1,.43.38v0a.46.46,0,0,1-.44.47h0a.51.51,0,0,1-.5-.51.13.13,0,0,1,0-.06.81.81,0,0,1,.24-.6.79.79,0,0,1,.38-.18h.15Zm-.3,1.2a.35.35,0,0,0,.34-.35v0a.33.33,0,0,0-.31-.35H266a.38.38,0,0,0-.33.2.11.11,0,0,0,0,.08c0,.25.13.45.37.45Z" data-name="Path 3294"/>
<path class="cls-17" transform="translate(-218.97 -15.33)" d="M267.25,88.22v-.39h-.7v-.11l.71-.87h.08v.87h.23v.09h-.22v.41Zm0-.47v-.57a.38.38,0,0,1,0-.15h0a.64.64,0,0,1-.1.13l-.49.58h.59Z" data-name="Path 3295"/>
<path class="cls-17" transform="translate(-218.97 -15.33)" d="M267.85,88.13H268a.53.53,0,0,0,.32-.17.71.71,0,0,0,.19-.41h0a.47.47,0,0,1-.38.19.39.39,0,0,1-.41-.38v0a.5.5,0,0,1,.47-.5c.23,0,.43.18.43.56a.84.84,0,0,1-.25.64.62.62,0,0,1-.3.18.67.67,0,0,1-.2,0Zm.31-1.2a.36.36,0,0,0-.34.38h0a.31.31,0,0,0,.31.32h0a.39.39,0,0,0,.35-.18V87.4c0-.26-.1-.49-.35-.49Z" data-name="Path 3296"/>
<path class="cls-17" transform="translate(-218.97 -15.33)" d="M268.84,88a.57.57,0,0,0,.32.09c.31,0,.36-.21.36-.3s-.23-.31-.43-.31H269v-.09h.11c.16,0,.36-.08.36-.26s-.07-.24-.28-.24a.63.63,0,0,0-.29.1l0-.07a.6.6,0,0,1,.34-.11c.28,0,.37.17.37.31a.33.33,0,0,1-.26.31h0a.36.36,0,0,1,.32.35c0,.19-.14.39-.49.39a.59.59,0,0,1-.34-.1Z" data-name="Path 3297"/>
<path class="cls-17" transform="translate(-218.97 -15.33)" d="M270.67,87h-.55l-.06.43a.33.33,0,0,1,.14,0,.69.69,0,0,1,.25,0,.37.37,0,0,1,.23.36.45.45,0,0,1-.44.45h-.05a.55.55,0,0,1-.33-.09l0-.08a.53.53,0,0,0,.3.09.34.34,0,0,0,.36-.32v0c0-.18-.12-.33-.41-.33a.74.74,0,0,0-.21,0l.08-.6h.63Z" data-name="Path 3298"/>
<rect class="cls-19" x="66.41" y="86.78" width="164.98" height="9.98" data-name="Rectangle 220"/>
<rect class="cls-20" x="95.15" y="83.91" width="47.28" height="19.97" data-name="Rectangle 221"/>
<rect class="cls-14" x="95.62" y="84.38" width="46.33" height="19.03" data-name="Rectangle 222"/>
<path class="cls-21" transform="translate(-218.97 -15.33)" d="M236.49,114.15c0-.69-.49-7.87-.54-8.54s-.26-1-1-1h-1.1v-.82h2.46s.24,5.24.46,6.34a.63.63,0,0,0,.65.56h.23v2.6l-1,1.52h-.41a1,1,0,0,0,.25-.64" data-name="Path 3299"/>
<path class="cls-19" transform="translate(-218.97 -15.33)" d="M236.49,114.15c0-.69-.49-7.87-.54-8.54s-.26-1-1-1h-1.1v-.82h2.46s.24,5.24.46,6.34a.63.63,0,0,0,.65.56h.23v2.6l-1,1.52h-.41A1,1,0,0,0,236.49,114.15Z" data-name="Path 3300"/>
<path class="cls-19" transform="translate(-218.97 -15.33)" d="M268.73,44.88c-9.38,0-13.31.14-15.12.28a9,9,0,0,0-5.78,3.22c-1.67,2-6.1,7.87-11.73,18.84S229.63,82.06,229.63,83s0,8.74,0,10.26.27,6.7.79,8.23,1.25,2.36,2.26,2.36h3.65s.25,5.24.46,6.34a.63.63,0,0,0,.65.56c.23,0,13.74.64,14,.64s.65-.37.83-1.06a41.28,41.28,0,0,1,4.63-9.8,12.21,12.21,0,0,1,11.11-5.88h17c.32,0,.49,0,.49-.41V88.58a9.71,9.71,0,0,1,.74-3,10.26,10.26,0,0,0,.6-3.24V78.73c0-.41,1.2-.64,1.2-1.38a10.63,10.63,0,0,1,.78-3.15,2.24,2.24,0,0,0,.28-1.29c0-.37.05-6.43,0-10s-1.13-11.24-3.29-15c-.56-1-.93-2.46-5.41-2.73S271.14,44.88,268.73,44.88Z" data-name="Path 3301"/>
<path class="cls-13" transform="translate(-218.97 -15.33)" d="M284.73,97.21l-1.64-2.6h-4s.07,2.35.07,2.61-.35.33-.59.33h-9.29c-6.75,0-8.42,1.5-10.77,3.38s-4.83,8.68-5,9.35a.88.88,0,0,1,0,.15l.26.12a16.46,16.46,0,0,1,30.64,1.11l1.08-.17v-9.38h.06Z" data-name="Path 3302"/>
<path class="cls-19" transform="translate(-218.97 -15.33)" d="M284.73,97.21l-1.64-2.6h-4s.07,2.35.07,2.61-.35.33-.59.33h-9.29c-6.75,0-8.42,1.5-10.77,3.38s-4.83,8.68-5,9.35a.88.88,0,0,1,0,.15l.26.12a16.46,16.46,0,0,1,30.64,1.11l1.08-.17v-9.38h.06Z" data-name="Path 3303"/>
<path class="cls-15" transform="translate(-218.97 -15.33)" d="M279.07,94.61h-11a12.28,12.28,0,0,0-11.15,5.87,42.05,42.05,0,0,0-4.63,9.8l-.27,1h.64c.21,0,.56-.26.77-.94s2.68-7.48,5-9.35,4-3.38,10.77-3.38h9.29c.24,0,.59-.07.59-.33s-.07-2.61-.07-2.61" data-name="Path 3304"/>
<path class="cls-19" transform="translate(-218.97 -15.33)" d="M279.07,94.61h-11a12.28,12.28,0,0,0-11.15,5.87,42.05,42.05,0,0,0-4.63,9.8l-.27,1h.64c.21,0,.56-.26.77-.94s2.68-7.48,5-9.35,4-3.38,10.77-3.38h9.29c.24,0,.59-.07.59-.33S279.07,94.61,279.07,94.61Z" data-name="Path 3305"/>
<path class="cls-19" transform="translate(-218.97 -15.33)" d="M253.46,110.28c.22-.72,2.82-7.87,5.3-9.87s4.25-3.58,11.37-3.58h9" data-name="Path 3306"/>
<path class="cls-19" transform="translate(-218.97 -15.33)" d="M284.88,94.55v-5.9c0-1.39,1.15-3.7,1.15-5.83s-.14-25.85-1.71-35.1a2.91,2.91,0,0,0-2.95-2.27c-1.93-.09-25.3-.14-27.24,0a9.27,9.27,0,0,0-5.9,3.24C246.75,50.49,234.79,69,232,80.63c-.32,1.31-1.15,2.35-1.7,2.35a3.25,3.25,0,0,1-.7,0" data-name="Path 3307"/>
<path class="cls-22" transform="translate(-218.97 -15.33)" d="M229.61,82.94a3.29,3.29,0,0,0,.7,0c.56,0,1.39-1,1.7-2.35,2.78-11.61,14.71-30.15,16.19-32l-.37-.28c-1.66,2-6.1,7.87-11.75,18.82S229.61,82,229.61,82.94" data-name="Path 3308"/>
<path class="cls-19" transform="translate(-218.97 -15.33)" d="M229.61,82.94a3.29,3.29,0,0,0,.7,0c.56,0,1.39-1,1.7-2.35,2.78-11.61,14.71-30.15,16.19-32l-.37-.28c-1.66,2-6.1,7.87-11.75,18.82S229.61,82.06,229.61,82.94Z" data-name="Path 3309"/>
<path class="cls-19" transform="translate(-218.97 -15.33)" d="M254.44,49.13c-1.84,0-3.88.24-6,3.15a113.82,113.82,0,0,0-7,12.12c-1.24,2.59-2.59,6.8-2.59,7.87v8.36c0,2,1,3.1,2.64,3.1h5.11A7.2,7.2,0,0,0,252,81.42c2.22-2.08,7.59-7,9-7.87A9.73,9.73,0,0,1,266,72.11h11.19c2.31,0,4.07-.49,4.07-2.73S281,54.45,281,53s-.6-4-4.21-4S256.52,49.13,254.44,49.13Z" data-name="Path 3310"/>
<path class="cls-23" transform="translate(-218.97 -15.33)" d="M246.67,82.9h-5.13c-1.28,0-2-.7-2-2.27V72.27a31.66,31.66,0,0,1,2.53-7.59,114,114,0,0,1,6.93-12c1.9-2.66,3.67-2.88,5.46-2.88l8.1,0H263c5.45,0,11.62-.06,13.69-.06,2.3,0,2.88,1.08,2.95,3.4.05,1.41-.08,14.14-.22,16.32-.11,1.67-1.13,1.86-2.33,1.86H266A11.23,11.23,0,0,0,259.9,73c-1.52,1-6.64,5.95-8.65,7.83s-3.29,2-4.58,2" data-name="Path 3311"/>
<path class="cls-19" transform="translate(-218.97 -15.33)" d="M246.67,82.9h-5.13c-1.28,0-2-.7-2-2.27V72.27a31.66,31.66,0,0,1,2.53-7.59,114,114,0,0,1,6.93-12c1.9-2.66,3.67-2.88,5.46-2.88l8.1,0H263c5.45,0,11.62-.06,13.69-.06,2.3,0,2.88,1.08,2.95,3.4.05,1.41-.08,14.14-.22,16.32-.11,1.67-1.13,1.86-2.33,1.86H266A11.23,11.23,0,0,0,259.9,73c-1.52,1-6.64,5.95-8.65,7.83S248,82.9,246.67,82.9Z" data-name="Path 3312"/>
<path class="cls-22" transform="translate(-218.97 -15.33)" d="M279.15,53.22c-.08-2.34-.69-3-2.62-3l-13.52,0h-.53l-8,0c-1.75,0-3.35.2-5.14,2.72a112.53,112.53,0,0,0-6.76,11.71V82.4h4.22c1.24,0,2.41-.15,4.31-1.93l1.4-1.32a93.94,93.94,0,0,1,7.2-6.46,11.53,11.53,0,0,1,6.15-1.81h11c1.26,0,1.91-.24,2-1.53.14-2.15.26-14.72.21-16.11" data-name="Path 3313"/>
<path class="cls-19" transform="translate(-218.97 -15.33)" d="m279.15 53.22c-0.08-2.34-0.69-3-2.62-3h-13.52-0.53-8c-1.75 0-3.35 0.2-5.14 2.72a112.53 112.53 0 0 0-6.76 11.71v17.75h4.22c1.24 0 2.41-0.15 4.31-1.93l1.4-1.32a93.94 93.94 0 0 1 7.2-6.46 11.53 11.53 0 0 1 6.15-1.81h11c1.26 0 1.91-0.24 2-1.53 0.22-2.16 0.33-14.73 0.29-16.13z" data-name="Path 3314"/>
<path class="cls-19" transform="translate(-218.97 -15.33)" d="M242.54,64.82a32,32,0,0,0-2.46,7.38v8.27c0,1.32.53,1.93,1.68,1.93h.85V64.69Z" data-name="Path 3315"/>
<path class="cls-19" transform="translate(-218.97 -15.33)" d="M282,47.93H255.65c-3.34,0-5.74.7-8.05,3.94s-8.36,14.71-9.8,18-1.53,7.77-1.62,10.67,0,12.59,0,12.59h46.75s.1-4.43.1-15.4S282,47.93,282,47.93Z" data-name="Path 3316"/>
<line class="cls-19" x1="62.99" x2="66.83" y1="32.6" y2="32.6" data-name="Line 15"/>
<line class="cls-19" x1="17.61" x2="15.05" y1="59.18" y2="59.18" data-name="Line 16"/>
<line class="cls-19" x1="17.48" x2="35.44" y1="89.49" y2="89.49" data-name="Line 17"/>
<path class="cls-24" transform="translate(-218.97 -15.33)" d="M236.07,93.32h-6c-.17,0-.19.12-.19.33s.16,3.88.52,6.3.91,3.58,2.46,3.58h3.2Z" data-name="Path 3317"/>
<path class="cls-19" transform="translate(-218.97 -15.33)" d="M236.07,93.32h-6c-.17,0-.19.12-.19.33s.16,3.88.52,6.3.91,3.58,2.46,3.58h3.2Z" data-name="Path 3318"/>
<line class="cls-19" x1="17.07" x2="37.51" y1="88.2" y2="88.2" data-name="Line 18"/>
<path class="cls-19" transform="translate(-218.97 -15.33)" d="M268.67,93.11c-4.43,0-9,.61-12.56,6.84" data-name="Path 3319"/>
<path class="cls-23" transform="translate(-218.97 -15.33)" d="M237.47,110.69a.71.71,0,0,1-.32-.07h0l.49,2,13,.57.59-1.88c-1.94-.08-13.53-.64-13.74-.64" data-name="Path 3320"/>
<path class="cls-19" transform="translate(-218.97 -15.33)" d="m237.47 110.69a0.71 0.71 0 0 1-0.32-0.07l0.49 2 13 0.57 0.59-1.88c-1.95-0.06-13.54-0.62-13.76-0.62z" data-name="Path 3321"/>
<path class="cls-15" transform="translate(-218.97 -15.33)" d="M235,104.61H223.35c-.78,0-1.11.4-.94,1.39a50,50,0,0,0,1.17,5.67,17.33,17.33,0,0,0,1.23,3c.21.35.35.61,1.29.61h9.27a1.15,1.15,0,0,0,1.15-1.06c0-.68-.49-7.87-.54-8.54s-.26-1-1-1" data-name="Path 3322"/>
<path class="cls-19" transform="translate(-218.97 -15.33)" d="M235,104.61H223.35c-.78,0-1.11.4-.94,1.39a50,50,0,0,0,1.17,5.67,17.33,17.33,0,0,0,1.23,3c.21.35.35.61,1.29.61h9.27a1.15,1.15,0,0,0,1.15-1.06c0-.68-.49-7.87-.54-8.54S235.71,104.61,235,104.61Z" data-name="Path 3323"/>
<path class="cls-23" transform="translate(-218.97 -15.33)" d="M259.71,80.61a.87.87,0,0,0,.85-.9V77.89a.87.87,0,0,0-.82-.93h-1.89a.88.88,0,0,0-.85.91V79.7a.88.88,0,0,0,.83.93h0Z" data-name="Path 3324"/>
<path class="cls-19" transform="translate(-218.97 -15.33)" d="M259.71,80.61a.87.87,0,0,0,.85-.9V77.89a.87.87,0,0,0-.82-.93h-1.89a.88.88,0,0,0-.85.91V79.7a.88.88,0,0,0,.83.93h0Z" data-name="Path 3325"/>
<path class="cls-25" transform="translate(-218.97 -15.33)" d="M277.29,87.23c1.27,0,1.88-1.35,1.88-2.33a2,2,0,0,0-2-2H274a2,2,0,0,0-2.09,2s0,.06,0,.09c0,1,.61,2.33,1.89,2.33Z" data-name="Path 3326"/>
<path class="cls-19" transform="translate(-218.97 -15.33)" d="M277.29,87.23c1.27,0,1.88-1.35,1.88-2.33a2,2,0,0,0-2-2H274a2,2,0,0,0-2.09,2s0,.06,0,.09c0,1,.61,2.33,1.89,2.33Z" data-name="Path 3327"/>
<path class="cls-26" transform="translate(-218.97 -15.33)" d="M280.56,88.22a.82.82,0,1,0-.82.82h0a.82.82,0,0,0,.82-.82" data-name="Path 3328"/>
<path class="cls-19" transform="translate(-218.97 -15.33)" d="M280.56,88.22a.82.82,0,1,0-.82.82h0A.82.82,0,0,0,280.56,88.22Z" data-name="Path 3329"/>
<path class="cls-15" transform="translate(-218.97 -15.33)" d="M282,96.48a8.22,8.22,0,0,0-2.54,1.45c-.46.65,0,1.12.34,1.64a69.14,69.14,0,0,1,4.58,7.61,64.36,64.36,0,0,1,2.66,8h1a16.2,16.2,0,0,0-.62-7.54C286,104.22,282,96.48,282,96.48" data-name="Path 3330"/>
<path class="cls-19" transform="translate(-218.97 -15.33)" d="M282,96.48a8.22,8.22,0,0,0-2.54,1.45c-.46.65,0,1.12.34,1.64a69.14,69.14,0,0,1,4.58,7.61,64.36,64.36,0,0,1,2.66,8h1a16.2,16.2,0,0,0-.62-7.54C286,104.21,282,96.48,282,96.48Z" data-name="Path 3331"/>
<path class="cls-23" transform="translate(-218.97 -15.33)" d="M256.57,67.42a1.07,1.07,0,0,0,1.09-1,.13.13,0,0,0,0-.06V52.25a1.17,1.17,0,0,0-1.22-1.13h-1.64a1.19,1.19,0,0,0-1.23,1.13V66.31a1.07,1.07,0,0,0,1,1.11h2Z" data-name="Path 3332"/>
<path class="cls-19" transform="translate(-218.97 -15.33)" d="M256.57,67.42a1.07,1.07,0,0,0,1.09-1,.13.13,0,0,0,0-.06V52.25a1.17,1.17,0,0,0-1.22-1.13h-1.64a1.19,1.19,0,0,0-1.23,1.13V66.31a1.07,1.07,0,0,0,1,1.11h2Z" data-name="Path 3333"/>
<path class="cls-27" transform="translate(-218.97 -15.33)" d="m252.33 117.09a16.45 16.45 0 1 1 16.45 16.46 16.46 16.46 0 0 1-16.43-16.46" data-name="Path 3334"/>
<path class="cls-28" transform="translate(-218.97 -15.33)" d="m252.33 117.09a16.45 16.45 0 1 1 16.45 16.46 16.46 16.46 0 0 1-16.45-16.46z" data-name="Path 3335"/>
<path class="cls-29" transform="translate(-218.97 -15.33)" d="m259.09 117.09a9.66 9.66 0 1 1 2.83 6.84 9.67 9.67 0 0 1-2.83-6.84" data-name="Path 3336"/>
<path class="cls-28" transform="translate(-218.97 -15.33)" d="m259.09 117.09a9.66 9.66 0 1 1 2.83 6.84 9.67 9.67 0 0 1-2.83-6.84z" data-name="Path 3337"/>
<circle class="cls-28" cx="49.79" cy="101.77" r="8.71" data-name="Ellipse 32"/>
<circle class="cls-28" cx="49.79" cy="101.76" r="5.79" data-name="Ellipse 33"/>
<path class="cls-21" transform="translate(-218.97 -15.33)" d="m265.18 117.09a3.57 3.57 0 1 1 1 2.54 3.57 3.57 0 0 1-1-2.54" data-name="Path 3338"/>
<path class="cls-28" transform="translate(-218.97 -15.33)" d="m265.18 117.09a3.57 3.57 0 1 1 1 2.54 3.57 3.57 0 0 1-1-2.54z" data-name="Path 3339"/>
<path class="cls-30" transform="translate(-218.97 -15.33)" d="m266.93 117.09a1.83 1.83 0 1 1 1.83 1.83 1.83 1.83 0 0 1-1.83-1.83" data-name="Path 3340"/>
<path class="cls-28" transform="translate(-218.97 -15.33)" d="m266.93 117.09a1.83 1.83 0 1 1 1.83 1.83 1.83 1.83 0 0 1-1.83-1.83z" data-name="Path 3341"/>
<path class="cls-28" transform="translate(-218.97 -15.33)" d="m267.77 117.09a1 1 0 1 1 1 1 1 1 0 0 1-1-1z" data-name="Path 3342"/>
<path class="cls-28" transform="translate(-218.97 -15.33)" d="M268.18,117.09a.58.58,0,0,1,.58-.57.58.58,0,0,1,.57.58.57.57,0,0,1-1,.4A.55.55,0,0,1,268.18,117.09Z" data-name="Path 3343"/>
<path class="cls-31" transform="translate(-218.97 -15.33)" d="M272.82,117.09a.58.58,0,0,1,.58-.57.58.58,0,0,1,.57.58.58.58,0,0,1-1.15,0h0" data-name="Path 3344"/>
<path class="cls-28" transform="translate(-218.97 -15.33)" d="M272.82,117.09a.58.58,0,0,1,.58-.57.58.58,0,0,1,.57.58.58.58,0,0,1-1.15,0Z" data-name="Path 3345"/>
<path class="cls-31" transform="translate(-218.97 -15.33)" d="M272,119.55a.59.59,0,0,1,.81-.13.57.57,0,0,1,.12.8.56.56,0,0,1-.8.13h0a.58.58,0,0,1-.13-.8" data-name="Path 3346"/>
<path class="cls-28" transform="translate(-218.97 -15.33)" d="M272,119.55a.59.59,0,0,1,.81-.13.57.57,0,0,1,.12.8.56.56,0,0,1-.8.13h0A.58.58,0,0,1,272,119.55Z" data-name="Path 3347"/>
<path class="cls-31" transform="translate(-218.97 -15.33)" d="M269.93,121.06a.57.57,0,1,1-.37.73.58.58,0,0,1,.37-.73h0" data-name="Path 3348"/>
<path class="cls-28" transform="translate(-218.97 -15.33)" d="M269.93,121.06a.57.57,0,1,1-.37.73.58.58,0,0,1,.37-.73Z" data-name="Path 3349"/>
<path class="cls-31" transform="translate(-218.97 -15.33)" d="M267.36,121.06a.58.58,0,0,1-.37,1.09.58.58,0,0,1-.36-.73.61.61,0,0,1,.28-.33.59.59,0,0,1,.45,0" data-name="Path 3350"/>
<path class="cls-28" transform="translate(-218.97 -15.33)" d="M267.36,121.06a.58.58,0,0,1-.37,1.09.58.58,0,0,1-.36-.73.61.61,0,0,1,.28-.33A.59.59,0,0,1,267.36,121.06Z" data-name="Path 3351"/>
<path class="cls-31" transform="translate(-218.97 -15.33)" d="M265.27,119.54a.58.58,0,1,1-.8-.12h0a.58.58,0,0,1,.8.13" data-name="Path 3352"/>
<path class="cls-28" transform="translate(-218.97 -15.33)" d="M265.27,119.54a.58.58,0,1,1-.8-.12h0A.58.58,0,0,1,265.27,119.54Z" data-name="Path 3353"/>
<path class="cls-31" transform="translate(-218.97 -15.33)" d="M264.48,117.09a.58.58,0,0,1-1.15,0,.58.58,0,0,1,.57-.58h0a.58.58,0,0,1,.58.58" data-name="Path 3354"/>
<path class="cls-28" transform="translate(-218.97 -15.33)" d="M264.48,117.09a.58.58,0,0,1-1.15,0,.58.58,0,0,1,.57-.58h0A.58.58,0,0,1,264.48,117.09Z" data-name="Path 3355"/>
<path class="cls-31" transform="translate(-218.97 -15.33)" d="M265.27,114.63a.56.56,0,0,1-.8.13.58.58,0,1,1,.68-.93h0a.57.57,0,0,1,.12.8" data-name="Path 3356"/>
<path class="cls-28" transform="translate(-218.97 -15.33)" d="M265.27,114.63a.56.56,0,0,1-.8.13.58.58,0,1,1,.68-.93h0A.57.57,0,0,1,265.27,114.63Z" data-name="Path 3357"/>
<path class="cls-31" transform="translate(-218.97 -15.33)" d="M267.37,113.12a.58.58,0,0,1-.73-.37.57.57,0,0,1,1.09-.36h0a.57.57,0,0,1-.36.72" data-name="Path 3358"/>
<path class="cls-28" transform="translate(-218.97 -15.33)" d="M267.37,113.12a.58.58,0,0,1-.73-.37.57.57,0,0,1,1.09-.36h0A.57.57,0,0,1,267.37,113.12Z" data-name="Path 3359"/>
<path class="cls-31" transform="translate(-218.97 -15.33)" d="M270,113.12a.57.57,0,0,1-.38-.72.58.58,0,0,1,.73-.37.57.57,0,0,1,.37.72h0a.56.56,0,0,1-.72.37" data-name="Path 3360"/>
<path class="cls-28" transform="translate(-218.97 -15.33)" d="M270,113.12a.57.57,0,0,1-.38-.72.58.58,0,0,1,.73-.37.57.57,0,0,1,.37.72h0A.56.56,0,0,1,270,113.12Z" data-name="Path 3361"/>
<path class="cls-31" transform="translate(-218.97 -15.33)" d="M272,114.64a.57.57,0,1,1,.8.13h0a.56.56,0,0,1-.8-.13" data-name="Path 3362"/>
<path class="cls-28" transform="translate(-218.97 -15.33)" d="M272,114.64a.57.57,0,1,1,.8.13h0A.56.56,0,0,1,272,114.64Z" data-name="Path 3363"/>
<path class="cls-28" transform="translate(-218.97 -15.33)" d="M260.62,117.17c0-1,.39-1.84.88-1.84s.88.82.88,1.84S262,119,261.5,119,260.62,118.19,260.62,117.17Z" data-name="Path 3364"/>
<path class="cls-28" transform="translate(-218.97 -15.33)" d="M275.1,117.17c0-1,.39-1.84.88-1.84s.88.82.88,1.84S276.47,119,276,119,275.1,118.19,275.1,117.17Z" data-name="Path 3365"/>
<path class="cls-28" transform="translate(-218.97 -15.33)" d="m259.41 117.09a9.35 9.35 0 1 1 9.34 9.35 9.34 9.34 0 0 1-9.34-9.35z" data-name="Path 3366"/>
<path class="cls-27" transform="translate(-218.97 -15.33)" d="m381.52 117.09a16.46 16.46 0 1 1 16.48 16.46 16.46 16.46 0 0 1-16.45-16.46" data-name="Path 3367"/>
<path class="cls-28" transform="translate(-218.97 -15.33)" d="m381.52 117.09a16.46 16.46 0 1 1 16.48 16.46 16.46 16.46 0 0 1-16.48-16.46z" data-name="Path 3368"/>
<path class="cls-29" transform="translate(-218.97 -15.33)" d="m388.31 117.09a9.66 9.66 0 1 1 2.83 6.84 9.66 9.66 0 0 1-2.83-6.84" data-name="Path 3369"/>
<path class="cls-28" transform="translate(-218.97 -15.33)" d="m388.31 117.09a9.66 9.66 0 1 1 2.83 6.84 9.66 9.66 0 0 1-2.83-6.84z" data-name="Path 3370"/>
<circle class="cls-28" cx="179.01" cy="101.77" r="8.71" data-name="Ellipse 34"/>
<circle class="cls-28" cx="179" cy="101.77" r="5.79" data-name="Ellipse 35"/>
<path class="cls-21" transform="translate(-218.97 -15.33)" d="m394.39 117.09a3.58 3.58 0 1 1 1.05 2.54 3.58 3.58 0 0 1-1.05-2.54" data-name="Path 3371"/>
<path class="cls-28" transform="translate(-218.97 -15.33)" d="m394.39 117.09a3.58 3.58 0 1 1 1.05 2.54 3.58 3.58 0 0 1-1.05-2.54z" data-name="Path 3372"/>
<path class="cls-30" transform="translate(-218.97 -15.33)" d="M396.15,117.09a1.82,1.82,0,1,1,1.82,1.83,1.78,1.78,0,0,1-1.29-.54,1.81,1.81,0,0,1-.53-1.29" data-name="Path 3373"/>
<path class="cls-28" transform="translate(-218.97 -15.33)" d="m396.15 117.09a1.82 1.82 0 1 1 1.82 1.83 1.78 1.78 0 0 1-1.29-0.54 1.81 1.81 0 0 1-0.53-1.29z" data-name="Path 3374"/>
<path class="cls-28" transform="translate(-218.97 -15.33)" d="m397 117.09a1 1 0 1 1 1 1 1 1 0 0 1-1-1z" data-name="Path 3375"/>
<path class="cls-28" transform="translate(-218.97 -15.33)" d="M397.39,117.09a.58.58,0,0,1,.58-.58.58.58,0,0,1,0,1.16h0A.58.58,0,0,1,397.39,117.09Z" data-name="Path 3376"/>
<path class="cls-31" transform="translate(-218.97 -15.33)" d="M402,117.09a.58.58,0,0,1,.58-.57.57.57,0,0,1,.57.58.57.57,0,0,1-.58.57.56.56,0,0,1-.57-.58" data-name="Path 3377"/>
<path class="cls-28" transform="translate(-218.97 -15.33)" d="M402,117.09a.58.58,0,0,1,.58-.57.57.57,0,0,1,.57.58.57.57,0,0,1-.58.57.56.56,0,0,1-.57-.58Z" data-name="Path 3378"/>
<path class="cls-31" transform="translate(-218.97 -15.33)" d="M401.24,119.55a.57.57,0,1,1,.13.8h0a.57.57,0,0,1-.12-.8" data-name="Path 3379"/>
<path class="cls-28" transform="translate(-218.97 -15.33)" d="M401.24,119.55a.57.57,0,1,1,.13.8h0A.57.57,0,0,1,401.24,119.55Z" data-name="Path 3380"/>
<path class="cls-31" transform="translate(-218.97 -15.33)" d="M399.15,121.06a.57.57,0,1,1-.37.73.57.57,0,0,1,.37-.73h0" data-name="Path 3381"/>
<path class="cls-28" transform="translate(-218.97 -15.33)" d="M399.15,121.06a.57.57,0,1,1-.37.73.57.57,0,0,1,.37-.73Z" data-name="Path 3382"/>
<path class="cls-31" transform="translate(-218.97 -15.33)" d="M396.57,121.06a.56.56,0,1,1-.44,0,.56.56,0,0,1,.44,0" data-name="Path 3383"/>
<path class="cls-28" transform="translate(-218.97 -15.33)" d="m396.57 121.06a0.56 0.56 0 1 1-0.44 0 0.56 0.56 0 0 1 0.44 0z" data-name="Path 3384"/>
<path class="cls-31" transform="translate(-218.97 -15.33)" d="M394.47,119.54a.57.57,0,1,1-.93.67.58.58,0,0,1,.93-.68h0" data-name="Path 3385"/>
<path class="cls-28" transform="translate(-218.97 -15.33)" d="M394.47,119.54a.57.57,0,1,1-.93.67.58.58,0,0,1,.93-.68Z" data-name="Path 3386"/>
<path class="cls-31" transform="translate(-218.97 -15.33)" d="M393.69,117.09a.58.58,0,0,1-1.15,0,.58.58,0,1,1,1.15,0h0" data-name="Path 3387"/>
<path class="cls-28" transform="translate(-218.97 -15.33)" d="M393.69,117.09a.58.58,0,0,1-1.15,0,.58.58,0,1,1,1.15,0Z" data-name="Path 3388"/>
<path class="cls-31" transform="translate(-218.97 -15.33)" d="M394.47,114.63a.57.57,0,1,1-.93-.67.58.58,0,0,1,.8-.13h0a.57.57,0,0,1,.13.8" data-name="Path 3389"/>
<path class="cls-28" transform="translate(-218.97 -15.33)" d="M394.47,114.63a.57.57,0,1,1-.93-.67.58.58,0,0,1,.8-.13h0A.57.57,0,0,1,394.47,114.63Z" data-name="Path 3390"/>
<path class="cls-31" transform="translate(-218.97 -15.33)" d="M396.58,113.12a.58.58,0,0,1-.72-.37.57.57,0,0,1,.37-.72.57.57,0,0,1,.68.8.59.59,0,0,1-.33.29" data-name="Path 3391"/>
<path class="cls-28" transform="translate(-218.97 -15.33)" d="M396.58,113.12a.58.58,0,0,1-.72-.37.57.57,0,0,1,.37-.72.57.57,0,0,1,.68.8A.59.59,0,0,1,396.58,113.12Z" data-name="Path 3392"/>
<path class="cls-31" transform="translate(-218.97 -15.33)" d="M399.16,113.12a.56.56,0,0,1-.37-.72.57.57,0,1,1,1.09.36.61.61,0,0,1-.28.33.56.56,0,0,1-.44,0" data-name="Path 3393"/>
<path class="cls-28" transform="translate(-218.97 -15.33)" d="M399.16,113.12a.56.56,0,0,1-.37-.72.57.57,0,1,1,1.09.36.61.61,0,0,1-.28.33A.56.56,0,0,1,399.16,113.12Z" data-name="Path 3394"/>
<path class="cls-31" transform="translate(-218.97 -15.33)" d="M401.24,114.64a.59.59,0,0,1,.13-.8.6.6,0,0,1,.81.13.58.58,0,0,1-.13.8.56.56,0,0,1-.8-.12h0" data-name="Path 3395"/>
<path class="cls-28" transform="translate(-218.97 -15.33)" d="M401.24,114.64a.59.59,0,0,1,.13-.8.6.6,0,0,1,.81.13.58.58,0,0,1-.13.8.56.56,0,0,1-.8-.12Z" data-name="Path 3396"/>
<path class="cls-28" transform="translate(-218.97 -15.33)" d="M389.83,117.17c0-1,.39-1.84.88-1.84s.88.82.88,1.84-.39,1.84-.88,1.84S389.83,118.19,389.83,117.17Z" data-name="Path 3397"/>
<path class="cls-28" transform="translate(-218.97 -15.33)" d="M404.31,117.17c0-1,.4-1.84.88-1.84s.88.82.88,1.84-.4,1.84-.88,1.84S404.31,118.19,404.31,117.17Z" data-name="Path 3398"/>
<path class="cls-28" transform="translate(-218.97 -15.33)" d="m388.62 117.09a9.35 9.35 0 1 1 9.35 9.35 9.34 9.34 0 0 1-9.35-9.35z" data-name="Path 3399"/>
<path class="cls-23" transform="translate(-218.97 -15.33)" d="M255.67,46.76a.2.2,0,0,0-.19-.19.19.19,0,0,0-.19.19h0v4.38a.18.18,0,0,0,.18.19h0a.19.19,0,0,0,.19-.19h0Z" data-name="Path 3400"/>
<path class="cls-19" transform="translate(-218.97 -15.33)" d="M255.67,46.76a.2.2,0,0,0-.19-.19.19.19,0,0,0-.19.19h0v4.38a.18.18,0,0,0,.18.19h0a.19.19,0,0,0,.19-.19h0Z" data-name="Path 3401"/>
<rect class="cls-24" x="18.82" y="74.22" width="16.58" height="2.45" data-name="Rectangle 223"/>
<rect class="cls-19" x="18.82" y="74.22" width="16.58" height="2.45" data-name="Rectangle 224"/>
<path class="cls-32" transform="translate(-218.97 -15.33)" d="M236.05,99.36v-6h-6c-.16,0-.19.12-.19.33s.14,3.32.44,5.71Z" data-name="Path 3402"/>
<path class="cls-19" transform="translate(-218.97 -15.33)" d="M236.05,99.36v-6h-6c-.16,0-.19.12-.19.33s.14,3.32.44,5.71Z" data-name="Path 3403"/>
<path class="cls-23" transform="translate(-218.97 -15.33)" d="M258.54,78.55a27.34,27.34,0,0,1-1.88-7.38c-.09-1-1-1.15-1-1.73V67.27l-.41,0v2.31c0,.58.93.72,1,1.73a27.23,27.23,0,0,0,1.87,7.38Z" data-name="Path 3404"/>
<path class="cls-19" transform="translate(-218.97 -15.33)" d="M258.54,78.55a27.34,27.34,0,0,1-1.88-7.38c-.09-1-1-1.15-1-1.73V67.27l-.41,0v2.31c0,.58.93.72,1,1.73a27.23,27.23,0,0,0,1.87,7.38Z" data-name="Path 3405"/>
<path class="cls-14" transform="translate(-218.97 -15.33)" d="M322.2,34.43h-8.08V15.51L322.83,18A2.85,2.85,0,0,1,325,21.42a2.78,2.78,0,0,1-.86,1.5h0a2.8,2.8,0,0,0-.72,3.1l1.79,4.43a3,3,0,0,1-3,4Z" data-name="Path 3406"/>
<path class="cls-33" transform="translate(-218.97 -15.33)" d="M306.53,72.62h3.1V68.68h-3.1l-.64,2Z" data-name="Path 3407"/>
<rect class="cls-20" x="88.59" y="53.82" width="1.6" height="3" data-name="Rectangle 225"/>
<path class="cls-33" transform="translate(-218.97 -15.33)" d="M335.79,113.32v3.11h3.94v-3.11l-2-.64Z" data-name="Path 3408"/>
<rect class="cls-20" x="117.29" y="99.02" width="3" height="1.6" data-name="Rectangle 226"/>
<rect class="cls-20" x="75.38" y="36" width=".49" height="3.5" data-name="Rectangle 227"/>
<rect class="cls-20" x="75.38" y="71.12" width=".49" height="3.5" data-name="Rectangle 228"/>
<rect class="cls-20" x="229.31" y="20.32" width="2.53" height="61.96" data-name="Rectangle 229"/>
<rect class="cls-20" x="229.76" y="24.14" width=".66" height="4.66" data-name="Rectangle 230"/>
<rect class="cls-20" x="227.01" y="24.88" width="3.77" height=".74" data-name="Rectangle 231"/>
<rect class="cls-20" x="227.01" y="27.32" width="3.77" height=".74" data-name="Rectangle 232"/>
<rect class="cls-20" x="229.76" y="73.78" width=".66" height="4.66" data-name="Rectangle 233"/>
<rect class="cls-20" x="227.01" y="74.53" width="3.77" height=".74" data-name="Rectangle 234"/>
<rect class="cls-20" x="227.01" y="76.97" width="3.77" height=".74" data-name="Rectangle 235"/>
<rect class="cls-20" x="229.76" y="53.77" width=".66" height="4.66" data-name="Rectangle 236"/>
<rect class="cls-20" x="227.01" y="54.51" width="3.77" height=".74" data-name="Rectangle 237"/>
<rect class="cls-20" x="227.01" y="56.95" width="3.77" height=".74" data-name="Rectangle 238"/>
<rect class="cls-20" x="229.76" y="44.15" width=".66" height="4.66" data-name="Rectangle 239"/>
<rect class="cls-20" x="227.01" y="44.9" width="3.77" height=".74" data-name="Rectangle 240"/>
<rect class="cls-20" x="227.01" y="47.34" width="3.77" height=".74" data-name="Rectangle 241"/>
<path class="cls-34" transform="translate(-218.97 -15.33)" d="M443.88,40.36a1.45,1.45,0,1,1-1.44,1.45h0A1.44,1.44,0,0,1,443.88,40.36Zm-1.05,1.45a1.05,1.05,0,0,0,2.1,0,1.06,1.06,0,0,0-1.06-1,1.1,1.1,0,0,0-.73.31,1.06,1.06,0,0,0-.31.75Z" data-name="Path 3409"/>
<path class="cls-34" transform="translate(-218.97 -15.33)" d="M442.44,91.45A1.44,1.44,0,1,0,443.88,90a1.44,1.44,0,0,0-1.44,1.44Zm.39,0a1.05,1.05,0,1,1,1.05,1,1,1,0,0,1-1.05-1Z" data-name="Path 3410"/>
<path class="cls-34" transform="translate(-218.97 -15.33)" d="M442.44,71.44A1.44,1.44,0,1,0,443.88,70a1.44,1.44,0,0,0-1.44,1.45Zm.39,0a1.05,1.05,0,1,1,1.05,1,1,1,0,0,1-1.05-1Z" data-name="Path 3411"/>
<path class="cls-34" transform="translate(-218.97 -15.33)" d="m442.44 61.82a1.44 1.44 0 1 0 1.43-1.45 1.48 1.48 0 0 0-1 0.43 1.45 1.45 0 0 0-0.43 1.02zm0.39 0a1.05 1.05 0 1 1 1.05 1 1 1 0 0 1-1.05-1z" data-name="Path 3412"/>
<path class="cls-35" transform="translate(-218.97 -15.33)" d="M324.49,18.29a1,1,0,0,1,1.36-.31h0L370,46.55a3.88,3.88,0,0,0,3.44.37l2.21-.84a1.59,1.59,0,0,1,.21-.6l1.07-1.72a1.28,1.28,0,0,1,.68-.53l3.16-1,1.2-.36a2.71,2.71,0,0,1,3.23,2h0a2.71,2.71,0,0,1-1.55,3.48l-1.19.37-3.16,1a1.2,1.2,0,0,1-.87-.06l-1.84-.82-2.46.93a5.84,5.84,0,0,1-5.2-.57L324.78,19.65a1,1,0,0,1-.29-1.36Z" data-name="Path 3413"/>
<rect class="cls-23" x="200.09" y="84.35" width="1.78" height="17.76" data-name="Rectangle 242"/>
</g>
</svg>
