<svg id="Layer_1" data-name="Layer 1" xmlns="http://www.w3.org/2000/svg" viewBox="0 0 92 62"><defs><style>.cls-1{fill:#fffcd5;}</style></defs><title>Weather_Glyph</title><path d="M7.45,30.32a.7.7,0,0,1,.66.68.68.68,0,0,1-.66.66H.68A.7.7,0,0,1,0,31a.72.72,0,0,1,.68-.68Zm6.13,16.15a.64.64,0,0,1,.92,0,.62.62,0,0,1,0,.92L9.71,52.16a.64.64,0,0,1-.92,0,.68.68,0,0,1,0-.95ZM8.81,10.76a.64.64,0,0,1,0-.92.68.68,0,0,1,.95,0l4.74,4.79a.65.65,0,0,1-.92.92ZM42.78,31A12.89,12.89,0,1,1,29.9,18.1,13,13,0,0,1,42.78,31ZM18.17,31A11.73,11.73,0,1,0,29.9,19.27,11.81,11.81,0,0,0,18.17,31ZM30.65,8.48a.68.68,0,0,1-1.36,0V1.71a.68.68,0,0,1,1.36,0Zm0,51.81a.68.68,0,0,1-1.36,0V53.52a.68.68,0,0,1,1.36,0ZM50.19,9.84a.66.66,0,0,1,.94,0,.64.64,0,0,1,0,.92l-4.79,4.79a.62.62,0,0,1-.92,0,.6.6,0,0,1,0-.92Zm.94,41.37a.68.68,0,0,1,0,.95.65.65,0,0,1-.94,0l-4.77-4.77a.63.63,0,0,1,0-.95.64.64,0,0,1,.92,0Zm1.38-19.55a.7.7,0,0,1-.68-.66.72.72,0,0,1,.68-.68h6.77a.71.71,0,0,1,.66.68.69.69,0,0,1-.66.66Z"/><path class="cls-1" d="M18.17,31A11.73,11.73,0,1,0,29.9,19.27,11.81,11.81,0,0,0,18.17,31Z"/></svg>