<svg id="Layer_1" data-name="Layer 1" xmlns="http://www.w3.org/2000/svg" viewBox="0 0 92 62"><defs><style>.cls-1{fill:#fffcd5;}</style></defs><title>Weather_Glyph</title><path d="M52.71,41a1.27,1.27,0,0,1,.53-.14.65.65,0,0,1,.7.73,1.33,1.33,0,0,1-.13.55c-4.2,9.51-14.5,16-25.44,16C12,58.09,0,46.1,0,29.7,0,18.43,6.9,7.84,16.72,4.08a3.56,3.56,0,0,1,.81-.17.56.56,0,0,1,.6.61,3.25,3.25,0,0,1-.2.77A26.72,26.72,0,0,0,16,16C16,32.3,26.46,42.34,43.29,42.34,46.71,42.34,51.11,41.72,52.71,41Zm-24.37,16A27.2,27.2,0,0,0,52.51,42.21a30.18,30.18,0,0,1-9.16,1.31C25.77,43.52,14.85,33,14.85,16A33.38,33.38,0,0,1,16.72,5.09C7.43,9.2,1.16,19.11,1.16,29.73,1.16,45.39,12.66,56.93,28.34,56.93Z"/><path class="cls-1" d="M28.34,56.93A27.2,27.2,0,0,0,52.51,42.21a30.18,30.18,0,0,1-9.16,1.31C25.77,43.52,14.85,33,14.85,16A33.38,33.38,0,0,1,16.72,5.09C7.43,9.2,1.16,19.11,1.16,29.73,1.16,45.39,12.66,56.93,28.34,56.93Z"/></svg>