<svg id="Layer_1" data-name="Layer 1" xmlns="http://www.w3.org/2000/svg" viewBox="0 0 92 62"><defs><style>.cls-1{fill:#c7eafb;}.cls-2{fill:#fffcd5;}</style></defs><title>Weather_Glyph</title><path d="M.65,51.41c0-5.76,4.23-9.68,9.38-11C10.9,30.24,18.87,22.2,28.59,22.2c7.24,0,12.59,3.59,16.23,9.16a14.48,14.48,0,0,1,28.95.53c0,7-5.06,12.74-12,14.44,0,.51.07,1,.07,1.53C61.81,55.73,55.3,62,47,62H12.41C5,62,.65,57.14.65,51.41Zm46.29,9.45c7.7,0,13.73-5.81,13.73-12.93C60.67,40.66,54.5,35,46.62,35a1.37,1.37,0,0,1-1.46-.87c-3-5.88-8.48-10.79-16.57-10.79-8.94,0-16.89,7.82-17.47,17.18,0,.56-.24.8-1,1-5,1.51-8.36,5-8.36,9.87,0,5.2,3.86,9.45,10.62,9.45ZM37.27,10.65a.52.52,0,0,1,0-.77.54.54,0,0,1,.8,0l6.73,6.73a.59.59,0,0,1,0,.8.63.63,0,0,1-.8,0ZM61.52,45.09c6.44-1.61,11-6.88,11-13.2a13.21,13.21,0,1,0-26.42,0c0,.63.08,1.29.13,1.82a.61.61,0,0,1,.09.2C54.06,33.93,60.18,38.57,61.52,45.09ZM58.7,10.82V1.3a.59.59,0,0,1,1.17,0v9.52a.59.59,0,0,1-1.17,0Zm15.07,5.79L80.5,9.88a.56.56,0,1,1,.8.77l-6.76,6.76a.59.59,0,0,1-.77,0A.57.57,0,0,1,73.77,16.61Zm0,30.59a.54.54,0,0,1,0-.78.57.57,0,0,1,.8,0l6.73,6.73a.55.55,0,0,1,0,.78.53.53,0,0,1-.8,0Zm6-15.31a.53.53,0,0,1,.56-.53H89.8c.34,0,.64.22.59.53a.6.6,0,0,1-.59.54H80.28A.55.55,0,0,1,79.72,31.89Z"/><path class="cls-1" d="M46.94,60.86c7.7,0,13.73-5.81,13.73-12.93C60.67,40.66,54.5,35,46.62,35a1.37,1.37,0,0,1-1.46-.87c-3-5.88-8.48-10.79-16.57-10.79-8.94,0-16.89,7.82-17.47,17.18,0,.56-.24.8-1,1-5,1.51-8.36,5-8.36,9.87,0,5.2,3.86,9.45,10.62,9.45Z"/><path class="cls-2" d="M61.52,45.09c6.44-1.61,11-6.88,11-13.2a13.21,13.21,0,1,0-26.42,0c0,.63.08,1.29.13,1.82a.61.61,0,0,1,.09.2C54.06,33.93,60.18,38.57,61.52,45.09Z"/></svg>