<svg id="Layer_1" data-name="Layer 1" xmlns="http://www.w3.org/2000/svg" viewBox="0 0 92 62"><defs><style>.cls-1{fill:#c7eafb;}.cls-2{fill:#fffcd5;}</style></defs><title>Weather_Glyph</title><path d="M0,51.41c0-5.76,4.2-9.68,9.38-11,.85-10.21,8.84-18.25,18.54-18.25,6.93,0,12.13,3.28,15.75,8.43a15.88,15.88,0,0,1-.17-2.38c0-10.52,8.5-15.43,12.56-15.82,1-.1,1.65.22,1.65,1.12,0,1.41-1.6,2.62-1.6,7.55,0,7.37,5.17,12.59,13.31,12.59,4,0,6.52-1.31,7.68-1.31a1,1,0,0,1,1.1.9c.24,3.45-4.52,12.9-17.13,13,0,.51.09,1,.09,1.58,0,7.9-6.53,14.17-14.87,14.17H11.74C4.35,62,0,57.14,0,51.41Zm46.29,9.45C54,60.86,60,55,60,47.93,60,40.66,53.82,35,46,35a1.38,1.38,0,0,1-1.32-.6l-.12,0a5.19,5.19,0,0,1-.19-.63c-3-5.76-8.46-10.47-16.43-10.47-8.94,0-16.86,7.8-17.45,17.18-.05.56-.24.8-1,1-5,1.51-8.36,5-8.36,9.87,0,5.17,3.84,9.45,10.62,9.45ZM60.94,45.4V45c11.55,0,15.9-7.94,16-11.32l-.12,0A23.79,23.79,0,0,1,69.52,35C60.58,35,54.89,29.22,54.89,21a15.48,15.48,0,0,1,1.61-7.32l0-.1c-4,.39-11.71,4.84-11.71,14.58a18.43,18.43,0,0,0,.8,5.54l.09.18C53.53,33.93,59.73,38.72,60.94,45.4Z"/><path class="cls-1" d="M46.29,60.86C54,60.86,60,55,60,47.93,60,40.66,53.82,35,46,35a1.38,1.38,0,0,1-1.32-.6l-.12,0a5.19,5.19,0,0,1-.19-.63c-3-5.76-8.46-10.47-16.43-10.47-8.94,0-16.86,7.8-17.45,17.18-.05.56-.24.8-1,1-5,1.51-8.36,5-8.36,9.87,0,5.17,3.84,9.45,10.62,9.45Z"/><path class="cls-2" d="M60.94,45.4V45c11.55,0,15.9-7.94,16-11.32l-.12,0A23.79,23.79,0,0,1,69.52,35C60.58,35,54.89,29.22,54.89,21a15.48,15.48,0,0,1,1.61-7.32l0-.1c-4,.39-11.71,4.84-11.71,14.58a18.43,18.43,0,0,0,.8,5.54l.09.18C53.53,33.93,59.73,38.72,60.94,45.4Z"/></svg>