<svg id="Layer_1" data-name="Layer 1" xmlns="http://www.w3.org/2000/svg" viewBox="0 0 92 62"><defs><style>.cls-1{fill:#c7eafb;}</style></defs><title>Weather_Glyph</title><path d="M0,51.1c0-5.89,4.35-10,9.69-11.31.86-10.53,9.1-18.9,19.14-18.9,8.81,0,14.76,4.77,18.3,12.15,9.08,0,16.06,6.11,16.06,14.37S56.49,62,47.9,62H12.09C4.44,62,0,57,0,51.1Zm47.88,9.82c8,0,14.24-6.06,14.24-13.44S55.68,34.09,47.55,34.09A1.41,1.41,0,0,1,46,33.17C42.91,26.71,37.18,22,28.83,22c-9.25,0-17.54,8.14-18.08,17.87,0,.57-.25.86-1,1.05-5.16,1.34-8.65,5.17-8.65,10.2,0,5.36,4,9.84,11,9.84Z"/><path class="cls-1" d="M47.88,60.92c8,0,14.24-6.06,14.24-13.44S55.68,34.09,47.55,34.09A1.41,1.41,0,0,1,46,33.17C42.91,26.71,37.18,22,28.83,22c-9.25,0-17.54,8.14-18.08,17.87,0,.57-.25.86-1,1.05-5.16,1.34-8.65,5.17-8.65,10.2,0,5.36,4,9.84,11,9.84Z"/></svg>