<svg id="Layer_1" data-name="Layer 1" xmlns="http://www.w3.org/2000/svg" viewBox="0 0 92 62"><defs><style>.cls-1{fill:#c7eafb;}.cls-2{fill:#009fe9;}</style></defs><title>Weather_Glyph</title><path d="M9,27.44A12.2,12.2,0,0,1,21.16,15.33c4.22,0,7.76,2.06,10.33,5.93a14,14,0,0,1,3.91-.46,9.17,9.17,0,0,1,9.05,8.57,12,12,0,0,1,9.67,12,10.36,10.36,0,0,1,9.07,10.24C63.19,57.76,58.54,62,52.1,62H17.91c-5.61,0-9.65-3.89-9.65-9.27a8.92,8.92,0,0,1,1.5-5C3.6,47.28,0,42.86,0,37.79A10.42,10.42,0,0,1,9,27.44Zm1.54,19.22A10.08,10.08,0,0,1,18,43.37a9.88,9.88,0,0,1,9.87-9,10.61,10.61,0,0,1,3.87.77,12.13,12.13,0,0,1,10.72-5.91c.31,0,.61,0,.92,0a7.79,7.79,0,0,0-8-7.34,13.92,13.92,0,0,0-2.84.22c-1,.2-1.56.26-2.09-.51a11.24,11.24,0,0,0-9.29-5.18A10.86,10.86,0,0,0,10.15,27c0,1.08-.31,1.34-1.27,1.52A9.3,9.3,0,0,0,1.1,37.79C1.1,42.4,4.46,46.49,10.57,46.66Z"/><path class="cls-1" d="M52.1,60.9c5.91,0,10-3.78,10-9.27a9.2,9.2,0,0,0-8-9.12c-1-.13-1-.07-1-1.23,0-6-4.44-11-10.59-11a10.93,10.93,0,0,0-9.76,5.15c-.5.79-.83.88-1.78.55a8.35,8.35,0,0,0-3.05-.55,8.64,8.64,0,0,0-8.72,7.93c-.11.94-.51,1-1.56,1.1a8.3,8.3,0,0,0-8.2,8.24c0,4.79,3.54,8.17,8.55,8.17Z"/><path class="cls-2" d="M10.57,46.66A10.08,10.08,0,0,1,18,43.37a9.88,9.88,0,0,1,9.87-9,10.61,10.61,0,0,1,3.87.77,12.13,12.13,0,0,1,10.72-5.91c.31,0,.61,0,.92,0a7.79,7.79,0,0,0-8-7.34,13.92,13.92,0,0,0-2.84.22c-1,.2-1.56.26-2.09-.51a11.24,11.24,0,0,0-9.29-5.18A10.86,10.86,0,0,0,10.15,27c0,1.08-.31,1.34-1.27,1.52A9.3,9.3,0,0,0,1.1,37.79C1.1,42.4,4.46,46.49,10.57,46.66Z"/></svg>