<svg id="Layer_1" data-name="Layer 1" xmlns="http://www.w3.org/2000/svg" viewBox="0 0 92 62"><defs><style>.cls-1{fill:#009fe9;}</style></defs><title>Weather_Glyph</title><path d="M0,30.19C0,24.3,4.35,20.26,9.69,18.9,10.55,8.35,18.79,0,28.83,0c8.81,0,14.76,4.77,18.3,12.13,9.08,0,16.06,6.11,16.06,14.37S56.49,41.09,47.9,41.09H12.09C4.44,41.09,0,36.15,0,30.19ZM47.88,40c8,0,14.24-6.06,14.24-13.44S55.68,13.21,47.55,13.21a1.45,1.45,0,0,1-1.54-1C42.91,5.8,37.18,1.08,28.83,1.08c-9.25,0-17.54,8.11-18.08,17.86,0,.55-.25.84-1,1-5.16,1.37-8.65,5.19-8.65,10.22,0,5.34,4,9.82,11,9.82ZM5.56,63.37c-.31-.18-.37-.53-.13-1l9.31-16.1c.27-.42.62-.53.88-.38a.63.63,0,0,1,.16,1L6.46,63C6.22,63.44,5.89,63.57,5.56,63.37Zm11.34,0c-.31-.18-.38-.53-.13-1l9.31-16.1c.27-.42.6-.53.88-.38a.64.64,0,0,1,.13,1L17.78,63C17.56,63.44,17.21,63.57,16.9,63.37Zm11.25,0c-.31-.18-.38-.53-.13-1l9.31-16.1c.27-.42.62-.53.88-.38a.63.63,0,0,1,.13,1L29,63C28.81,63.44,28.46,63.57,28.15,63.37Zm11.34,0c-.31-.18-.38-.53-.16-1l9.32-16.1c.28-.42.61-.53.9-.38a.64.64,0,0,1,.13,1L40.36,63C40.14,63.44,39.79,63.57,39.49,63.37Z"/><path class="cls-1" d="M47.88,40c8,0,14.24-6.06,14.24-13.44S55.68,13.21,47.55,13.21a1.45,1.45,0,0,1-1.54-1C42.91,5.8,37.18,1.08,28.83,1.08c-9.25,0-17.54,8.11-18.08,17.86,0,.55-.25.84-1,1-5.16,1.37-8.65,5.19-8.65,10.22,0,5.34,4,9.82,11,9.82Z"/></svg>