<svg id="Layer_1" data-name="Layer 1" xmlns="http://www.w3.org/2000/svg" viewBox="0 0 92 62"><defs><style>.cls-1{fill:#c7eafb;}</style></defs><title>Weather_Glyph</title><path d="M0,30.19C0,24.3,4.35,20.26,9.69,18.9,10.55,8.35,18.79,0,28.83,0c8.81,0,14.76,4.77,18.3,12.13,9.08,0,16.06,6.11,16.06,14.37S56.49,41.09,47.9,41.09H12.08C4.44,41.09,0,36.15,0,30.19ZM47.88,40c8,0,14.24-6.06,14.24-13.44S55.68,13.21,47.55,13.21a1.45,1.45,0,0,1-1.54-1C42.91,5.8,37.18,1.08,28.83,1.08c-9.25,0-17.54,8.11-18.09,17.86,0,.55-.24.84-1,1-5.16,1.37-8.65,5.19-8.65,10.22,0,5.34,4,9.82,11,9.82ZM10,55.37c-.31-.17-.37-.53-.13-1l4.68-8.06c.26-.42.62-.53.88-.37s.42.52.15,1L10.94,55C10.7,55.44,10.37,55.57,10,55.37Zm9,7.93c-.31-.19-.37-.52-.13-1l4.68-8.07c.26-.44.62-.52.88-.37s.42.53.13,1L20,62.93C19.73,63.37,19.38,63.5,19.07,63.3Zm13.56-7.91c-.31-.19-.37-.55-.13-1l4.68-8.06c.26-.42.61-.53.88-.37a.62.62,0,0,1,.15,1L33.51,55C33.29,55.44,32.94,55.57,32.63,55.39Zm9,7.91c-.31-.19-.37-.52-.13-1l4.68-8.07c.26-.44.59-.52.88-.37s.39.53.13,1l-4.68,8.06C42.32,63.37,42,63.5,41.66,63.3Z"/><path class="cls-1" d="M47.88,40c8,0,14.24-6.06,14.24-13.44S55.68,13.21,47.55,13.21a1.45,1.45,0,0,1-1.54-1C42.91,5.8,37.18,1.08,28.83,1.08c-9.25,0-17.54,8.11-18.09,17.86,0,.55-.24.84-1,1-5.16,1.37-8.65,5.19-8.65,10.22,0,5.34,4,9.82,11,9.82Z"/></svg>