<svg id="Layer_1" data-name="Layer 1" xmlns="http://www.w3.org/2000/svg" viewBox="0 0 92 62"><defs><style>.cls-1{fill:#009fe9;}.cls-2{fill:#ef4e23;}</style></defs><title>Weather_Glyph</title><path d="M0,30.19C0,24.3,4.35,20.26,9.69,18.9,10.55,8.35,18.79,0,28.83,0c8.81,0,14.76,4.77,18.3,12.13,9.08,0,16.06,6.11,16.06,14.37S56.49,41.09,47.9,41.09H12.09C4.44,41.09,0,36.15,0,30.19ZM47.88,40c8,0,14.24-6.06,14.24-13.44S55.68,13.21,47.55,13.21a1.45,1.45,0,0,1-1.54-1C42.91,5.8,37.18,1.08,28.83,1.08c-9.25,0-17.54,8.11-18.08,17.86,0,.55-.25.84-1,1-5.16,1.37-8.65,5.19-8.65,10.22,0,5.34,4,9.82,11,9.82Z"/><path class="cls-1" d="M47.88,40c8,0,14.24-6.06,14.24-13.44S55.68,13.21,47.55,13.21a1.45,1.45,0,0,1-1.54-1C42.91,5.8,37.18,1.08,28.83,1.08c-9.25,0-17.54,8.11-18.08,17.86,0,.55-.25.84-1,1-5.16,1.37-8.65,5.19-8.65,10.22,0,5.34,4,9.82,11,9.82Z"/><path class="cls-2" d="M39.05,44,29.16,60.35a1,1,0,0,1-1.27.59c-.4-.15-.55-.62-.31-1.24L33.22,46H28.33c-1,0-1.65-.56-1.18-1.64l5.64-12.86a1.74,1.74,0,0,1,2-1.27h2c.9,0,1.28.71.81,1.58L32.11,42.23h6C39.23,42.23,39.64,43.13,39.05,44Z"/></svg>