<svg id="Layer_1" data-name="Layer 1" xmlns="http://www.w3.org/2000/svg" viewBox="0 0 92 62"><defs><style>.cls-1{fill:#009fe9;}.cls-2{fill:#c7eafb;}</style></defs><title>Weather_Glyph</title><path class="cls-1" d="M1.74,52.07A1.07,1.07,0,0,1,2.79,51a1.08,1.08,0,0,1,0,2.16A1.08,1.08,0,0,1,1.74,52.07Zm3.62-6.88a1.06,1.06,0,0,1,1.06-1.06,1.08,1.08,0,0,1,1,1.06,1,1,0,0,1-1,1.05A1,1,0,0,1,5.36,45.19ZM10.09,58.9a1,1,0,0,1,1.05-1,1.05,1.05,0,0,1,1.06,1A1.1,1.1,0,0,1,11.14,60,1.08,1.08,0,0,1,10.09,58.9Zm3.62-6.83A1.07,1.07,0,0,1,14.77,51a1.08,1.08,0,0,1,0,2.16A1.08,1.08,0,0,1,13.71,52.07Zm3.63-6.88a1.07,1.07,0,0,1,1.05-1.06,1.11,1.11,0,0,1,1.06,1.06,1.07,1.07,0,0,1-1.06,1.05A1,1,0,0,1,17.34,45.19ZM22.08,58.9a1,1,0,0,1,1-1,1,1,0,0,1,1.05,1A1.09,1.09,0,0,1,23.12,60,1.07,1.07,0,0,1,22.08,58.9Zm3.61-6.83a1.07,1.07,0,0,1,1-1.06,1.08,1.08,0,0,1,0,2.16A1.08,1.08,0,0,1,25.69,52.07Zm3.62-6.88a1.07,1.07,0,0,1,1.06-1.06,1.1,1.1,0,0,1,1.05,1.06,1.06,1.06,0,0,1-1.05,1.05A1,1,0,0,1,29.31,45.19ZM34.06,58.9a1,1,0,0,1,1-1,1.06,1.06,0,0,1,1.06,1A1.12,1.12,0,0,1,35.11,60,1.07,1.07,0,0,1,34.06,58.9Zm3.6-6.83A1.07,1.07,0,0,1,38.72,51a1.08,1.08,0,1,1-1.06,1.06Zm3.63-6.88a1.07,1.07,0,0,1,1.05-1.06,1.11,1.11,0,0,1,1.06,1.06,1.07,1.07,0,0,1-1.06,1.05A1,1,0,0,1,41.29,45.19ZM46,58.9a1,1,0,0,1,1.06-1,1.06,1.06,0,0,1,1,1,1.11,1.11,0,0,1-1,1.1A1.08,1.08,0,0,1,46,58.9Zm3.63-6.83a1.05,1.05,0,0,1,1-1.06,1.08,1.08,0,0,1,0,2.16A1.06,1.06,0,0,1,49.66,52.07Zm3.6-6.88a1.07,1.07,0,0,1,1.06-1.06,1.09,1.09,0,0,1,1,1.06,1.06,1.06,0,0,1-2.11,0ZM58,58.9a1,1,0,0,1,1.05-1,1.06,1.06,0,0,1,1.06,1A1.12,1.12,0,0,1,59.06,60,1.08,1.08,0,0,1,58,58.9Zm3.62-6.83A1.06,1.06,0,0,1,62.69,51a1.08,1.08,0,0,1,0,2.16A1.07,1.07,0,0,1,61.63,52.07Z"/><path class="cls-1" d="M1.74,33.07A1.07,1.07,0,0,1,2.79,32a1.08,1.08,0,0,1,0,2.16A1.08,1.08,0,0,1,1.74,33.07Zm3.62-6.88a1.06,1.06,0,0,1,1.06-1.06,1.08,1.08,0,0,1,1,1.06,1,1,0,0,1-1,1A1,1,0,0,1,5.36,26.19ZM10.09,39.9a1,1,0,0,1,1.05-1,1.05,1.05,0,0,1,1.06,1A1.1,1.1,0,0,1,11.14,41,1.08,1.08,0,0,1,10.09,39.9Zm3.62-6.83A1.07,1.07,0,0,1,14.77,32a1.08,1.08,0,0,1,0,2.16A1.08,1.08,0,0,1,13.71,33.07Zm3.63-6.88a1.07,1.07,0,0,1,1.05-1.06,1.11,1.11,0,0,1,1.06,1.06,1.07,1.07,0,0,1-1.06,1A1,1,0,0,1,17.34,26.19ZM22.08,39.9a1,1,0,0,1,1-1,1,1,0,0,1,1.05,1A1.09,1.09,0,0,1,23.12,41,1.07,1.07,0,0,1,22.08,39.9Zm3.61-6.83a1.07,1.07,0,0,1,1-1.06,1.08,1.08,0,0,1,0,2.16A1.08,1.08,0,0,1,25.69,33.07Zm3.62-6.88a1.07,1.07,0,0,1,1.06-1.06,1.1,1.1,0,0,1,1.05,1.06,1.06,1.06,0,0,1-1.05,1A1,1,0,0,1,29.31,26.19ZM34.06,39.9a1,1,0,0,1,1-1,1.06,1.06,0,0,1,1.06,1A1.12,1.12,0,0,1,35.11,41,1.07,1.07,0,0,1,34.06,39.9Zm3.6-6.83A1.07,1.07,0,0,1,38.72,32a1.08,1.08,0,1,1-1.06,1.06Zm3.63-6.88a1.07,1.07,0,0,1,1.05-1.06,1.11,1.11,0,0,1,1.06,1.06,1.07,1.07,0,0,1-1.06,1A1,1,0,0,1,41.29,26.19ZM46,39.9a1,1,0,0,1,1.06-1,1.06,1.06,0,0,1,1,1,1.11,1.11,0,0,1-1,1.1A1.08,1.08,0,0,1,46,39.9Zm3.63-6.83a1.05,1.05,0,0,1,1-1.06,1.08,1.08,0,0,1,0,2.16A1.06,1.06,0,0,1,49.66,33.07Zm3.6-6.88a1.07,1.07,0,0,1,1.06-1.06,1.09,1.09,0,0,1,1,1.06,1.06,1.06,0,0,1-2.11,0ZM58,39.9a1,1,0,0,1,1.05-1,1.06,1.06,0,0,1,1.06,1A1.12,1.12,0,0,1,59.06,41,1.08,1.08,0,0,1,58,39.9Zm3.62-6.83A1.06,1.06,0,0,1,62.69,32a1.08,1.08,0,0,1,0,2.16A1.07,1.07,0,0,1,61.63,33.07Z"/><path class="cls-2" d="M2.36,36.19a1.06,1.06,0,0,1,1.06-1.06,1.08,1.08,0,0,1,1,1.06,1,1,0,0,1-1,1.05A1,1,0,0,1,2.36,36.19ZM7.09,49.9a1,1,0,0,1,1.05-1,1.05,1.05,0,0,1,1.06,1A1.1,1.1,0,0,1,8.14,51,1.08,1.08,0,0,1,7.09,49.9Zm3.62-6.83A1.07,1.07,0,0,1,11.77,42a1.08,1.08,0,0,1,0,2.16A1.08,1.08,0,0,1,10.71,43.07Zm3.63-6.88a1.07,1.07,0,0,1,1.05-1.06,1.11,1.11,0,0,1,1.06,1.06,1.07,1.07,0,0,1-1.06,1.05A1,1,0,0,1,14.34,36.19ZM19.08,49.9a1,1,0,0,1,1-1,1,1,0,0,1,1.05,1A1.09,1.09,0,0,1,20.12,51,1.07,1.07,0,0,1,19.08,49.9Zm3.61-6.83a1.07,1.07,0,0,1,1-1.06,1.08,1.08,0,0,1,0,2.16A1.08,1.08,0,0,1,22.69,43.07Zm3.62-6.88a1.07,1.07,0,0,1,1.06-1.06,1.1,1.1,0,0,1,1.05,1.06,1.06,1.06,0,0,1-1.05,1.05A1,1,0,0,1,26.31,36.19ZM31.06,49.9a1,1,0,0,1,1.05-1,1.06,1.06,0,0,1,1.06,1A1.12,1.12,0,0,1,32.11,51,1.07,1.07,0,0,1,31.06,49.9Zm3.6-6.83A1.07,1.07,0,0,1,35.72,42a1.08,1.08,0,1,1-1.06,1.06Zm3.63-6.88a1.07,1.07,0,0,1,1.05-1.06,1.11,1.11,0,0,1,1.06,1.06,1.07,1.07,0,0,1-1.06,1.05A1,1,0,0,1,38.29,36.19ZM43,49.9a1,1,0,0,1,1.06-1,1.06,1.06,0,0,1,1,1,1.11,1.11,0,0,1-1,1.1A1.08,1.08,0,0,1,43,49.9Zm3.63-6.83a1.05,1.05,0,0,1,1-1.06,1.08,1.08,0,0,1,0,2.16A1.06,1.06,0,0,1,46.66,43.07Zm3.6-6.88a1.07,1.07,0,0,1,1.06-1.06,1.09,1.09,0,0,1,1,1.06,1.06,1.06,0,0,1-2.11,0ZM55,49.9a1,1,0,0,1,1.05-1,1.06,1.06,0,0,1,1.06,1A1.12,1.12,0,0,1,56.06,51,1.08,1.08,0,0,1,55,49.9Zm3.62-6.83A1.06,1.06,0,0,1,59.69,42a1.08,1.08,0,0,1,0,2.16A1.07,1.07,0,0,1,58.63,43.07Z"/><path class="cls-2" d="M2.36,17.19a1.06,1.06,0,0,1,1.06-1.06,1.08,1.08,0,0,1,1,1.06,1,1,0,0,1-1,1A1,1,0,0,1,2.36,17.19ZM7.09,30.9a1,1,0,0,1,1.05-1,1.05,1.05,0,0,1,1.06,1A1.1,1.1,0,0,1,8.14,32,1.08,1.08,0,0,1,7.09,30.9Zm3.62-6.83A1.07,1.07,0,0,1,11.77,23a1.08,1.08,0,0,1,0,2.16A1.08,1.08,0,0,1,10.71,24.07Zm3.63-6.88a1.07,1.07,0,0,1,1.05-1.06,1.11,1.11,0,0,1,1.06,1.06,1.07,1.07,0,0,1-1.06,1A1,1,0,0,1,14.34,17.19ZM19.08,30.9a1,1,0,0,1,1-1,1,1,0,0,1,1.05,1A1.09,1.09,0,0,1,20.12,32,1.07,1.07,0,0,1,19.08,30.9Zm3.61-6.83a1.07,1.07,0,0,1,1-1.06,1.08,1.08,0,0,1,0,2.16A1.08,1.08,0,0,1,22.69,24.07Zm3.62-6.88a1.07,1.07,0,0,1,1.06-1.06,1.1,1.1,0,0,1,1.05,1.06,1.06,1.06,0,0,1-1.05,1A1,1,0,0,1,26.31,17.19ZM31.06,30.9a1,1,0,0,1,1.05-1,1.06,1.06,0,0,1,1.06,1A1.12,1.12,0,0,1,32.11,32,1.07,1.07,0,0,1,31.06,30.9Zm3.6-6.83A1.07,1.07,0,0,1,35.72,23a1.08,1.08,0,1,1-1.06,1.06Zm3.63-6.88a1.07,1.07,0,0,1,1.05-1.06,1.11,1.11,0,0,1,1.06,1.06,1.07,1.07,0,0,1-1.06,1A1,1,0,0,1,38.29,17.19ZM43,30.9a1,1,0,0,1,1.06-1,1.06,1.06,0,0,1,1,1,1.11,1.11,0,0,1-1,1.1A1.08,1.08,0,0,1,43,30.9Zm3.63-6.83a1.05,1.05,0,0,1,1-1.06,1.08,1.08,0,0,1,0,2.16A1.06,1.06,0,0,1,46.66,24.07Zm3.6-6.88a1.07,1.07,0,0,1,1.06-1.06,1.09,1.09,0,0,1,1,1.06,1.06,1.06,0,0,1-2.11,0ZM55,30.9a1,1,0,0,1,1.05-1,1.06,1.06,0,0,1,1.06,1A1.12,1.12,0,0,1,56.06,32,1.08,1.08,0,0,1,55,30.9Zm3.62-6.83A1.06,1.06,0,0,1,59.69,23a1.08,1.08,0,0,1,0,2.16A1.07,1.07,0,0,1,58.63,24.07Z"/></svg>