<svg xmlns="http://www.w3.org/2000/svg" width="20" height="20.01" viewBox="0 0 20 20.01">
    <path d="M0 10a10 10 0 1 1 10 10.01A10.028 10.028 0 0 1 0 10zm19.494 0A9.494 9.494 0 1 0 10 19.5a9.5 9.5 0 0 0 9.493-9.5zM5.242 5.067a.9.9 0 0 1 .144-.134c.454-.341 1.208-.877 1.714-.166l1.383 1.982a1.066 1.066 0 0 1-.165 1.476l-.454.505a.324.324 0 0 0-.041.4 7.27 7.27 0 0 0 1.321 1.7 8.4 8.4 0 0 0 1.713 1.331.388.388 0 0 0 .454-.041l.454-.444a1.041 1.041 0 0 1 1.465-.2c1.826 1.259 2.013 1.373 2.126 1.476.4.423.33 1.011-.361 1.7a.144.144 0 0 0-.062.072c-1.94 1.93-5.294.237-7.606-2.084-2.334-2.31-4.004-5.654-2.084-7.573z"/>
</svg>
